<?xml version="1.0" encoding="UTF-8" standalone="no"?><svg xmlns="http://www.w3.org/2000/svg" xmlns:xlink="http://www.w3.org/1999/xlink" fill="#646044" height="333.3" preserveAspectRatio="xMidYMid meet" version="1" viewBox="-0.1 -1.0 500.1 333.3" width="500.1" zoomAndPan="magnify"><g id="change1_1"><path d="M300,268.7c-14.8,0-28.2-3.5-38.9-14.6c-5.7,2.7-11.5,1.3-17.2-0.7c-12.7-4.4-24.5-10.5-35.4-18.4c-2.3-1.7-4.1-4.1-6.4-5.7 c-3-2.1-4.6-5.2-6.3-8.2c-5.2,2.8-10.6,2.2-15.8,1.5c-7.4-1.1-14.4-3.7-21-7.2c-1-0.5-1.8-1.2-2.8-1.8c-2.8,2.7-6.4,3-10.1,3.3 c-7.3,0.6-14.2-0.7-21-3.6c-0.5-0.2-1.4-0.1-1.9,0.1c-8.4,4.4-16.6,4.1-24.5-1c-0.8-0.5-1.3-0.5-2-0.1c-2.6,1.6-5.1,3.3-7.7,4.8 c-8.1,4.9-16.7,8.5-26.2,9.5c-5.5,0.6-10.9,0.1-16.3-1c-13.4-2.9-25.2-8.9-34.7-18.8C4.7,199.6-0.1,191,0,180.7 c0.2-20,10.7-33.4,28.2-41.9c3.5-1.7,7.3-2.1,11.1-2.1c0.6,0,1.3,0.2,1.9,0.3c0,0.2,0,0.3,0,0.5c-0.5,0.2-1,0.4-1.5,0.5 c-14.4,2.2-24.1,10.9-30.9,23.2c-3.6,6.6-4,13.8-2.6,20.9c1.2,6.5,5.1,11.9,9.9,16.3c11.3,10.4,24.6,16.6,39.9,18 c10.1,0.9,20-0.6,29.6-4.1c3.4-1.2,6.5-3.3,9.9-5c-1.4-2.6,0-5.3,0-7.9c0-4.6,0-9.3-0.6-13.9c-1.8-13.8-7.5-25.9-16.7-36.2 c-3.8-4.2-8.8-7.3-13.3-10.9c-0.2-0.2-0.5-0.4-0.7-0.6c0.1-0.2,0.1-0.3,0.2-0.5c1,0.3,2,0.5,2.9,0.9c8.2,3.5,14.8,9,20.2,16 c9.1,11.9,14.9,25,16,40.1c0.1,1,0.3,1.9,0.3,2.9c0.1,3.6-0.2,7.2-2.2,10.4c5.9,2.5,11.6,1.8,16.8-0.6c-1.1-18.8-6.3-36.2-16.3-52 c-4-6.3-7.6-12.9-11.7-19.1c-2.4-3.6-5.3-6.9-8.1-10.2c-0.9-1.1-2.2-2-3.4-3c1.5-0.6,3-0.3,4.1,0.7c3.1,2.7,6.2,5.4,9,8.4 c2.7,2.8,5.3,5.8,7.4,9.1c6.4,9.7,13.1,19.3,18.1,29.9c3.7,8,5.6,16.4,7.2,24.9c0.5,2.7,1.1,5.4,1.5,8.2c0.2,1.1,0.1,2.4-0.3,3.5 c-0.4,1.1-0.1,1.6,0.8,1.9c3.6,1,7.1,2.3,10.8,2.8c4.7,0.6,9.3,0,13.6-2.3c2.5-1.3,4.9-1.3,7.6-0.3c8.1,2.9,16.3,5.3,25,5.3 c3.1,0,6.2-0.6,9.5-1c-2.6-10.6-2.5-21.1-0.4-31.5c0.2,0,0.4,0,0.6,0c0,0.7,0.1,1.3,0.1,2c0.3,9.6,1.3,19,4.7,28.1 c0.8,2.3,1.8,4.5,2.8,6.8c0.3,0.6,0.6,1.2,1.1,1.6c2.9,2.3,5.6,4.8,8.7,6.7c13.4,8.2,27.9,14,43.1,18.1c0.3,0.1,0.6,0.1,1.1,0.2 c0-0.4,0.1-0.7,0.1-1c-0.5-8.3,0.8-16.4,3.3-24.3c0.4-1.2,1.1-2.3,1.7-3.5c0.2,0.1,0.4,0.1,0.6,0.2c0.1,0.4,0.2,0.9,0.1,1.3 c-1.2,8-0.5,16.1-0.8,24.2c-0.2,3.6,1.4,5.1,3.8,6.8c9.7,7.1,20.7,10.2,32.5,11c3.2,0.2,6.4,0,9.6-0.1c0.4,0,0.9-0.5,1.3-0.8 c3.1-3,5.9-6.4,9.3-9.1c20.8-16.9,48.6-16.2,68.6,4.7c4.1,4.3,6,9.6,7.4,15.2c1.1,4.3,1.9,8.7,1.7,13.2c-0.1,2.1-0.6,4.1-2.1,5.7 c-1.1,1.3-2.1,1.2-2.6-0.4c-0.5-1.3-0.7-2.6-0.9-3.9c-1.9-12.7-7-23.6-17.6-31.3c-11.6-8.4-24.2-10.1-37.8-5.8 c-9.6,3-17.1,8.9-24.2,15.6c-0.7,0.6-1.1,1.6-1.5,2.5c-1,2-1.8,4.2-3,6.1c-5.2,8.4-5.2,17-0.4,25.5c4.4,7.9,11,13.7,19,17.9 c8.8,4.6,18.1,6.8,28.1,6.1c0.9-0.1,1.8-0.1,2.5-0.5c7-2.8,13.6-6.4,18.8-12c3.1-3.4,6.1-6.9,9.2-10.4c0.3-0.4,0.6-0.8,1-1.1 c0.9-0.6,1.8-0.3,1.8,0.8c0,1.2-0.1,2.6-0.5,3.7c-1,2.5-2.2,5-3.6,7.3c-2.9,4.9-6.3,9.3-10.8,12.9c-3.1,2.5-6.5,4.4-10.3,5.4 c-0.7,0.2-1.3,0.5-1.9,0.9c-2.1,1.5-4.5,2.2-7,2.3c-20,0.5-36.5-6.8-49.3-22.3c-5.1-6.2-7.9-13.5-7.8-21.8 c0.1-6.3,2.2-11.9,6.2-16.8c0.3-0.4,0.6-0.8,0.9-1.2C300,268.8,300,268.7,300,268.7z"/></g><g id="change1_2"><path d="M319.6,153.6c2-4.6,4.6-8.7,7.8-12.5c16.3-19.1,36.3-33,59.5-42.2c16.3-6.5,33.4-9.4,51-8.7c3.7,0.1,7.3,0.6,11.1,1 c-0.3-0.9-0.7-2-1.1-3c-4.3-12.9-12.5-22.8-23.4-30.7c-2.9-2.1-6-3.7-9.5-4.4c-0.9-0.2-1.8-0.8-2.5-1.4c-1-0.9-1.9-2-2.5-3.2 c-3.7-7.7-9.7-13.1-16.7-17.6c-14.1-9.1-29.3-15.8-45.5-20.2c-10.4-2.8-21-4.3-31.7-3.4c-14.8,1.3-28.7,5.5-40.9,14.4 c-1.7,1.3-3.3,2.9-5.1,4c-1.5,0.9-3.2,1.4-4.9,2c-2.1,0.7-4.2,1-6.3,1.7c-4.3,1.4-7.8,3.9-10.4,7.7c-7.1,10.6-15.8,20-21.6,31.5 c-2.9,5.7-5.6,11.4-8.3,17.1c-0.5,1.1-1.1,2.2-2,3.1c4.5-17.2,10.1-33.8,21.2-48.2c-5.1-2.8-10.6-4.7-16.5-5.3 c-11.7-1.2-22.9,1.3-33.8,5.2c-12.1,4.4-23.4,10.4-34.5,16.7c-5.2,3-9.9,6.7-13.8,11.2c-1.6,1.8-2.8,3.8-4.1,5.8 c-0.7,1.1-1.4,2-2.8,1.7c-1.5-0.4-1.8-1.6-1.6-2.8c0.3-1.6,0.5-3.3,1.3-4.6c1.4-2.5,2.9-5.1,4.9-7c3.8-3.7,7.7-7.5,12.1-10.3 c11.8-7.4,24-13.9,37.3-18.4c12.3-4.2,24.9-6.1,38-4.8c6.4,0.6,12.3,3.1,17.9,6.1c1.1,0.6,1.7,0.5,2.6-0.3c3.8-3.4,7.2-7.5,12.3-9.1 c3-1,6.1-1.9,9.2-2.7c0.9-0.2,1.9,0,3,0c3.4-6.2,9.3-9.7,15.4-12.8c14.1-7.3,29.1-10.2,45-8.7c19.4,1.8,37.5,7.8,54.8,16.4 c9,4.5,17.5,9.6,24.7,16.7c4.3,4.2,7.3,9.2,9.7,14.7c0.2,0.4,0.6,0.9,1,1c7.4,1.7,13.1,6.1,18.3,11.3c6.5,6.4,11.8,13.8,15,22.4 c1.4,3.8,2.6,7.6,2.5,11.7c0,0.4,0.2,0.8,0.4,1.2c1.4,2.6,0.1,5.2-2.9,5.4c-1.8,0.1-3.7,0-5.5-0.5c-8.9-2.6-18-2.6-27.1-1.9 c-27,2.1-51.2,12.1-73.4,27.2c-8.1,5.5-15.5,11.9-21.8,19.4C323.5,148,321.6,150.9,319.6,153.6z"/></g><g id="change1_3"><path d="M389.9,43.9c-2.5,0.7-5,1.3-7.5,2c-10.3,2.9-19,8.5-27.5,14.8c-10.2,7.4-18.6,16.5-26.9,25.9c-0.1,0.1-0.2,0.3-0.2,0.7 c0.6-0.5,1.1-0.9,1.7-1.4c7.2-5.6,14.1-11.6,21.6-16.8C363.9,60.5,377.8,54,393,51c1.6-0.3,3.2-0.4,4.8-0.5c0.4,0,0.8,0.4,1.2,0.6 c-0.3,0.3-0.5,0.8-0.8,0.9c-2,0.8-3.9,1.6-5.9,2.3c-18.7,6.2-35.1,16.5-49.9,29.3c-7.3,6.3-14.4,12.8-21.3,19.6 c-4.3,4.3-8.2,9.1-12,13.9c-3.4,4.2-6.5,8.7-9.8,13c-3.8,4.8-6.6,10.2-9,15.8c-6.3,15.2-12.8,30.3-17.7,46 c-1.5,4.8-2.5,9.6-3.9,14.4c-0.5,1.9-1.2,3.7-2.1,5.4c-0.7,1.4-1.8,1.3-2.6,0c-1.5-2.4-1.9-5.2-1.7-8c0.6-8.6,2.6-16.9,4.9-25.2 c6-22.2,16-42.5,29.3-61.2c12.3-17.3,25.5-33.7,41.6-47.8c9.1-8,19-14.8,29.8-20.2c6.3-3.1,13.1-4.9,20.1-5.8c0.7-0.1,1.4,0,2,0 C389.9,43.6,389.9,43.8,389.9,43.9z"/></g><g id="change1_4"><path d="M435.8,284.9c0.2,6.6-1.9,12.6-4.8,18.5c0.1,0.1,0.2,0.2,0.3,0.2c18.9-9.9,32.9-24.2,39.6-44.7c3.4-10.6,4.9-21.5,3.2-32.6 c-0.4-2.4-1.4-4.7-2.2-6.9c-2-5.8-4.9-11.1-8.7-15.9c-3.2-4.1-6.3-8.3-9.7-12.3c-7.9-9.4-18.1-15.4-29.5-19.4 c-0.6-0.2-1.3-0.5-1.9-0.7c0-0.2,0-0.3,0.1-0.5c1.7,0.1,3.4,0.1,5,0.4c8.3,1.7,16.5,3.7,23.8,8.4c2.7,1.7,5.3,3.6,7.6,5.9 c4,4.1,7.8,8.5,11.6,12.8c3.6,4.1,5.3,9.2,6.4,14.4c1.7,8.4,4,16.7,4.2,25.3c0.5,22.7-7.3,41.9-24.5,57c-9.4,8.3-20,14.8-31.2,20.1 c-4.3,2-8.1,4.5-11.9,7.1c-10,7-21.1,10.3-33.2,10.1c-2.6,0-5.2-0.5-7.7-1c-1.1-0.2-2.3-0.8-3.2-1.5c-1.4-1.1-1.8-3-1.2-4.5 c0.6-1.5,2.1-2.6,3.8-2.5c1.3,0.1,2.6,0.6,4,0.7c4.7,0.6,9.4,0.1,14.1-0.5c7.1-0.8,13.4-3.5,19.4-7c1.1-0.6,2.1-1.3,3.2-1.9 c11.4-5.7,18.1-15.4,22.1-27.1c0.2-0.7,0.5-1.3,0.8-2C435.4,284.8,435.6,284.8,435.8,284.9z"/></g><g id="change1_5"><path d="M211.1,81.4c-4.4,19.6-8.1,39.2-6.2,59.4c10.9-41.3,30.7-77.9,58.9-109.9c0.2-0.2,0.6-0.3,0.9-0.5c0.1,0.1,0.3,0.2,0.4,0.3 c-0.3,0.6-0.7,1.3-1,1.9c-7.5,12.2-15.5,24.1-22.5,36.6c-13.1,23.4-23.1,48.1-29.4,74.2c-3.5,14.5-4.6,29.3-3.3,44.1 c0.6,6.4,2.4,12.8,3.6,19.1c0.3,1.6,0.5,3.2,0.5,4.8c0,1.4-0.8,2.6-2.3,3.1c-1.4,0.5-2.8,0.2-3.7-0.9c-0.8-0.9-1.6-2.1-1.9-3.3 c-2.5-9.2-4.5-18.5-4.5-28c0-6.7,0.4-13.3,0.6-20c0-0.9-0.4-1.8-0.6-2.7c-0.4-1.8-1-3.6-1.1-5.4c-0.8-12.3-1.5-24.6,0.5-36.8 c2-11.9,5.8-23.3,9.9-34.7c0.1-0.4,0.4-0.8,0.6-1.1C210.5,81.5,210.7,81.5,211.1,81.4z"/></g><g id="change1_6"><path d="M500,187.7c-0.5,9.5-2.5,17.6-6.2,25.2c-1.4,2.9-2.9,5.7-4.5,8.5c-0.6,1-1.5,2.1-2.5,2.7c-2.4,1.6-5,0.1-5-2.7 c0-1.1,0.4-2.3,0.9-3.4c0.5-1.3,1.3-2.5,2-3.7c2.1-3.6,3.3-7.4,3.7-11.5c0.1-0.8,0.2-1.6,0.4-2.4c2.6-7.8,1.9-15.8,1.5-23.9 c-1.3-21.9-8.9-41.5-20.4-59.9c-2.8-4.6-6.3-8.6-10.3-12.1c-0.7-0.6-1.4-1.2-2-1.9c-0.4-0.5-0.6-1-0.9-1.6c0.7,0,1.4-0.1,1.9,0.1 c1.8,0.7,3.6,1.5,5.3,2.4c4.1,2.3,7.5,5.3,10.4,9c12.6,16.2,20.6,34.3,23.5,54.6C498.8,174.3,499.3,181.5,500,187.7z"/></g><g id="change1_7"><path d="M323.9,188.2c1.5-1.5,2.9-3.1,4.5-4.5c13.2-11.5,28.3-19.3,45.3-23.6c15.1-3.9,30.2-5.1,45.6-2.9c9.2,1.3,17.6,4.9,26,8.6 c10.6,4.6,19.4,11.7,27,20.2c2.6,2.9,5,6,7.1,9.2c2.1,3.3,1.8,7.2,1.9,10.9c0,0.5-0.5,1.3-0.8,1.4c-0.4,0.1-1-0.4-1.5-0.7 c-0.3-0.2-0.5-0.6-0.6-0.9c-3.3-8.9-9.9-15.3-16.4-21.7c-8-7.9-17.8-12.5-28.2-16.2c-10.9-3.8-22-5-33.4-5 c-12.7-0.1-25.1,1.9-37.2,5.4c-12.7,3.8-24.8,9.2-35.4,17.4c-1.2,0.9-2.2,1.9-3.4,2.8C324.1,188.4,324,188.3,323.9,188.2z"/></g><g id="change1_8"><path d="M168,183.1c-0.4,7.8-0.7,14.3-1.1,20.9c-0.1,1.2-0.5,2.4-1.1,3.5c-0.8,1.5-2.1,2.2-3.8,1.9c-1.7-0.3-2.8-1.4-2.9-3.1 c-0.2-1.6-0.2-3.4,0-5c1.5-12.8,1.7-25.6,0.5-38.5c-1.2-12.3-2.3-24.6-4.8-36.8c-2.6-12.7-6.1-25.1-10.8-37.1 c-0.9-2.4-2.3-4.7-3.4-7c-0.2-0.5-0.2-1.1-0.2-1.6c0.6,0,1.4-0.3,1.8,0c1.2,0.9,2.5,2,3.4,3.2c4,5.6,6.5,12,9,18.3 c7.2,18.7,10.5,38.1,12,57.9C167.1,168,167.5,176.1,168,183.1z"/></g><g id="change1_9"><path d="M307.4,250c1.5-1.8,2.9-3.7,4.6-5.4c3.6-3.8,8-6.4,12.8-8.5c9.3-4.2,18.9-6.8,29.2-7.1c9.6-0.2,18.6,2.1,27.4,5.6 c12.1,4.7,22.5,11.9,30.7,21.8c5.6,6.8,8.4,14.8,7.2,23.7c-0.2,1.6-1.3,3.2-2.3,4.5c-1.1,1.3-2.4,0.9-3-0.7 c-0.4-0.9-0.6-1.9-0.6-2.8c-0.3-5.7-2.6-10.6-6-15c-1.7-2.3-3.5-4.4-5.2-6.7c-14.2-18.8-43.4-29.5-68.8-23 c-8.8,2.2-17.1,5.8-23.7,12.3c-0.6,0.6-1.3,1.1-1.9,1.6C307.7,250.2,307.6,250.1,307.4,250z"/></g><g id="change1_10"><path d="M413.1,169.4c-13.8,0.3-27.1,3.4-40.1,7.6c-17.4,5.7-32.9,15-46.4,27.2c-11.2,10.1-20,22-25.7,36.2 c-0.6,1.5-1.5,2.9-2.4,4.2c-0.9,1.2-2,1-2.3-0.4c-0.4-1.9-0.7-3.9-0.3-5.7c0.4-2.6,1.3-5.3,2.2-7.8c7.2-19,20.2-32.8,37.8-42.6 c16.3-9.1,33.5-15.2,52-17.8c6.3-0.9,12.6-1.3,18.9-1.7c2.1-0.1,4.3,0.3,6.4,0.5C413.2,169.1,413.1,169.3,413.1,169.4z"/></g><g id="change1_11"><path d="M351.8,157.8c4.5-4.6,9.7-8.4,15.2-11.7c12.8-7.6,26.4-13.1,41.1-15.1c22-3,42.2,2,60.1,15.6c2.1,1.6,4.1,3.6,6,5.5 c1.4,1.5,1.8,3.5,1,4.1c-1.5,1-2.8,0-4-0.8c-9.5-6.8-19.9-11.7-30.8-15.6c-16-5.7-32.1-5.7-48.5-1.3c-14.5,3.9-28,9.8-39.8,19.2 C352,157.8,351.9,157.8,351.8,157.8z"/></g><g id="change1_12"><path d="M115.9,73.7c2.6,0.3,5.2,0.3,7.7,0.8c1.6,0.3,3.1,1.3,4.4,2.3c1.9,1.7,1.3,4.1-1.2,4.7c-1.8,0.4-3.7,0.5-5.5,0.3 c-13.4-1.9-25.8,0.7-37.2,8c-8.6,5.5-15.1,13.2-20,22.1c-0.3,0.6-0.7,1.3-0.9,1.9c-0.8,3.9-3.4,6.4-6.2,8.8 c-3.3,2.9-6.5,5.8-8.4,9.8c-0.2,0.4-1,0.9-1.4,0.8c-0.4-0.1-0.9-0.9-0.8-1.3c0.3-1.6,0.4-3.5,1.2-4.8c1.8-2.9,3.9-5.6,6.1-8.2 c0.8-0.9,2.1-1.6,3.3-2c1.2-0.4,1.8-1.1,2.3-2.3c4.1-11.4,11.2-20.8,20.5-28.4C88.9,78.6,102.8,74,115.9,73.7z"/></g><g id="change1_13"><path d="M214.6,39.8c-0.2,0.4-0.3,0.9-0.5,1.3c-12.4,24.8-18,51.1-18.4,78.7c-0.1,6.1,0.1,12.3,0,18.4c0,3.5-0.3,7-0.5,10.6 c-0.1,1.5-0.6,2.9-2.3,3.1c-1.7,0.2-2.7-1-3-2.4c-0.7-3.8-1.6-7.6-1.6-11.4c0.1-27.5,4.4-54.2,15.1-79.7c2.5-6,5.4-11.7,9.3-16.9 c0.5-0.6,1-1.2,1.5-1.8C214.5,39.6,214.5,39.7,214.6,39.8z"/></g><g id="change1_14"><path d="M299.6,141.7c-0.2,0.5-0.4,1-0.7,1.4c-7.8,16.1-14.7,32.6-20,49.7c-3.7,12-5.6,24.5-7.7,36.9c-0.5,2.7-1.2,5.4-1.9,8.1 c-0.1,0.5-0.3,0.9-0.5,1.4c-0.5,1.2-1.4,2-2.8,1.8c-1.4-0.2-2-1.3-2.1-2.5c-0.1-0.9-0.1-1.7-0.1-2.6c0.2-9,2.6-17.7,4.8-26.3 c4.9-19.5,13.5-37.5,22.8-55.1c1.9-3.6,4.1-7.2,6.2-10.7c0.4-0.8,1.1-1.4,1.6-2.2C299.4,141.6,299.5,141.6,299.6,141.7z"/></g><g id="change1_15"><path d="M414.2,146.2c6.1-0.5,12,0.2,17.9,1.6c10.4,2.4,20.5,5.6,29.7,11.2c6.2,3.8,12.1,7.9,17.1,13.1c2.4,2.4,4.4,5.2,6.3,8 c0.8,1.3,1.1,3,1.2,4.6c0.1,1.4-0.6,2.6-2,3.2c-1.4,0.6-2.8,0.4-3.9-0.7c-0.8-0.8-1.4-1.9-2.1-2.9c-2.2-3.2-4.2-6.6-6.7-9.5 c-11.1-13.1-25.5-20.8-41.8-25.4c-4.7-1.3-9.6-2.1-14.4-3.1C415,146.3,414.6,146.2,414.2,146.2z"/></g><g id="change1_16"><path d="M331.8,59.7c1.5-1.3,2.9-2.7,4.5-3.9c8.9-6.4,17.6-13.1,27.7-17.6c4.4-1.9,8.9-3.8,13.8-4.3c0.9-0.1,1.9-0.3,2.7,0 c0.7,0.2,1.7,0.9,1.8,1.5c0.1,0.7-0.6,1.8-1.2,2.1c-1.7,0.8-3.5,1.5-5.4,1.9c-13.9,3-26.4,9.4-38.4,16.8c-1.8,1.1-3.5,2.4-5.3,3.7 C331.9,59.8,331.9,59.7,331.8,59.7z"/></g><g id="change1_17"><path d="M442,236.6c0.5,0.4,1,0.6,1.4,1.1c5.2,5.6,9.6,11.8,12.2,19c0.6,1.7,0.8,3.6,0.8,5.4c0,0.8-0.9,2-1.6,2.3 c-0.7,0.3-2.1-0.2-2.5-0.7c-1.2-1.5-2.2-3.1-2.9-4.8c-1-2.4-1.4-5-2.3-7.4c-1.5-4.3-3.2-8.5-4.8-12.7c-0.2-0.6-0.4-1.1-0.6-1.7 C441.8,236.8,441.9,236.7,442,236.6z"/></g><g id="change1_18"><path d="M432.5,237.9c0.8,0.8,1.7,1.6,2.4,2.5c5.4,6.8,9.4,14.4,12.6,22.4c0.5,1.2,0.7,2.5,1,3.8c0.2,1.1,0.4,2.3-1,2.7 c-1.4,0.4-2-0.7-2.4-1.7c-2-4.9-3.8-9.9-5.9-14.8c-2-4.4-4.3-8.7-6.5-13.1c-0.2-0.5-0.4-1-0.7-1.5 C432.2,238.1,432.3,238,432.5,237.9z"/></g><g id="change1_19"><path d="M173.3,58.1c0.4,0.8,1,1.6,1.3,2.5c3.1,8.6,4.9,17.5,4.9,26.7c0,0.3,0.1,0.6-0.1,0.8c-0.5,0.6-1,1.2-1.5,1.8 c-0.6-0.5-1.4-0.9-1.6-1.5c-0.5-1.8-0.8-3.7-1-5.6c-0.9-8-1.7-15.9-2.5-23.9c0-0.2,0.1-0.4,0.1-0.6C173,58.3,173.2,58.2,173.3,58.1z"/></g><g id="change1_20"><path d="M331.1,253.2c-0.6,0.5-1.2,1.1-1.8,1.6c-8.8,7-16,15.4-21.5,25.2c-0.2,0.3-0.3,0.6-0.5,0.8c-0.3,0.2-0.8,0.6-0.9,0.5 c-0.3-0.2-0.7-0.7-0.6-1c0.3-1.2,0.6-2.3,1.1-3.4c4-8.8,10.5-15.6,18.4-21.1c1.3-0.9,2.8-1.7,4.2-2.6c0.4-0.3,1-0.4,1.4-0.5 C330.9,252.9,331,253.1,331.1,253.2z"/></g><g id="change1_21"><path d="M225.8,127.5c-0.1,0.4-0.1,0.8-0.2,1.2c-3,10.3-4.8,20.9-6.5,31.5c-0.4,2.2-0.8,4.4-1.3,6.5c-0.1,0.5-0.8,1-1.2,1.4 c-0.2-0.5-0.7-1.1-0.7-1.6c0.6-4.7,1.1-9.5,1.9-14.2c1.3-7.5,3-14.9,5.9-21.9c0.4-1.1,1-2,1.5-3.1 C225.5,127.4,225.7,127.5,225.8,127.5z"/></g><g id="change1_22"><path d="M310,156.6c-1.8,3.1-3.8,6.1-5.5,9.2c-4.3,7.8-8.5,15.6-12.8,23.4c-0.3,0.6-1.1,0.9-1.7,1.3c-0.1-0.8-0.5-1.7-0.3-2.3 c1.1-2.5,2.2-5.1,3.5-7.5c4.1-7.6,8.8-14.8,14.1-21.6c0.7-1,1.6-1.8,2.4-2.7C309.9,156.4,310,156.5,310,156.6z"/></g><g id="change1_23"><path d="M407.9,71.7c0.7-0.4,1.1-0.8,1.7-1.1c7-2.7,14-2.6,20.9-0.1c0.6,0.2,1,1.1,1.4,1.7c-0.7,0.4-1.3,1.2-2,1.2 c-1.7,0.1-3.3-0.2-5-0.3c-4.8-0.3-9.7-0.7-14.5-1c-0.6,0-1.3,0-1.9-0.1C408.4,72.1,408.3,72,407.9,71.7z"/></g><g id="change1_24"><path d="M302.9,175.8c-1.6,3.5-3.1,6.9-4.7,10.4c-2.1,4.7-4.3,9.3-6.4,14c-0.4,0.8-0.8,1.8-1.8,1.3c-0.5-0.3-0.9-1.4-0.8-2 c0.3-1.7,0.7-3.4,1.5-5c2.9-6.1,6.4-11.9,10.6-17.3c0.5-0.6,1-1.2,1.4-1.8C302.7,175.5,302.8,175.7,302.9,175.8z"/></g><g id="change1_25"><path d="M460.9,135.8c0.5,0.1,1.1,0.1,1.6,0.3c6,2.3,11.3,5.9,16,10.3c0.8,0.7,1.3,1.7,1.7,2.7c0.2,0.5-0.1,1.4-0.5,1.7 c-0.4,0.3-1.2,0.4-1.8,0.2c-0.7-0.3-1.4-0.8-2-1.4c-4.7-4-9.3-8.1-13.9-12.1c-0.5-0.4-0.9-0.8-1.3-1.2 C460.8,136.1,460.8,136,460.9,135.8z"/></g><g id="change1_26"><path d="M454.2,126.1c1.2,0,2.5-0.2,3.6,0c5.7,1.4,10.8,3.8,15.1,7.8c0.2,0.1,0.3,0.3,0.5,0.5c0.7,0.9,1.7,1.9,0.7,3 c-0.9,1.1-1.9,0.1-2.8-0.4c-5-3-9.9-6-14.9-9c-0.8-0.5-1.6-0.9-2.4-1.3C454.1,126.5,454.2,126.3,454.2,126.1z"/></g><g id="change1_27"><path d="M301.3,191.4c0,0.5,0.1,0.7,0,0.9c-2.1,5.5-4.1,11.1-6.3,16.5c-0.6,1.7-1.5,3.3-2.5,4.7c-0.4,0.6-1.4,0.7-2.1,1 c-0.3-0.7-0.8-1.5-0.7-2.1c0.2-1.4,0.7-2.8,1.3-4.2c2.4-5.6,5.4-10.7,9.1-15.6C300.4,192.3,300.8,192,301.3,191.4z"/></g><g id="change1_28"><path d="M417.9,78.8c1-0.3,2.1-0.7,3.1-0.9c4.9-0.6,9.8-0.6,14.6,0.8c1.3,0.4,2.6,0.9,3.6,1.7c0.5,0.4,0.9,1.6,0.7,2.2 c-0.1,0.5-1.2,0.9-1.9,1c-0.8,0.1-1.6-0.3-2.3-0.5c-5.2-1.9-10.5-2.7-16-3.4c-0.6-0.1-1.2-0.2-1.8-0.4 C418,79.1,417.9,78.9,417.9,78.8z"/></g><g id="change1_29"><path d="M272.9,142.7c-0.1,0.5,0,1.1-0.2,1.5c-1.9,5.3-3.7,10.6-5.7,15.9c-0.4,1.1-0.9,2.5-2.5,2c-1.6-0.5-1-2-0.7-3.1 c1.2-4.9,3.2-9.5,5.9-13.8c0.7-1.1,1.7-1.9,2.5-2.9C272.5,142.4,272.7,142.5,272.9,142.7z"/></g><g id="change1_30"><path d="M177.3,148.8c0.5,2.4,0.9,4.8,1.4,7.3c0.9,4.9,1.1,9.8,0.6,14.7c-0.1,0.9-0.2,2.1-1.4,1.9c-0.6-0.1-1.4-1.2-1.4-1.8 c-0.2-4.9-0.4-9.8-0.4-14.8c0-1.8,0.2-3.6,0.3-5.4c0.1-0.7,0.2-1.3,0.3-2C176.9,148.8,177.1,148.8,177.3,148.8z"/></g><g id="change1_31"><path d="M120.4,155.1c0.5,0.5,1.1,1,1.5,1.6c1.8,3.4,3.7,6.7,5.2,10.3c1.3,3.1,2,6.5,2.9,9.8c0.1,0.5,0.2,1.1,0.1,1.6 c-0.1,0.3-0.4,0.8-0.6,0.8c-0.3,0-0.8-0.2-1.1-0.5c-0.2-0.2-0.3-0.6-0.4-0.9c-2.6-7.2-5.2-14.5-7.8-21.7c-0.1-0.2-0.1-0.5-0.1-0.7 C120.2,155.2,120.3,155.2,120.4,155.1z"/></g><g id="change1_32"><path d="M185.1,161.2c0.2,0.5,0.4,1,0.5,1.6c1.1,6.7,1.6,13.4,0.8,20.2c-0.1,0.6-0.7,1.2-1.1,1.7c-0.6-0.5-1.6-0.9-1.6-1.4 c-0.3-2.8-0.6-5.7-0.5-8.5c0.2-4.2,0.8-8.3,1.2-12.4c0-0.4,0.2-0.7,0.3-1.1C184.8,161.3,185,161.3,185.1,161.2z"/></g><g id="change1_33"><path d="M337.3,207.7c-0.2,0.3-0.3,0.5-0.5,0.7c-4.9,5.2-9.7,10.4-14.6,15.5c-0.5,0.5-0.9,1.1-1.5,1.5c-0.4,0.3-1,0.2-1.6,0.3 c0-0.5-0.2-1.2,0-1.6c1.6-2.3,3.2-4.5,5-6.6c3.1-3.7,6.8-6.9,11-9.3c0.6-0.4,1.3-0.6,1.9-0.8C337.1,207.5,337.2,207.6,337.3,207.7z"/></g><g id="change1_34"><path d="M464.2,238.7c-0.3,0.4-0.7,1.3-1.1,1.3c-0.7,0-1.7-0.4-2-1c-1.8-3.4-3.5-6.9-5.3-10.4c-0.4-0.8-0.7-1.7-0.9-2.6 c-0.1-0.3,0-0.8,0.2-1c0.1-0.1,0.6,0,0.9,0.1C460.7,228.2,463.1,232.8,464.2,238.7z"/></g><g id="change1_35"><path d="M360.1,197.8c-1.6,0.9-3,1.8-4.5,2.7c-6.2,3.7-12,7.8-17.3,12.6c-1.7,1.5-3.5,2.9-5.3,4.2c-0.4,0.3-1.1,0.2-1.7,0.3 c0.2-0.5,0.2-1.2,0.5-1.5c2.1-2,4.2-3.9,6.4-5.8c6.2-5.1,13.1-9,20.4-12.2c0.3-0.1,0.7-0.3,1.1-0.4 C359.8,197.7,359.9,197.8,360.1,197.8z"/></g><g id="change1_36"><path d="M262.7,151c-0.1,0.4-0.1,0.8-0.2,1.2c-1.1,4.6-2.2,9.3-3.3,13.9c-0.4,1.7-0.9,3.5-1.5,5.1c-0.2,0.5-0.9,0.8-1.4,1.2 c-0.3-0.5-1-1.1-1-1.6c0.1-1.7,0.2-3.5,0.6-5.1c1-4.7,2.6-9.1,5.1-13.3c0.3-0.6,0.8-1.1,1.2-1.6C262.4,150.8,262.6,150.9,262.7,151z"/></g><g id="change1_37"><path d="M430.4,249.1c0.9,1.2,1.7,2.3,2.6,3.5c3.4,4.6,6.1,9.5,7.5,15c0.1,0.6-0.2,1.2-0.3,1.9c-0.6-0.3-1.2-0.5-1.7-0.8 c-0.2-0.1-0.3-0.4-0.5-0.7c-2.6-5.6-5.2-11.2-7.8-16.8c-0.3-0.5-0.3-1.2-0.4-1.8C430,249.3,430.2,249.2,430.4,249.1z"/></g><g id="change1_38"><path d="M446.9,118.9c0.8-0.1,1.6-0.3,2.4-0.2c5.9,0.6,11.5,2.4,16.8,5.3c0.2,0.1,0.4,0.2,0.5,0.3c0.4,0.7,0.8,1.4,1.2,2.1 c-0.7,0.1-1.6,0.5-2.2,0.3c-4.1-1.6-8.2-3.4-12.3-5c-2.1-0.8-4.2-1.5-6.3-2.3C446.9,119.2,446.9,119,446.9,118.9z"/></g><g id="change1_39"><path d="M22.3,167.1c0.2,0.1,0.8,0.2,1,0.6c0.1,0.2-0.1,0.8-0.3,1.1c-2.5,3.3-5.1,6.4-8.6,8.8c-0.4,0.3-0.9,0.7-1.4,0.8 c-1,0.2-1.6-0.3-1.5-1.3c0.3-3.1,7-9.6,10.2-9.8C21.8,167.2,21.9,167.1,22.3,167.1z"/></g><g id="change1_40"><path d="M224.1,150c0.1,0.3,0.2,0.6,0.1,0.9c-0.5,6.9-1,13.7-1.5,20.6c-0.1,0.9,0.1,2.5-1.3,2.4c-1.4-0.1-1-1.6-1-2.5 c-0.2-6.9,1.3-13.6,2.9-20.2c0.1-0.4,0.4-0.8,0.6-1.2C223.9,149.9,224,149.9,224.1,150z"/></g><g id="change1_41"><path d="M129.7,161.1c0.9,1.3,1.8,2.6,2.6,4c2.8,5.4,3.9,11.2,4.4,17.2c0,0.5-0.5,1-0.7,1.4c-0.4-0.4-1-0.8-1.2-1.3 c-1.3-5-2.5-10.1-3.8-15.1c-0.5-2-1.2-4-1.8-6C129.3,161.3,129.5,161.2,129.7,161.1z"/></g><g id="change1_42"><path d="M139.1,167.9c0.6,0.9,1.3,1.7,1.8,2.6c2.6,4.7,2.7,9.8,2.7,15c0,0.5-0.7,0.9-1,1.4c-0.5-0.5-1.2-1-1.3-1.6 c-0.8-4.4-1.5-8.7-2.2-13.1c-0.2-1.3-0.4-2.7-0.6-4C138.6,168,138.9,168,139.1,167.9z"/></g><g id="change1_43"><path d="M70.5,181.4c4.3,6.5,7.9,13.3,9.2,21.1c0.1,0.5-0.4,1.1-0.6,1.6c-0.5-0.4-1.1-0.6-1.4-1.1c-0.7-1.4-1.2-2.8-1.7-4.2 c-1.9-5.3-3.7-10.5-5.5-15.8c-0.2-0.5-0.3-1-0.5-1.5C70.2,181.5,70.4,181.4,70.5,181.4z"/></g><g id="change1_44"><path d="M375.4,275.4c0.4,0.7,1,1.3,1.3,2.1c2.9,6.1,2.6,12.4,0.6,18.6c-0.1,0.4-0.7,0.7-1.1,1c-0.2-0.4-0.7-0.9-0.7-1.3 c0-1.9,0.1-3.9,0.3-5.8c0.5-4.5,0.3-9-0.7-13.4c-0.1-0.3-0.1-0.7-0.1-1C375.1,275.5,375.3,275.5,375.4,275.4z"/></g><g id="change1_45"><path d="M396.8,68.9c2.2-1,4.4-2.4,6.7-3c4.4-1.1,8.9-1.8,13.3-2.6c0.6-0.1,1.3-0.1,1.9,0.1c0.6,0.2,1,0.7,1.5,1.1 c-0.5,0.4-1,1-1.5,1.1c-1.4,0.3-2.9,0.6-4.3,0.6c-5.8,0.2-11.4,1.2-16.9,3c-0.2,0.1-0.4,0.1-0.6,0.1 C396.9,69.2,396.8,69.1,396.8,68.9z"/></g><g id="change1_46"><path d="M371.7,287.3c0.2,0.8,0.6,1.6,0.7,2.4c0.5,5.3-0.9,10.1-3.7,14.5c-0.3,0.4-0.6,0.8-1,1.1c-0.4,0.2-0.9,0.4-1.3,0.2 c-0.2-0.1-0.5-0.8-0.4-1.1c0.3-1.3,0.6-2.6,1.1-3.7c1.9-4.1,3.4-8.3,3.8-12.9c0-0.1,0.2-0.3,0.2-0.4 C371.4,287.4,371.6,287.3,371.7,287.3z"/></g><g id="change1_47"><path d="M449.9,233.6c0.8,0.6,1.4,0.9,1.8,1.4c3.6,4,6.1,8.7,7.9,13.7c0.2,0.5-0.2,1.1-0.3,1.7c-0.5-0.2-1.2-0.3-1.5-0.7 c-3.4-4.7-5.9-9.9-8.1-15.2C449.8,234.4,449.9,234.2,449.9,233.6z"/></g><g id="change1_48"><path d="M183.1,67.7c0,1,0.1,2.1,0,3.1c-0.1,0.6-0.6,1.1-0.9,1.7c-0.4-0.5-1.2-1-1.3-1.6c-0.6-2.7-1-5.4-1.4-8.2 c-0.3-1.8-0.6-3.5-0.7-5.3c0-0.5,0.4-1,0.6-1.5c0.5,0.3,1.2,0.4,1.4,0.8c1.7,2.5,2.1,5.4,2.3,8.4C183.1,65.9,183,66.8,183.1,67.7 C183.1,67.7,183.1,67.7,183.1,67.7z"/></g><g id="change1_49"><path d="M315.8,277.7c-0.3-0.9-0.7-1.5-0.5-1.9c1.8-4.9,4.2-9.4,8.9-12.2c0.5-0.3,1.3-0.1,1.9-0.2c-0.2,0.6-0.3,1.2-0.7,1.7 c-2.6,3.5-5.2,7.1-7.8,10.6C317.2,276.3,316.6,276.8,315.8,277.7z"/></g><g id="change1_50"><path d="M105.8,103.6c-1.7-0.7-3-1.2-4.4-1.7c-3.7-1.3-7.4-2.5-11-3.9c-0.6-0.2-1-1-1.5-1.5c0.6-0.3,1.3-0.8,1.9-0.8 c5.5,0.5,10.1,2.8,14.3,6.4c0.2,0.2,0.4,0.5,0.6,0.8C105.7,102.9,105.7,103.1,105.8,103.6z"/></g><g id="change1_51"><path d="M143.7,153.1c0.6,1.1,1.3,2.2,1.7,3.3c2,4.9,2.7,10.1,2.7,15.4c0,0.5-0.5,1-0.8,1.5c-0.3-0.5-0.9-0.9-1-1.4 c-0.9-5.2-1.8-10.3-2.7-15.5c-0.2-1-0.3-2-0.5-3.1C143.4,153.2,143.5,153.2,143.7,153.1z"/></g><g id="change1_52"><path d="M28,160.6c-0.3,0.1-0.6,0.3-1,0.4c-3.6,1.4-7.2,2.7-10.9,4.1c-0.2,0.1-0.3,0.2-0.4,0.2c-0.8,0.1-1.7,0.1-2.5,0.2 c0.4-0.7,0.6-1.6,1.1-2.2c2.9-3.3,6.6-4.6,10.9-4.1c1,0.1,1.9,0.5,2.8,0.8C28,160.2,28,160.4,28,160.6z"/></g><g id="change1_53"><path d="M230.3,163.4c0.2,0.5,0.4,0.6,0.4,0.8c-0.1,5.6-0.3,11.2-0.4,16.8c0,0.3-0.1,0.7-0.2,0.9c-0.3,0.4-0.7,0.7-1.1,1 c-0.3-0.4-0.9-0.8-0.9-1.3c-0.1-1.9-0.2-3.9,0-5.8c0.4-3.7,1.1-7.4,1.7-11.1C229.8,164.4,230,164.1,230.3,163.4z"/></g><g id="change1_54"><path d="M252.6,157.8c-0.3,1.6-0.6,3.2-0.9,4.8c-1,5.4-1.9,10.9-2.9,16.3c0,0.3-0.1,0.6-0.2,0.8c-0.2,0.3-0.6,0.5-0.8,0.8 c-0.2-0.4-0.6-0.8-0.6-1.2c0.2-2.2,0.2-4.5,0.7-6.6c0.9-4.3,2-8.6,3.1-12.9c0.2-0.8,0.7-1.5,1-2.2 C252.1,157.6,252.4,157.7,252.6,157.8z"/></g><g id="change1_55"><path d="M94,106.1c-2.8-0.6-5.3-1.1-7.8-1.6c-1.5-0.3-3-0.5-4.5-0.9c-0.5-0.1-0.9-0.6-1.4-0.8c0.4-0.5,0.8-1.3,1.3-1.4 c1.6-0.2,3.2-0.3,4.8-0.1c2.9,0.3,5.4,1.5,7.7,3.3c0.3,0.2,0.4,0.8,0.5,1.2C94.4,105.9,94.1,106,94,106.1z"/></g><g id="change1_56"><path d="M350.5,36.1c0.3-0.4,0.4-0.7,0.7-0.9c3.7-2.8,7.7-5.1,12.3-5.9c0.5-0.1,1.1-0.2,1.6-0.1c0.5,0.1,1.1,0.5,1.2,0.9 c0.1,0.4-0.3,1-0.6,1.3c-0.3,0.3-0.7,0.5-1.1,0.6C359.9,33.4,355.3,34.7,350.5,36.1z"/></g><g id="change1_57"><path d="M171.5,139.2c0.5,2.8,1.3,5.6,1.6,8.4c0.5,4.5,0.6,9.1,0.9,13.6c0,0.5-0.4,1-0.6,1.5c-0.3-0.5-0.7-0.9-0.8-1.4 c-0.6-7-1.2-14-1.7-21c0-0.3,0.1-0.6,0.1-0.9C171.2,139.2,171.4,139.2,171.5,139.2z"/></g><g id="change1_58"><path d="M377.6,270c0.4,0.4,0.9,0.8,1.2,1.3c2.9,4.7,4.5,9.8,5.4,15.2c0,0.2,0.1,0.5,0,0.6c-0.2,0.5-0.5,0.9-0.8,1.4 c-0.4-0.3-0.9-0.6-1.1-1c-0.4-0.9-0.6-2-0.9-2.9c-1.4-4.6-2.8-9.2-4.1-13.8c0-0.1,0-0.3,0-0.5C377.3,270.2,377.5,270.1,377.6,270z"/></g><g id="change1_59"><path d="M354.8,205c1.1-0.8,1.9-1.4,2.8-1.9c4.6-2.6,9.7-3.7,14.9-4.3c0.6-0.1,1.8,0.4,1.9,0.9c0.3,1.2-0.9,1.3-1.7,1.4 c-2.2,0.3-4.4,0.4-6.6,0.9C362.4,202.8,358.9,203.9,354.8,205z"/></g><g id="change1_60"><path d="M17,187.3c0.1-2.6,0.4-4.8,2.5-6c0.7-0.4,1.8-0.6,2.5-0.3c0.4,0.2,0.6,1.6,0.4,2.3c-0.6,2-1.5,3.9-2.3,5.8 c-0.2,0.4-0.8,0.8-1.2,0.8c-0.4,0-1-0.4-1.2-0.8C17.2,188.5,17.1,187.6,17,187.3z"/></g><g id="change1_61"><path d="M151.8,158c-0.1,0.3-0.1,0.8-0.2,1.2c-0.1,0.3-0.4,0.6-0.7,0.6c-0.2,0-0.5-0.3-0.7-0.5c-0.2-0.2-0.2-0.5-0.3-0.8 c-0.9-3.7-1.8-7.4-2.7-11.2c-0.1-0.5,0.2-1.2,0.3-1.7c0.5,0.3,1.3,0.5,1.5,1c0.9,2.8,1.7,5.6,2.5,8.5 C151.7,155.9,151.6,156.9,151.8,158z"/></g><g id="change1_62"><path d="M166.9,59.3c0.6,0.9,1.2,1.7,1.7,2.7c1.9,3.7,2.5,7.7,3,11.7c0.1,0.4-0.3,0.9-0.5,1.4c-0.4-0.3-1-0.5-1.1-0.9 c-1.3-4.6-2.5-9.3-3.7-13.9c-0.1-0.2,0.1-0.5,0.2-0.7C166.6,59.5,166.8,59.4,166.9,59.3z"/></g><g id="change1_63"><path d="M433.4,267.5c-0.1,0.2-0.3,0.7-0.6,0.8c-0.3,0.1-0.9-0.2-1.1-0.4c-0.7-1.1-1.4-2.3-1.9-3.6c-1.1-2.5-2.2-4.9-3.3-7.4 c-0.1-0.3,0-0.8,0-1.2c0.3,0.1,0.8,0,1,0.2C430.4,259.2,432.5,262.9,433.4,267.5z"/></g><g id="change1_64"><path d="M329.2,268.8c-0.5,1.4-1,2.8-1.5,4c-0.6,1.3-1.2,2.7-1.9,4c-0.2,0.4-0.8,0.9-1.1,0.9c-0.4-0.1-0.9-0.6-1-1.1 c-0.2-0.7-0.1-1.5,0-2.3c0.4-2.4,1.5-4.5,3.2-6.3c0.3-0.3,1.1-0.5,1.6-0.4C328.8,267.7,329,268.4,329.2,268.8z"/></g><g id="change1_65"><path d="M37.4,155.5c-2.9,0-5.5-0.2-8,0c-2.7,0.2-5.3,0.8-8,1.2c-0.4,0.1-0.8-0.2-1.3-0.4c0.2-0.3,0.3-0.9,0.6-1 c5.2-2.3,10.5-2.4,15.9-0.6C36.9,154.8,37,155,37.4,155.5z"/></g><g id="change1_66"><path d="M362.7,298.3c-0.6,1.1-1,2.3-1.7,3.1c-1.6,1.7-3.5,3.2-5.3,4.7c-0.3,0.3-1.1,0-1.6,0c0.1-0.5,0.1-1.1,0.4-1.4 c2.1-2.4,4.3-4.7,6.6-6.9c0.3-0.3,0.8-0.4,1.3-0.4C362.4,297.3,362.5,297.9,362.7,298.3z"/></g><g id="change1_67"><path d="M347.5,29.6c0-0.1,0-0.3,0.1-0.4c2.9-2.6,5.9-5,9.9-5.4c0.7-0.1,1.4,0.4,2.1,0.7c-0.4,0.6-0.7,1.4-1.2,1.7 c-1.1,0.6-2.3,1.1-3.6,1.4C352.4,28.3,349.9,28.9,347.5,29.6z"/></g><g id="change1_68"><path d="M69,187.9c0.4,0.6,0.7,1.2,1.1,1.7c2.5,3.2,3.5,6.9,4.4,10.7c0.1,0.4-0.3,0.8-0.4,1.2c-0.4-0.2-1-0.4-1.1-0.7 c-0.8-1.8-1.5-3.6-2.3-5.4c-0.7-1.8-1.5-3.6-2.2-5.4c-0.2-0.5-0.3-1.1-0.4-1.6C68.4,188.3,68.7,188.1,69,187.9z"/></g><g id="change1_69"><path d="M341.4,23.1c1.1-2.3,7.8-5.3,9.9-4.4c0.3,0.1,0.7,0.5,0.8,0.9c0.1,0.2-0.2,0.8-0.5,0.9c-3.2,1-6.5,1.9-9.7,2.9 C341.8,23.4,341.7,23.2,341.4,23.1z"/></g><g id="change1_70"><path d="M79,189.2c0.5,0.6,1.1,1.1,1.5,1.8c1.9,2.7,2.7,5.8,3.1,8.9c0.1,0.4-0.3,0.8-0.4,1.3c-0.4-0.2-1.1-0.3-1.3-0.7 c-1.8-3.5-2.6-7.2-3.4-11C78.6,189.4,78.8,189.3,79,189.2z"/></g><g id="change1_71"><path d="M244.6,168.6c-0.2,1.9-0.4,3.8-0.7,5.7c-0.4,3.1-0.9,6.1-1.4,9.1c-0.1,0.5-0.6,0.9-0.9,1.4c-0.2-0.5-0.6-1-0.5-1.5 c0.7-4.5,1.5-8.9,2.3-13.4c0.1-0.5,0.5-1,0.7-1.5C244.2,168.5,244.4,168.6,244.6,168.6z"/></g><g id="change1_72"><path d="M190.1,168.6c0.1-1.1,0.1-2.2,0.3-3.1c0.1-0.4,0.6-0.9,0.9-0.9c0.3,0,1,0.4,1.1,0.8c0.3,1.2,0.6,2.4,0.7,3.6 c0.1,1.6-0.1,3.1-0.3,4.7c-0.1,0.4-0.7,0.8-1.1,1.2c-0.4-0.4-1-0.8-1.1-1.2C190.4,171.8,190.3,170.1,190.1,168.6z"/></g><g id="change1_73"><path d="M100.3,93c3.2-1.2,12.5,4.1,15.4,8.1C110.7,98.5,105.7,95.8,100.3,93z"/></g><g id="change1_74"><path d="M186.5,51.7c0.8,0.7,1.3,1,1.6,1.5c1.6,2.5,1.9,5.3,1.8,8.1c0,0.4-0.6,0.8-0.9,1.2c-0.3-0.3-0.9-0.5-1-0.9 c-0.6-2.7-1.2-5.5-1.8-8.2C186.3,53,186.4,52.6,186.5,51.7z"/></g><g id="change1_75"><path d="M67.9,200.5c-1.4-3.5-2.9-7-4.3-10.6c2.5-0.1,5.8,7.1,4.9,10.3C68.3,200.3,68.1,200.4,67.9,200.5z"/></g><g id="change1_76"><path d="M160.4,71.1c-0.3,0.4-0.7,1.2-1,1.2c-0.5-0.1-1.3-0.5-1.4-1c-0.5-1.8-0.9-3.7-1.1-5.5c-0.1-0.4,0.5-0.9,0.8-1.4 c0.5,0.3,1.2,0.5,1.3,0.9C159.6,67.2,160,69,160.4,71.1z"/></g><g id="change1_77"><path d="M331.9,276c0.4-1.2,0.6-2.5,1.2-3.6c0.2-0.4,1-0.5,1.6-0.8c0.2,0.5,0.7,1.1,0.6,1.6c-0.2,1.5-0.5,3-0.9,4.4 c-0.1,0.5-0.8,0.9-1.2,1.3c-0.4-0.5-0.8-1-1.1-1.6c-0.2-0.4,0-0.9,0-1.3C332,276,332,276,331.9,276z"/></g><g id="change1_78"><path d="M84.3,186.6c0.6,0.7,1.5,1.3,1.9,2.2c0.6,1.2,1,2.6,1.4,4c0.1,0.3-0.1,0.8-0.4,1.1c-0.1,0.1-0.8,0-1-0.2 c-1.3-2-2.3-4.2-2.4-6.6C83.9,186.8,84.1,186.7,84.3,186.6z"/></g></svg>