<?xml version="1.0" encoding="UTF-8" standalone="no"?><svg xmlns="http://www.w3.org/2000/svg" xmlns:xlink="http://www.w3.org/1999/xlink" fill="#646044" height="604.6" preserveAspectRatio="xMidYMid meet" version="1" viewBox="-4.3 -0.8 755.9 604.6" width="755.9" zoomAndPan="magnify"><g id="change1_1"><path d="M737.9,206.2c10-8.9,4.6-20.9-8.3-20.6c-5.1,0.2-10.5,2.9-15.3,0c-6.2-5.1-13.5-8.6-20.8-11.8c-3.6-1.6-7.8-1.3-11-3.8 c-2.4-2-3.9-4.7-6.1-6.9c-3.5-3.6-8-6-11.9-9.2c-6.2-5.3-18.8-11-21.6,0.6c-1.9,5.7,1.3,11.1,2.2,16.5 c-9.1,16.3-32.1,13.4-44.5,25.8c-5.2,4.6-13,4.9-18.7,1c-7.1-4.3-14.1-8.6-21.7-11.9c-12-5.5-28.9-16.9-36.1-28 c-4.4-10-12.4-29-9-39.4c0,0,0,0,0,0c0.1-0.2,0.2-0.4,0.3-0.6c0.1-0.2,0.2-0.4,0.4-0.6c-0.1,0.1-0.1,0.2-0.2,0.3 c0.5-0.9,1.5-1.5,2.5-1c3.7,2,7.8,3.7,12.1,3c6-1.3,12.7,0.8,18-2.7c8.3-5.9,14.8-15.2,15.4-25.6c-2-8.6,8.1-15,4.9-23.6 c-1.3-3-6.4-6.6-10.3-6.3c-1.5-0.5-3.4-0.5-5.7,0.7c-5.1,2.6-7.9,7.8-12.4,11.2c-6.9,6.4-16.6,6.2-24.6,10.3 c-6.5,4.6-11,8.6-19.2,4.6c-8.4-2.6-8.1-12.4-9-19.9c-0.2-4.6,1.7-9.3,5.9-11.5c1.5-1,3.3,0.1,4.9,0.2c3.7,0.8,7.7,0.7,10.7-1.7 c16.6-14.6,9.1-8.4,28.8-14.9c4.3-1.8,8.1-4.3,11.8-6.9c5.2-2.7,10.9-4.7,15.7-8.1c5.2-4.6,14.8-12.6,13-20.2 c-1.5-5.1-7.5-6-11.9-4.5c-4.3,1-7.7,4.5-12.2,5c-12.9-4.9-20.4-1.4-28.9,8.9c-8.3,9.9-11.4,12.2-24.5,13.6c-3-1.6-6.5-1.3-9.6-0.5 c-6.2,1.7-10.5,8.3-17.8,6.2c2-5.6-0.2-9.8-5.7-11.5c-7.5-0.7-14.7,3.2-21.6,5.7c-7.9,2.5-10.9,10.9-18,14.5 c-5.3,3.2-11.9,3.7-17.9,3.4c-10.4-4.8-15.9-3.8-25.7,1.2c-14,10.3-13.2,4.5-25.4,10.3c-6.2,4.2-10,11.7-16.3,16 c-6,3.7-12.7,6.4-18.4,10.6c-8.6,7.9-10.3-0.1-19.3,0.3c-3.8,0.2-6,3.3-8.8,5.3c-4.7,1.2-10.5,0.9-14.1,4.7c-2.9,3.4-0.5,8.2-2.5,12 c-5.1,11.4-12.7,2-22,7.5c-6.2,2.8-11.4,7.4-17,11.1c-2.6,1.9-6,2.9-8,5.5c-1.2,1.6-1,3.6-1.1,5.4c-0.5,2-1.1,4-2.3,5.7 c-1.6,2.6-5.1,1.7-7.6,2.9c-10.8,4.5-16.2,10.7-17.4,22.4c-2.8,7.7-15.4,5-21.9,14.3c-5.3,6.2-9.3,13.4-14.1,20.1 c-6.4,8-14.5,14.7-22.8,20.8c-6.6,3.8-14.9,1.1-21.6,4.4c-3.7,1.4-6.4,4.2-9.2,6.9c-3,2.4-6.7,3.5-10,5.4c-2.8,1.2-5.1,3.3-7.7,4.9 c-4.4,0.9-8.5,3.1-10.9,7c-3.1,4.9-4.2,11.2-9.4,14.5c-6.7,6.5-15.4,10.2-23.1,15.3c-3.6,2.4-6.4,5.7-10.1,7.9 c-5.1,2.6-10.2,5.2-15.7,6.8c-6.4,1.5-12.5,4.6-16.7,9.7c-6.1,10.4-15.2,23.9-9,36.1c3.5,6.7,11.4,8.6,16.5,13.6 c0.7,3.3-1.8,5.9-2.2,9c-0.2,4.9,4.4,7.7,8.2,9.6c1.5,1.3,1.3,4,2.7,5.6c1.9,2.8,5.5,3.9,8.7,3.4c3.5-0.4,6.6-2.9,8.5-5.8 c1.6-2.1,2.2-5.2,4.8-6.3c1.2,12.3,13.9,7.6,20.3,2.3c4.8,0.4,8.6,5.1,12,8c0.8,1.3,0.7,2.9,1.1,4.3c-3.9,2.6-7.8,5.7-5.7,11.2 c1.5,4.2,5.9,6.3,8.2,9.7c-2.1,7.7,2.8,28.7,13.9,21c3.2,9.1,16.2,12.8,23.8,7.2c5.7-4.8,4.3-12.9,5.5-19.5 c0.6-11.2,15-18.5,11.5-30.3c-1.9-4.1-4.7-5.4,1.2-6.8c5.6-1.3,11.5-1.8,17.1-3.2c6.6-0.9,10.3-6,14.3-10.7 c3.4-4.3,5.7-3.8,10.6-3.4c6.5,0.5,13.3-4.3,13.2-11.2c2.2-6.4,11.1-1.3,14.8,1.4c5.3,4.2,11.6,6.7,17.2,10.4 c3.5,3.2,6.3,7.4,11.2,8.7c10.7,5,24.1,10.4,24,24.3c0.1,3.9-3.1,6.5-5.4,9.2c-6.9,7.5-8.2,18.7-5.6,28.3c1.9,7.4,8.7,13.1,8,21.2 c0.1,11.4-3.6,25.3,6.4,33.7c8.3,6.1,12.5,6.5,14.9,17.6c4.1,9.4,25.4,15.5,35.1,15.4c3.1-0.2,6-1,9.1-1c3.4-0.1,6.6,1.3,10.1,0.8 c4.6-1,9.1-2.3,13.9-1.4c3.7,0.3,7.5,0.3,11.1,1.2c3.4,0.8,6.3,3.1,9.6,4.1c8.6,2.9,17-1.6,25.7-0.3c7.7,2.1,15.6,6.5,19.6,13.6 c5.8,7.7,0.9,19.2,8.8,25.6c4.5,4.6,11.1,1.6,16.1,4c2.4,3.3,0.9,8.2,3.3,11.7c4.1,8.3,8.6,17.2,16.5,22.4 c8.7,4.2,18.5-2.7,24.8-8.6c5.7-6.1,12-11.7,18-17.6c3.1-3.2,6-6.6,9.8-8.8c3.9-1.8,7.7-3.9,10.9-6.9c11.4-9.6,17.3,1.3,26.5-8.1 c3-3,5.7-6.4,9.4-8.6c2.3-1.3,4.9-2.1,6.8-3.9c2.3-2.5,3.1-6,5.3-8.7c6.5-6.2,14.5-11.4,20-18.6c5.9-10,7.5-21.9,14.3-31.5 c1.9-2.3,5.1-3.3,6.6-5.9c3.5-4.6,3.2-10.2,3.3-15.6c1.5-8.6,2.7-17.2,2.9-26c4-18.5,15.6-37.1,28.4-50.9 c8.2-7.5,18.2-12.7,26.7-19.9c2.7-2.4,5.4-5,6.9-8.5c1.2-3.1,2.8-6.2,5.6-8.3c4.7-3.1,11.1-3.6,15.8-7c6.5-5.3,2-15.5-5.4-17.1 c-2.2-0.8-5-0.1-6.9-1.7c-2.2-9.7,5-18.1,8.8-26.4c3-4.7,10.5-1.3,14.7-4c5.1-4,8.7-9.4,12-14.7c4.7-3.6,7.8-8.6,8.2-14.6 c1.9-8.5-2.9-17.5-0.5-25.7c5.3-2.4,11.8-3.6,14.6-9.4C751.6,215.5,744.9,207.8,737.9,206.2z M736.7,222.2 c-22.1,3.9-5.8,25.9-12.2,39.7c-1.5,2.4-4,3.8-5.7,6c-2.6,4.5-5.5,8.7-9.4,12.2c-6,0.4-13.6,0.3-17.1,6.2c-3.4,6.6-7.4,13-9.7,20 c-2.6,9-1.1,20.4,10.6,20.3c2.3-0.2,6.3,3,2.8,4.2c-12.6,4-18.3,6.8-23.4,19.5c-7.3,8.1-18,13.4-26.6,20.4 c-16.1,14.1-27.2,33.9-33.9,54.1c-1.6,6.1-1.1,12.5-1.9,18.8c-1.3,7-2.2,14-2.4,21.1c-0.7,4-4.4,5.3-7,7.9 c-7.7,9.5-9.6,22-15.2,32.6c-3.8,5-9.3,8.6-13.7,13.1c-2.4,1.6-4.7,3.3-6.4,5.6c-2.7,3.6-3.6,8.4-8.4,9.7c-5,2.5-8.7,6.9-12.6,10.8 c-1.1,1.4-2.8,1.7-4.5,1.6c-4.2-1.1-8.5-1-12.5,0.8c-4.1,1.6-7.8,4.2-11.2,7c-2.9,2.2-6.5,3.2-9.4,5.4c-9.9,8.5-18.9,18.1-28.3,27.3 c-3.8,3.1-8.7,7-13.8,6.5c-6.7-4.6-10.2-12.4-13.8-19.5c-1.9-8.8-1.6-15.7-12.9-16.8c-16.1,1.9-7.8-11.5-13.5-20.9 c-4.4-10.8-14.9-17.6-25.7-20.9c-6.9-1.6-13.6,0.2-20.4,0.9c-5.8,0.6-10.2-3.5-15.6-4.8c-6.5-1.5-13.2-1.6-19.8-1.8 c-4.8,0.7-9.3,2.6-14.2,1.1c-5.7-0.9-11.3,1.6-17,0.6c-7.2-1.6-14.5-3.8-20.8-7.8c-4.4-3.5-3.1-10.5-7.6-14.3 c-3.1-3.4-7.3-5.5-11.1-8.2c-9.8-8.8-1.7-23.6-4.9-34.8c-1.1-5.3-4.5-9.6-6.8-14.3c-2.4-6.2-2.4-13.5,0.4-19.6 c3.4-5.6,9.7-9.5,10-16.6c0.8-10.9-6-21.6-15.5-26.6c-5.5-2.9-11.4-5.4-16.9-8.3c-1.3-1.4-2.5-2.9-3.9-4.2 c-3.8-3.7-8.8-5.6-13.3-8.2c-7.6-4.9-15.6-12.1-25.4-9.4c-4.8,1.2-8.1,5.9-8.2,10.8c-4.4,8.7-11.6-6.8-26.7,14.7 c-6.8,4.6-16,3.4-23.7,6c-9.9,2.9-10.5,9.8-5.4,17.3c-1.3,8.5-10,14.2-11.4,22.9c-1.6,4.1,0,18-4.8,18.4c-4,0.4-8.5-0.7-9.9-5 c-1.4-6.4-6.5-9-11.4-3.8c-5.2-9.1,1.6-15.2-5.4-21.2c-1.8-1.7-3.8-3.2-5.1-5.2c2.1-1.7,5.6-2.7,6.3-5.7c0.2-0.8,0.1-1.6-0.3-2.3 c0.5-1.9-0.4-4.1-0.7-6.1c-1.9-6.1-14.2-15.6-20.7-14.8c-4.4,0.5-7.1,4.9-11.6,5.5c-1-10.3-10.3-10.1-16.1-3.5 c-1.9,2.4-2.8,5.7-5.4,7.6l0,0c-0.6,0.3-1.4,0.6-2.1,0.4c-1.6-6.2-4.1-7.3-9.3-10.4C35.5,341,2.4,347.7,8.7,327.1 c10.5-24.5,9.5-18.9,31.7-28.2c6.1-2.4,11.5-6.2,16.3-10.7c6.3-4.7,13.7-7.7,20-12.5c4.3-3.6,9.3-6.8,11.9-12 c2.1-3.6,3-8.4,6.6-10.9c3.2-1.4,6.6-1.8,9.2-4.4c3.4-2.5,7.4-4,11.1-5.8c4.8-2.2,7.5-7.2,12.6-9c9.5-2,18.3-0.3,26.2-7.8 c8-6.5,16.2-13.2,22.1-21.7c4.5-6.4,8.3-13.3,13.6-19.1c5.6-5.2,14.9-4,19.4-10.7c2.6-3.3,3.7-7.4,3.8-11.5 c2.2-7.3,10.4-10.7,17.2-11.9c5.9-2.4,8.9-9.6,9.2-15.6c8.4-4.2,15-11.6,23.9-14.8c3.9-1.1,8,1.1,12,0c8.8-2.4,14-12,13.1-20.7 c4-1.7,8.6-1,12.4-3.3c6.8-6.8,6.5-2.5,14.1-0.7c8.6,1.7,14.5-6.5,21.7-9.8c10.5-4.1,18.3-12.2,25.3-20.7c5-3.7,11.6-2,16.8-5.1 c6.9-3.4,13.4-10.1,21.7-9.1c12.3,6,27.8,3.2,37.9-5.9c3-2.8,5-6.6,8.7-8.6c6-2.6,12.3-5.5,18.8-6.2c0,0,0,0,0,0 c-3.9,12,10.1,13.8,18.3,10.2c3.4-1.1,5.5-4.1,8.8-5.1c2.9-1.2,5.2,0.9,8.1,0.7c10.3-0.9,20-3.6,26.5-12.3 c5.3-5.2,10.2-14.2,18.8-12.2c2.8,1,5.6,2.4,8.7,2c5.5-0.2,9.6-4.7,14.9-5.5c-4.4,8.1-12.3,13.1-20.6,16.4 c-7.3,3.4-13.3,9.1-21.5,10.5c-13.5,1.7-15.3,7.6-25,14.4c-3.7,0.3-7.3-1.9-11-0.8c-5.4,1.9-10,6.5-11.6,12 c-2.3,9.8-0.7,22.2,5.5,30.4c4.2,4.1,10.4,6,16.1,6.8c6.7,0.6,12-3.3,17.1-7.1c4.8-2.7,10.3-2.9,15.4-5c5.2-2.1,10-5.3,14-9.2 c2.4-2.4,4.4-5.4,7.4-7.2c1.1,0.3,2,0.3,2.7,0.1c0.9,0.3,1.8,0.6,2.5,1.3c-0.3,4.8-4.6,8.3-5.4,13c0,6.9-0.4,13.8-4.9,19.5 c-5,6.2-7.6,8.3-15.8,7.7c-7.2,0.8-8.6,1-15.2-2.3c-10.8-2.9-14.9,10.4-13.6,18.8c0.5,8.6,4.3,16.6,6.7,24.8 c3.3,12.1,12.6,20.7,22.4,27.8c9.5,8,20.9,12.6,31.8,18.3c9.7,6,21.1,14.1,32.8,8.2c5.4-2.5,9.2-7.4,14.7-9.5 c13.5-4.9,30.3-8.4,37.4-22.2c3.5-6.4-3.7-12.8-1.1-19.2c7.2,2.2,12.9,8.1,19,12.4c6.6,8.6,10,11.1,20.7,13.4 c4.9,2.4,10,4.5,14.5,7.5c3.3,2.9,7,5.5,11.5,6c6,1.9,13.7-4.1,18.6,1.1c-0.8,4.9-7.1,6.5-8.3,11.4c-1.3,7.6,8.9,4.9,12.5,8.8 C742.7,218.4,739.4,221.1,736.7,222.2z"/></g></svg>