<?xml version="1.0" encoding="UTF-8" standalone="no"?><svg xmlns="http://www.w3.org/2000/svg" xmlns:xlink="http://www.w3.org/1999/xlink" fill="#646044" height="431.6" preserveAspectRatio="xMidYMid meet" version="1" viewBox="64.7 34.7 368.9 431.6" width="368.9" zoomAndPan="magnify"><g id="change1_1"><path d="M126.47,300.07c-6.37,7.3-12.37,14.44-18.7,21.29c-3.8,4.12-3.52,8.46-0.58,12.24c5.02,6.45,10.76,12.29,18.75,15.26 c2.17,0.81,3.94,0.83,6.1-0.36c8.54-4.69,15.95-10.78,23.07-17.36c27.16-25.1,54.42-50.08,81.64-75.11 c4.26-3.92,8.5-7.88,13.21-12.25c-17.22-5.95-29.08-17.34-37.84-32.02c-2.75,0.88-3.85,2.85-5.32,4.38 c-16.26,16.96-32.51,33.92-48.77,50.87c-0.92,0.96-1.98,1.78-2.96,2.68c-1.98,1.82-4.29,3.24-6.59,1.05 c-2.5-2.39-1.16-4.91,0.84-6.99c9.59-9.96,19.13-19.97,28.85-29.8c8.91-9,17.61-18.21,26.1-27.6c2.29-2.53,4.21-5.08,4.47-8.64 c0.43-5.78,3.91-9.86,8.18-13.2c5.84-4.58,7.9-9.58,6.7-17.53c-1.91-12.69,1.37-25.15,6.79-36.81c1.42-3.06,2.34-5.85,0.87-9 c-4.36-9.31,5.45-21.48,12.58-23.57c1.31-0.38,2.67-0.85,3.9-0.27c4.93,2.3,8.89,0.33,13.48-1.79 c36.39-16.87,76.61-7.27,99.04,30.1c2.78,4.64,3.97,9.87,5.31,15.01c0.62,2.41,0.33,4.86-2.53,5.7c-3.09,0.9-4.75-1.03-5.52-3.67 c-1.87-6.41-4.13-12.44-8.14-18.05c-12.79-17.86-29.95-27.99-51.74-28.63c-12.22-0.36-24.57,1.61-36.1,9.41 c30.51,27.81,58.3,57.94,90.04,84.32c3.43-3.99,5.07-8.65,6.61-13.36c0.85-2.59,1.76-5.6,5.24-4.72c3.46,0.87,2.87,4.11,2.49,6.71 c-0.91,6.23-3.9,11.62-7.25,16.82c-0.81,1.26-2.18,2.37-1.59,3.98c2.22,6.08,0.09,10.9-3.82,15.53c-3.91,4.63-8.64,7.68-14.45,9.26 c-2.34,0.63-4.56,0.67-6.86-0.15c-1.79-0.64-3.39-0.36-5.2,0.58c-12.88,6.73-26.33,10.27-40.85,6.31c-4.02-1.1-6.77-0.05-9.3,3.36 c-3.8,5.13-8.38,9.48-15.04,10.86c-1.05,0.22-2.11,1-2.91,1.78c-21.02,20.69-43.21,40.12-64.78,60.21 c-12.19,11.35-24.63,22.42-36.78,33.81c-5.85,5.49-12.53,9.92-18.88,14.77c-2.91,2.22-6.55,3.18-9.88,2.76 c-3.42-0.43-5.15,0.91-7.13,3.09c-4.84,5.35-10.38,9.14-17.49,11.76c-6.25,2.3-9.15,9.52-10.46,16.16 c-1.06,5.36-1.15,10.98-0.12,16.42c2.34,12.34,10.47,19.16,23.71,19.15c19.5-0.01,36.88-6.64,52.15-18.59 c11.46-8.97,20.72-20.21,30.42-30.96c14.92-16.55,32.44-28.38,54.96-32c20.44-3.28,40.06,8.26,44.09,27.03 c2.74,12.79,1.4,25.49-3.03,37.83c-1.63,4.54-3.47,9.03-4.73,13.67c-3.22,11.85,5.88,21.11,17.6,18.1 c13.53-3.48,22.26-12.94,29.28-24.17c7.23-11.57,13.94-23.47,20.93-35.19c2.93-4.91,7.09-8.29,12.67-9.92 c8.12-2.38,15.2,3.47,12.27,11.27c-11.79,31.47-26.3,61.19-58.51,77.25c-9.51,4.74-19.27,7.22-30.32,5.67 c-17.66-2.47-30.22-21.08-27.99-39.43c1.5-12.32,6.95-23.59,8.96-35.76c0.55-3.33,0.81-6.61,0.72-9.92 c-0.19-7.47-4.78-11.95-12.36-12.11c-16.14-0.34-29.2,6.86-40.98,17c-9.25,7.96-16.72,17.65-25.14,26.42 c-20.92,21.79-46.96,33.68-76.47,35.81c-17.08,1.23-34.6-3.51-44.63-19.49c-11.6-18.49-12.06-38.04,0.05-57.03 c0.89-1.4,1.89-2.76,2.96-4.03c2.71-3.2,4.63-6.17,3.67-11.07c-1.45-7.35,3.99-12.35,8.32-17.35c2.92-3.38,6.47-6.05,4.77-11.5 c-0.72-2.32,0.66-5.05,2.25-6.95c7.05-8.42,13.36-17.47,21.45-24.99c1.82-1.69,3.94-2.93,6.25-1.19 C129.01,295.13,128.3,297.52,126.47,300.07z M299.77,192.53c10.15,7.74,19.07,17.23,31.28,22.03c5.99,2.36,11.58,0.18,16.09-6.24 c3.27-4.66,2.94-6.48-2.38-12.55c-0.98-1.12-2.09-2.15-3.19-3.15c-9.71-8.85-19.45-17.67-29.15-26.52 c-20.16-18.39-38.46-38.73-59.28-56.43c-6.51-5.54-11.35-4.27-13.96,3.88c-0.98,3.07,0.13,5.93,1.3,8.69 c4.28,10.05,10.68,18.82,17.25,27.39C269.86,165.42,284.79,178.51,299.77,192.53z M281.55,424.95c0.64-5.34,2.27-10.4,4.33-15.32 c4.18-10,5.87-20.36,5.38-31.2c-0.68-14.98-12.5-26.54-27.34-27.01c-14.28-0.45-26.58,4.51-38.45,11.9 c-14.47,9.01-24.33,22.6-35.46,34.81c-18.19,19.95-39.93,32.62-66.89,34.9c-22.64,1.92-38.13-8.7-38.93-33.29 c-0.36-11.09,2.38-21.06,9.5-29.51c-1.01-1.7-2.13-2.58-3.75-2.9C79.6,377.87,74.94,390.5,77.1,405.08 c1.28,8.6,3.95,17.2,11.13,22.86c9.45,7.45,20.85,11.61,32.62,10.5c25.69-2.43,48.65-12.19,67.45-30.31 c7.3-7.04,13.75-14.96,20.77-22.31c13.19-13.83,28.42-23.89,47.93-26.59c17.42-2.4,28.28,6.65,27.85,24.18 c-0.09,3.62-0.89,7.24-1.53,10.83c-1.86,10.5-6.37,20.28-8.16,30.83c-3.3,19.48,13.32,36.08,32.38,31.11 c22.2-5.79,38.5-19.95,50-39.52c6.16-10.48,11.4-21.48,16-32.76c0.64-1.56,2.08-3.12,0.63-5.26c-3.34,0.45-5.83,2.24-7.59,5 c-2.68,4.21-5.31,8.46-7.78,12.8c-6.02,10.56-11.75,21.3-19.11,31.02c-7.63,10.08-17.06,17.77-29.66,20.79 c-12.27,2.95-20.61-1.03-26.27-12.32C282.15,432.75,281.96,429.24,281.55,424.95z M244.03,198.27 c19.29,22.78,55.24,32.14,74.49,20.19c-30.72-23.87-59.85-49.2-81.33-83.4C228.96,157.88,229.61,178.49,244.03,198.27z M227.48,218.81c7.31,6.79,14.43,13.74,24.58,16.46c8.92,2.39,15.24-0.16,18.17-8.24c-19-8.24-34.51-20.36-44.01-40.73 c-1.98,1.59-3.02,3.79-4.63,5.43c-5.63,5.74-6.16,9.14-1.84,15.8C222.11,211.16,224.61,214.68,227.48,218.81z M92.94,349.99 c-2.58,3.51-1.74,6.73,1.38,9.16c3.58,2.77,7.21,6.5,12.41,3.67c3.8-2.06,6.98-4.92,8.92-9.1c-2.75-2.4-5.38-4.66-7.97-6.97 c-7.68-6.87-7.67-6.88-13.79,1.83C93.7,348.86,93.52,349.13,92.94,349.99z" fill="inherit"/><path d="M170.71,141.68c0.28,4.15-1.28,6.72-4.84,8.18c-10.94,4.49-18.17,11.95-19.43,24.28c-0.24,2.31-1.28,4.64-4.06,5.1 c-2.76,0.46-4.46-1.35-5.5-3.49c-5.76-11.87-15.59-17.64-28.3-19.38c-2.53-0.35-4.98-1.38-5.21-4.48 c-0.23-3.05,1.96-4.29,4.38-5.34c2.74-1.19,5.5-2.38,8.11-3.81c8.47-4.64,13.8-11.29,13.35-21.52c-0.06-1.48,0.08-3.02,0.44-4.45 c0.48-1.88,1.79-3.2,3.72-3.67c2.06-0.5,3.6,0.46,4.63,2.15c1.03,1.7,2.07,3.43,2.8,5.27c4.58,11.53,14.28,15.91,25.41,18.2 C168.12,139.12,169.83,139.25,170.71,141.68z M140.72,135.69c-1.33-0.85-2.05-2.69-4.47-2.58c-2.32,7.74-9.05,11.99-15.57,17.16 c4.03,2.27,7.62,3.53,10.85,5.49c3.29,2,5.06,5.54,8.42,7.84c3.51-7.35,7.78-13.74,14.12-19.08 C149.6,141.44,144.9,139.56,140.72,135.69z" fill="inherit"/><path d="M403.44,73.31c0.11-1.42,0.16-2.43,0.37-3.39c0.43-1.98,0.9-4.09,3.23-4.61c2.6-0.58,4.04,1.43,5.16,3.19 c1.42,2.23,2.7,4.66,3.45,7.18c1.99,6.66,6.27,11.19,12.2,14.46c5.54,3.06,5.78,6.83,0.34,9.84c-8.57,4.75-11.46,12.49-12.15,21.56 c-0.19,2.56-0.22,5.36-3.49,5.74c-3.37,0.39-4.41-2.3-5.34-4.91c-0.56-1.56-1.25-3.08-1.9-4.61c-3.23-7.51-8.41-12.26-17.08-12.11 c-2.64,0.05-5.29-0.38-5.7-3.56c-0.44-3.38,2.08-4.42,4.84-5.24c4.67-1.39,8.72-4.08,12.82-6.6c2.78-1.71,4.12-4.34,3.99-7.57 C404.07,79.7,403.71,76.72,403.44,73.31z M404.14,97.92c-0.7,0.63-1.94,0.65-0.94,0.77c2.12,2.91,4.23,5.83,6.73,9.26 c2.35-5.38,6.12-8.67,9.48-12.7c-2.46-2.27-4.58-4.25-6.92-6.41c-1.32,1.84-2.24,3.4-3.43,4.71 C407.73,95.01,406.15,96.25,404.14,97.92z" fill="inherit"/><path d="M210.33,262.98c-4.5,3.98-8.64,7.85-13.04,11.4c-6.18,4.99-12.8,5.65-16.8,2c-4.07-3.73-4.7-12.43-0.65-18.05 c5.24-7.29,10.77-14.42,17.57-20.38c5.45-4.78,11.36-5.85,15.95-3.16c6.61,3.86,8.58,11.03,4.84,18.13 C216.25,256.61,213.71,259.92,210.33,262.98z M202.08,256c4.85,0.28,10.57-7.29,8.49-11.36c-0.71-1.39-1.51-3.33-3.64-2.52 c-3.64,1.39-6.81,3.71-8.44,7.23C197.2,252.14,200.39,253.54,202.08,256z M188.92,260.35c-1.48,1.61-2.5,3.48-2.9,5.62 c-0.23,1.26-0.58,2.7,0.84,3.56c1.14,0.69,2.2,0.06,3.24-0.46c6.77-3.38,7.11-5.71,1.67-11.55 C190.51,257.82,190.08,259,188.92,260.35z" fill="inherit"/><path d="M354.46,279.32c1.72,1.92,3.68,2.82,5.56,3.9c3.61,2.08,4.05,5.42,0.92,8.11c-5.54,4.75-9.48,10.11-9.36,17.87 c0.04,2.41-0.87,5.17-3.98,5.62c-3.36,0.49-4.7-1.91-5.6-4.57c-2.52-7.5-7.78-11.27-15.6-11.8c-2.77-0.19-5.45-0.98-5.91-4.28 c-0.45-3.19,2.2-4.13,4.43-5.26c1.33-0.68,2.69-1.31,4.02-2.01c5.61-2.92,9.07-7,8.46-13.87c-0.28-3.16-0.96-7.65,3.32-8.32 c3.67-0.58,6.62,2.12,8.38,5.79C350.52,273.49,352.5,276.21,354.46,279.32z M348.59,291.88c0.8-1.2,2.32-1.99,2.16-3.71 c-1.78-2.19-3.52-4.34-5.65-6.98c-0.73,5.15-4.83,7.55-7.79,10.91c2.82,1.9,5.22,3.51,7.69,5.17 C346.19,295.46,347.19,293.95,348.59,291.88z" fill="inherit"/><path d="M193.3,43.42c3.29,3.1,6.5,5.8,8.87,9.26c1.36,1.98,2.44,4.31,0.19,6.31c-2.18,1.94-4.51,0.95-6.25-0.79 c-4.25-4.23-8.34-8.61-12.45-12.98c-1.37-1.46-2-3.23-0.56-4.93c1.39-1.64,3.26-1.55,4.99-0.49 C189.79,40.84,191.38,42.05,193.3,43.42z" fill="inherit"/><path d="M401.96,229.63c4.67,2.28,9.13,4.27,9.28,10.13c-2.06,1.26-4.21,1.22-5.92,0.35c-5.74-2.92-11.36-6.11-16.95-9.32 c-1.31-0.75-2.29-2.13-1.47-3.79c0.81-1.65,2.37-1.65,3.89-1.16C394.41,227.02,398.01,228.25,401.96,229.63z" fill="inherit"/><path d="M422.34,181.37c-6.21,2.14-12.07,1.21-17.92,0.07c-1.44-0.28-2.36-1.34-2.45-2.78c-0.12-1.76,1.07-2.89,2.62-3.14 c5.22-0.85,10.54-1.54,15.73-0.43C423.25,175.72,424.81,177.95,422.34,181.37z" fill="inherit"/><path d="M141.65,285.19c-1.73,1.59-3.1,3.06-4.71,4.18c-2.01,1.41-4.34,2.09-6.22-0.11c-1.85-2.17-1.01-4.39,0.79-6.16 c2.11-2.08,4.33-4.05,6.61-5.95c1.67-1.39,3.65-1.8,5.41-0.26c1.95,1.71,1.67,3.8,0.31,5.78 C143.28,283.48,142.56,284.17,141.65,285.19z" fill="inherit"/><path d="M262.43,48.95c-1.05-4-1.25-7.6-0.23-11.24c0.51-1.82,1.54-2.98,3.47-2.97c2.02,0.01,2.91,1.36,3.2,3.18 c0.51,3.11,1.32,6.18,1.01,9.39c-0.2,2.15-0.93,4.05-3.08,4.69C264.65,52.64,263.5,51,262.43,48.95z" fill="inherit"/><path d="M259.01,297.83c0.26,1.24,0.56,2.03,0.67,2.85c0.37,2.79,0.35,5.9-3.04,6.35c-3.41,0.45-3.99-2.51-4.55-5.31 c-0.57-2.87-0.43-5.58,0.18-8.37c0.47-2.16,1.54-3.94,3.85-3.88c2.75,0.07,2.73,2.38,2.75,4.44 C258.89,295.07,258.93,296.23,259.01,297.83z" fill="inherit"/><path d="M364.44,167.43c-3.43,0.23-4.51-1.73-4.95-4.22c-0.35-1.99-0.05-3.97,0.49-5.93c0.58-2.13-0.04-5.24,3.23-5.38 c3.68-0.15,4.01,3.29,4.34,5.71C368.02,161.07,369.15,165.07,364.44,167.43z" fill="inherit"/><path d="M110.91,237.11c-2.74,0.2-5.05,0.28-7.37,0.31c-1.43,0.02-2.65-0.41-3.05-1.97c-0.37-1.46,0.17-2.69,1.41-3.43 c2.47-1.47,5.15-2.37,8.06-1.78c1.64,0.33,3.26,0.98,3.71,2.88C114.14,235.11,112.99,236.22,110.91,237.11z" fill="inherit"/></g></svg>