<?xml version="1.0" encoding="UTF-8" standalone="no"?><svg xmlns="http://www.w3.org/2000/svg" xmlns:xlink="http://www.w3.org/1999/xlink" fill="#000000" height="433.3" preserveAspectRatio="xMidYMid meet" version="1" viewBox="108.3 33.3 283.5 433.3" width="283.5" zoomAndPan="magnify"><g><g><g id="change1_1"><path d="M391.73,41.22v417.56c0,3.67-2.51,6.75-5.91,7.64c-0.63,0.16-1.3,0.25-1.99,0.25H116.16 c-4.36,0-7.89-3.53-7.89-7.89V41.22c0-4.36,3.53-7.89,7.89-7.89h267.67C388.19,33.33,391.73,36.86,391.73,41.22z" fill="#646044"/></g><g id="change2_1"><path d="M250.09,370.94l-7.99-7.85c-1.83-1.79-2.17-4.71-0.61-6.74c1.87-2.43,5.37-2.62,7.49-0.54l0.98,0.97 l0.67-0.69c1.79-1.83,4.71-2.17,6.74-0.61c2.43,1.87,2.62,5.37,0.53,7.49L250.09,370.94z" fill="#ef7c8e"/></g><g id="change3_7"><path d="M197.31,355.36L197.31,355.36c0-0.54-0.44-0.99-0.99-0.99h0c-0.54,0-0.99,0.44-0.99,0.99v9.86 c-0.9-0.32-3.94,0.21-3.94,2.71c0,1.78,1.52,3.21,3.34,2.98c1.49-0.19,2.57-1.54,2.57-3.05v-9.44c2.35-0.18,3.28,1.23,3.65,2.2 c0.09,0.25,0.45,0.24,0.52-0.02C202.84,355.69,197.31,355.36,197.31,355.36z" fill="#ffffff"/></g><g fill="#ffffff" id="change3_6"><path d="M308.47,356.55c0,1.2-0.97,2.17-2.17,2.17s-2.17-0.97-2.17-2.17c0-1.2,0.97-2.17,2.17-2.17 S308.47,355.35,308.47,356.55z"/><path d="M308.47,362.66c0,1.2-0.97,2.17-2.17,2.17s-2.17-0.97-2.17-2.17s0.97-2.17,2.17-2.17 S308.47,361.46,308.47,362.66z"/><path d="M308.47,368.77c0,1.2-0.97,2.17-2.17,2.17s-2.17-0.97-2.17-2.17s0.97-2.17,2.17-2.17 S308.47,367.57,308.47,368.77z"/></g><g id="change3_5"><path d="M117.78 395.89H382.21000000000004V396.64H117.78z" fill="#ffffff"/></g><g id="change2_2"><circle cx="119.47" cy="396.36" fill="#ef7c8e" r="3.1"/></g><g fill="#ffffff" id="change3_3"><path d="M127.81,385.17c0,2.43-0.9,3.77-2.49,3.77c-1.4,0-2.34-1.31-2.37-3.67c0-2.4,1.03-3.72,2.49-3.72 C126.95,381.55,127.81,382.89,127.81,385.17z M123.93,385.28c0,1.86,0.57,2.92,1.45,2.92c0.99,0,1.46-1.16,1.46-2.98 c0-1.76-0.45-2.92-1.45-2.92C124.54,382.29,123.93,383.33,123.93,385.28z"/><path d="M133.45,385.17c0,2.43-0.9,3.77-2.49,3.77c-1.4,0-2.34-1.31-2.37-3.67c0-2.4,1.03-3.72,2.49-3.72 C132.6,381.55,133.45,382.89,133.45,385.17z M129.57,385.28c0,1.86,0.57,2.92,1.45,2.92c0.99,0,1.46-1.16,1.46-2.98 c0-1.76-0.45-2.92-1.45-2.92C130.19,382.29,129.57,383.33,129.57,385.28z"/><path d="M134.42,384.37c0-0.41,0.27-0.69,0.66-0.69c0.39,0,0.64,0.29,0.65,0.69c0,0.39-0.25,0.68-0.66,0.68 C134.69,385.06,134.42,384.76,134.42,384.37z M134.42,388.26c0-0.41,0.27-0.69,0.66-0.69c0.39,0,0.64,0.29,0.65,0.69 c0,0.39-0.25,0.68-0.66,0.68C134.69,388.94,134.42,388.64,134.42,388.26z"/><path d="M141.37,385.17c0,2.43-0.9,3.77-2.49,3.77c-1.4,0-2.34-1.31-2.37-3.67c0-2.4,1.03-3.72,2.49-3.72 C140.52,381.55,141.37,382.89,141.37,385.17z M137.49,385.28c0,1.86,0.57,2.92,1.45,2.92c0.99,0,1.46-1.16,1.46-2.98 c0-1.76-0.45-2.92-1.45-2.92C138.11,382.29,137.49,383.33,137.49,385.28z"/><path d="M147.02,385.17c0,2.43-0.9,3.77-2.49,3.77c-1.4,0-2.34-1.31-2.37-3.67c0-2.4,1.03-3.72,2.49-3.72 C146.16,381.55,147.02,382.89,147.02,385.17z M143.13,385.28c0,1.86,0.57,2.92,1.45,2.92c0.99,0,1.46-1.16,1.46-2.98 c0-1.76-0.45-2.92-1.45-2.92C143.75,382.29,143.13,383.33,143.13,385.28z"/></g><g fill="#ffffff" id="change3_12"><path d="M356.71,385.17c0,2.43-0.9,3.77-2.49,3.77c-1.4,0-2.34-1.31-2.37-3.67c0-2.4,1.03-3.72,2.49-3.72 C355.85,381.55,356.71,382.89,356.71,385.17z M352.83,385.28c0,1.86,0.57,2.92,1.45,2.92c0.99,0,1.46-1.16,1.46-2.98 c0-1.76-0.45-2.92-1.45-2.92C353.45,382.29,352.83,383.33,352.83,385.28z"/><path d="M360.6,388.82v-1.95h-3.32v-0.64l3.19-4.57h1.04v4.44h1v0.76h-1v1.95H360.6z M360.6,386.11v-2.39 c0-0.37,0.01-0.75,0.03-1.12h-0.03c-0.22,0.42-0.4,0.73-0.59,1.06l-1.75,2.43v0.02H360.6z"/><path d="M363.32,384.37c0-0.41,0.27-0.69,0.66-0.69c0.38,0,0.64,0.29,0.65,0.69c0,0.39-0.25,0.68-0.66,0.68 C363.59,385.06,363.32,384.76,363.32,384.37z M363.32,388.26c0-0.41,0.27-0.69,0.66-0.69c0.38,0,0.64,0.29,0.65,0.69 c0,0.39-0.25,0.68-0.66,0.68C363.59,388.94,363.32,388.64,363.32,388.26z"/><path d="M367.62,382.57h-0.02l-1.24,0.67l-0.19-0.74l1.56-0.84h0.83v7.15h-0.94V382.57z"/><path d="M375.92,385.17c0,2.43-0.9,3.77-2.49,3.77c-1.4,0-2.34-1.31-2.37-3.67c0-2.4,1.03-3.72,2.49-3.72 C375.06,381.55,375.92,382.89,375.92,385.17z M372.03,385.28c0,1.86,0.57,2.92,1.45,2.92c0.99,0,1.46-1.16,1.46-2.98 c0-1.76-0.45-2.92-1.45-2.92C372.65,382.29,372.03,383.33,372.03,385.28z"/></g><g id="change3_8"><path d="M242.72 420.22L242.72 439.83 258.32 430.03z" fill="#ffffff"/></g><g id="change3_9"><path d="M301.9,422.41c-0.43,0-0.78,0.35-0.78,0.78v5.94l-10.9-6.85v15.49l10.9-6.85v5.94 c0,0.43,0.35,0.78,0.78,0.78c0.43,0,0.78-0.35,0.78-0.78v-13.68C302.68,422.76,302.33,422.41,301.9,422.41z" fill="#ffffff"/></g><g id="change3_10"><path d="M198.26,437.65c0.43,0,0.78-0.35,0.78-0.78v-5.94l10.9,6.85v-15.49l-10.9,6.85v-5.94 c0-0.43-0.35-0.78-0.78-0.78c-0.43,0-0.78,0.35-0.78,0.78v13.68C197.48,437.3,197.83,437.65,198.26,437.65z" fill="#ffffff"/></g><g fill="#ffffff" id="change3_1"><path d="M152.99,429.84c0-1.15,0.94-2.09,2.09-2.09h0.6v0h1.92l-1.92-1.6v0.81h-0.6c-1.58,0-2.87,1.29-2.87,2.87 c0,1.58,1.29,2.87,2.87,2.87h0.68v-0.78h-0.68C153.93,431.93,152.99,430.99,152.99,429.84z"/><path d="M161.85,429.87c0,1.15-0.94,2.09-2.09,2.09h-0.6v0h-1.92l1.92,1.6v-0.81h0.6c1.58,0,2.87-1.29,2.87-2.87 s-1.29-2.87-2.87-2.87h-0.68v0.78h0.68C160.92,427.78,161.85,428.72,161.85,429.87z"/><circle cx="157.7" cy="438.53" r="1.44"/></g><g><g id="change3_4"><path d="M345.4,434v-1.28h-0.43c-1.57,0-2.85-1.28-2.85-2.85c0-1.14-0.93-2.07-2.07-2.07h-2.92v-0.78h2.92 c1.57,0,2.85,1.28,2.85,2.85c0,1.14,0.93,2.07,2.07,2.07h2.82L345.4,434z" fill="#ffffff"/></g><g fill="#ffffff" id="change3_2"><path d="M345.4,425.61v1.28h-0.43c-0.3,0-0.59,0.06-0.87,0.15v0.84c0.27-0.13,0.56-0.21,0.87-0.21h2.82 L345.4,425.61z"/><path d="M340.7,431.67c-0.21,0.07-0.42,0.13-0.65,0.13h-2.92v0.78h2.92c0.23,0,0.44-0.03,0.65-0.08V431.67z"/></g></g><g id="change3_11"><path d="M365.08,314.48H134.92c-1.22,0-2.22-0.99-2.22-2.22V82.1c0-1.22,0.99-2.22,2.22-2.22h230.16 c1.22,0,2.22,0.99,2.22,2.22v230.16C367.3,313.49,366.3,314.48,365.08,314.48z" fill="#ffffff"/></g></g></g></svg>