<?xml version="1.0" encoding="UTF-8" standalone="no"?><svg xmlns="http://www.w3.org/2000/svg" xmlns:xlink="http://www.w3.org/1999/xlink" fill="#000000" height="221.8" preserveAspectRatio="xMidYMid meet" version="1" viewBox="0.0 0.0 666.6 221.8" width="666.6" zoomAndPan="magnify"><g><g fill="#646044" id="change1_1"><path d="m 91.3984,1041.82 c 0,292.25 237.7616,530.01 530.0156,530.01 H 4378.59 c 292.25,0 530.01,-237.76 530.01,-530.02 0,-78.482 -16.82,-154.064 -49.99,-224.642 l 82.71,-38.883 c 38.94,82.836 58.68,171.5 58.68,263.525 0,342.65 -278.77,621.42 -621.41,621.42 H 621.414 C 278.766,1663.23 0,1384.47 0,1041.82 0,699.164 278.766,420.398 621.414,420.398 H 4113.74 v 91.403 H 621.414 c -292.254,0 -530.0156,237.762 -530.0156,530.019" transform="matrix(.13333 0 0 -.13333 0 221.76)"/><path d="m 690.781,1186.76 c 36.555,0 61.153,-9.28 72.555,-14.81 l 13.391,-6.5 19.234,65 -9.215,4.81 c -8.394,4.38 -40.223,18.65 -97.691,18.65 -126.399,0 -214.676,-88.75 -214.676,-215.82 0,-126.582 79.984,-208.371 203.777,-208.371 50.43,0 88.762,10.176 107.817,19.699 l 9.16,4.578 -16.805,64.41 -13.851,-6.726 c -18.809,-9.133 -47.926,-14.805 -75.997,-14.805 -85.179,0 -136.039,53.434 -136.039,142.925 0,92.02 51.715,146.96 138.34,146.96" transform="matrix(.13333 0 0 -.13333 0 221.76)"/><path d="M 873.297,1247.6 V 835.461 H 1113.8 v 67.156 H 948.488 V 1247.6 h -75.191" transform="matrix(.13333 0 0 -.13333 0 221.76)"/><path d="M 1262.46,835.461 V 1247.6 h -75.19 V 835.461 h 75.19" transform="matrix(.13333 0 0 -.13333 0 221.76)"/><path d="m 1560.95,1186.76 c 36.55,0 61.15,-9.28 72.55,-14.81 l 13.39,-6.5 19.24,65 -9.22,4.81 c -8.39,4.38 -40.22,18.65 -97.69,18.65 -126.4,0 -214.67,-88.75 -214.67,-215.82 0,-126.582 79.98,-208.371 203.77,-208.371 50.43,0 88.76,10.176 107.82,19.699 l 9.16,4.578 -16.81,64.41 -13.85,-6.726 c -18.8,-9.133 -47.92,-14.805 -75.99,-14.805 -85.18,0 -136.04,53.434 -136.04,142.925 0,92.02 51.71,146.96 138.34,146.96" transform="matrix(.13333 0 0 -.13333 0 221.76)"/><path d="M 1743.46,1247.6 V 835.461 h 75.2 v 155.445 l 22.83,26.404 121.98,-181.849 h 89.66 l -158.93,234.469 151.58,177.67 h -95.36 l -122.24,-150.14 c -3.33,-4.31 -6.5,-8.46 -9.52,-12.47 v 162.61 h -75.2" transform="matrix(.13333 0 0 -.13333 0 221.76)"/><path d="M 2575.18,835.461 V 1247.6 h -75.76 v -161.87 h -161.88 v 161.87 h -75.19 V 835.461 h 75.19 v 181.389 h 161.88 V 835.461 h 75.76" transform="matrix(.13333 0 0 -.13333 0 221.76)"/><path d="m 2913.83,1180.44 v 67.16 H 2679.64 V 835.461 h 242.81 v 67.156 h -167.62 v 114.233 h 150.39 v 66.58 h -150.39 v 97.01 h 159" transform="matrix(.13333 0 0 -.13333 0 221.76)"/><path d="m 3118.74,1066.21 h -38.46 v 118.27 c 8.43,1.25 20.86,2.28 36.59,2.28 50.75,-0.55 76.49,-20.64 76.49,-59.7 0,-37.53 -28.59,-60.85 -74.62,-60.85 z m 149.82,66.59 c 0,33.74 -12.33,63.2 -34.59,82.84 -26.62,24.09 -63.76,34.83 -120.4,34.83 -36.22,0 -73,-3.1 -98.39,-8.29 l -10.1,-2.07 V 835.461 h 75.2 v 167.619 h 33.96 c 39.38,-1.49 55.32,-17.342 65.66,-65.357 13.06,-57.793 20.69,-84.7 27.22,-95.961 l 3.64,-6.301 h 80.07 l -10.01,18.609 c -7.44,13.817 -16.98,53.129 -28.66,103.02 -7.94,34.73 -22.1,59.87 -42.25,75.08 37.14,20.68 58.65,56.88 58.65,100.63" transform="matrix(.13333 0 0 -.13333 0 221.76)"/><path d="m 3591.14,1180.44 v 67.16 H 3356.95 V 835.461 h 242.8 v 67.156 h -167.61 v 114.233 h 150.39 v 66.58 h -150.39 v 97.01 h 159" transform="matrix(.13333 0 0 -.13333 0 221.76)"/><path d="m 4450.42,1326.08 c -21.1,5.74 -43,-6.76 -48.76,-27.9 l -30.54,-112.22 c -5.75,-21.14 6.76,-43.01 27.89,-48.76 3.48,-0.95 6.98,-1.4 10.42,-1.4 17.48,0 33.54,11.65 38.35,29.3 l 30.53,112.22 c 5.76,21.13 -6.75,43 -27.89,48.76 v 0" transform="matrix(.13333 0 0 -.13333 0 221.76)"/><path d="m 3918.45,1020.35 c -5.67,-21.155 6.93,-42.979 28.08,-48.651 l 112.34,-30.105 c 3.43,-0.918 6.87,-1.356 10.27,-1.356 17.53,0 33.62,11.719 38.38,29.446 5.67,21.152 -6.93,42.976 -28.09,48.656 l -112.33,30.1 c -21.18,5.66 -42.98,-6.93 -48.65,-28.09" transform="matrix(.13333 0 0 -.13333 0 221.76)"/><path d="m 4688.75,1141.65 c -10.25,2.76 -20.94,1.38 -30.15,-3.91 l -100.84,-57.95 c -18.98,-10.91 -25.56,-35.24 -14.64,-54.24 5.28,-9.19 13.84,-15.78 24.08,-18.55 3.44,-0.93 6.94,-1.39 10.42,-1.39 6.86,0 13.62,1.79 19.73,5.3 l 100.84,57.95 c 18.99,10.92 25.55,35.25 14.64,54.23 -5.28,9.2 -13.84,15.79 -24.08,18.56" transform="matrix(.13333 0 0 -.13333 0 221.76)"/><path d="m 4077.2,803.613 -100.83,-57.949 c -9.2,-5.285 -15.79,-13.84 -18.56,-24.082 -2.77,-10.246 -1.38,-20.953 3.91,-30.152 7.34,-12.77 20.74,-19.922 34.51,-19.922 6.71,0 13.5,1.699 19.73,5.277 l 100.82,57.945 c 9.21,5.29 15.8,13.84 18.56,24.086 2.77,10.243 1.38,20.95 -3.91,30.153 -10.9,18.984 -35.22,25.562 -54.23,14.644" transform="matrix(.13333 0 0 -.13333 0 221.76)"/><path d="m 4233.03,1168.36 -57.94,100.83 c -5.28,9.2 -13.84,15.79 -24.08,18.56 -10.26,2.77 -20.95,1.38 -30.15,-3.91 h -0.01 c -18.98,-10.92 -25.55,-35.25 -14.64,-54.23 l 57.95,-100.84 c 7.34,-12.77 20.74,-19.92 34.51,-19.92 6.7,0 13.5,1.7 19.72,5.28 9.2,5.28 15.79,13.83 18.55,24.08 2.77,10.24 1.38,20.95 -3.91,30.15" transform="matrix(.13333 0 0 -.13333 0 221.76)"/><path d="m 4735.06,491.961 c -11.31,-3.379 -20.29,-11.602 -24.67,-22.582 -4.35,-10.957 -3.47,-23.109 2.41,-33.328 L 4862.42,176.371 4705.49,85.9492 4555.87,345.641 c -5.89,10.218 -15.96,17.07 -27.63,18.789 -1.85,0.281 -3.71,0.41 -5.56,0.41 -6.7,0 -13.35,-1.75 -19.19,-5.11 v 0 c -2.56,-1.468 -4.96,-3.25 -7.14,-5.3 l -112.93,-106.168 -71.03,701.347 571.14,-413.211 z m 234.83,76.68 -658.03,476.069 c -16.24,11.75 -37.92,12.98 -55.39,3.2 l -0.54,-0.3 c -17.56,-10.12 -27.58,-29.68 -25.54,-49.848 l 81.83,-808.032 c 1.99,-19.671 14.72,-36.171 33.21,-43.07 18.51,-6.93 38.95,-2.832 53.36,10.719 l 114.8,107.93 138,-239.5277 c 6.89,-11.9297 18,-20.46099 31.29,-24.0313 4.35,-1.171875 8.86,-1.75 13.37,-1.75 3.38,0 6.77,0.332031 10.08,0.988281 5.32,1.062499 10.41,2.941409 15.12,5.593749 l 0.36,0.19922 c 0.04,0.02734 0.07,0.04688 0.11,0.07031 L 4922.57,122.461 c 24.62,14.18 33.12,45.75 18.93,70.379 l -138,239.512 150.97,45.179 c 18.92,5.668 32.72,21.289 36.02,40.77 3.29,19.48 -4.6,38.769 -20.6,50.34" transform="matrix(.13333 0 0 -.13333 0 221.76)"/></g></g></svg>