<?xml version="1.0" encoding="UTF-8" standalone="no"?><svg xmlns="http://www.w3.org/2000/svg" xmlns:xlink="http://www.w3.org/1999/xlink" fill="#646044" height="1099.9" preserveAspectRatio="xMidYMid meet" version="1" viewBox="451.4 50.1 297.3 1099.9" width="297.3" zoomAndPan="magnify"><g id="change1_1"><path d="M701.2,754.9c0.5,1.3,1.1,2.7,1.7,4s1.2,2.6,1.9,3.9c0.1,0.3,0.4,0.5,0.7,0.7c0.3,0.2,0.7,0.5,1.2,0.8 c0.1-0.7,0.2-1.2,0.2-1.6c0.1-0.4,0.1-0.8,0.1-1.2c0.2-3.2-0.2-6.2-0.9-9.1c-0.7-3-1.8-5.8-3.1-8.6c-1.2-2.6-2.5-5.2-3.8-7.8 s-2.6-5.2-3.8-7.8c-2.7-5.9-5.7-11.5-9-17s-6.8-10.9-10.3-16.3c-0.7-1.1-1.6-2.2-2.4-3.2s-1.8-2-2.6-3c-0.4-0.4-0.9-0.8-1.4-0.9 c-0.5-0.1-1.2,0.1-1.9,0.8c0.3,0.5,0.5,1.1,0.8,1.6s0.6,1.1,0.9,1.6c6.8,9.8,12.6,20,17.9,30.5S697.1,743.8,701.2,754.9z M580.4,759.3c-0.4,0.2-0.7,0.5-1,0.9s-0.5,0.8-0.6,1.2c-0.3,0.9-0.1,1.8,0.4,2.4c0.5,0.6,1.3,1,2.3,1.1c2.3,0,4.6,0.1,6.9,0 s4.6-0.1,6.9-0.3c1.9-0.2,3.8-0.5,5.6-1s3.7-0.9,5.6-1.3c0.4-0.1,0.7-0.3,1.1-0.7s0.8-0.8,1.4-1.2c-0.6-0.3-1-0.6-1.3-0.7 c-0.3-0.2-0.4-0.3-0.6-0.3c-3.8-1.1-7.7-1.5-11.6-1.5s-7.8,0.2-11.7,0.5c-0.6,0-1.1,0.1-1.7,0.3S580.8,759,580.4,759.3z M574.7,747.5c1,0,1.9,0.1,2.9,0.1s1.9-0.1,2.9-0.2c2-0.3,3.9-0.5,6-1s4.1-1.2,6.2-2.4c-2.8-1.7-6.2-2.7-9.3-3.1s-6.2,0.1-8.4,1.2 c-0.3,0.1-0.5,0.3-0.8,0.4s-0.5,0.3-0.6,0.5c-0.3,0.4-0.5,0.8-0.7,1.2s-0.4,0.9-0.3,1.3c0,0.6,0.3,1.1,0.8,1.5 C573.5,747.3,574.1,747.5,574.7,747.5z M565,204.9c0,0.9,0,1.7-0.1,2.6s-0.1,1.7-0.1,2.6c0,1,0,1.9,0,2.9c0,1,0.1,1.9,0.2,2.9 c0.2,2.2,0.8,3.7,1.8,4.8s2.5,1.7,4.7,2c0.6,0.1,1.1,0.1,1.7,0.2c0.6,0,1.2,0,1.7,0c1.3,0,2.4-0.3,3.3-0.9s1.7-1.4,2.2-2.6 c0.4-0.9,0.8-1.9,1.1-2.9s0.5-2,0.7-3.1c0.3-2.8,0.6-5.5,0.8-8.3s0.3-5.6,0.2-8.4c-0.1-2.2-0.1-4.4,0-6.6c0.1-2.2,0.2-4.4,0.4-6.6 c0.4-4.5,0.5-9,0.4-13.6s-0.3-9-0.6-13.5c0-0.6-0.1-1.2-0.2-1.7c-0.1-0.6-0.2-1.1-0.3-1.7c-0.7-3.3-1.8-5.2-3.5-6.4 c-1.6-1.2-3.7-1.5-6.1-1.8c-2-0.2-3.6,0.3-4.8,1.3c-1.2,1.1-1.9,2.7-2,4.7c-0.1,2.3-0.1,4.6-0.2,6.9c0,2.3,0,4.6-0.1,6.9 c0,1.1-0.1,2.1-0.1,3.2s-0.1,2.1-0.2,3.2c-0.3,4.8-0.6,9.6-0.9,14.4s-0.6,9.6-0.9,14.4l0.1,0l0.1,0c0.1,0.9,0.1,1.7,0.2,2.6 C565,203.2,565,204.1,565,204.9z M574.7,151.6c0.3,0.4,0.6,0.7,0.9,1s0.5,0.6,0.6,0.9c0.2,0.5,0.3,1.1,0.4,1.7 c0.1,0.6,0.1,1.2,0.1,1.7c0,3.8,0,7.7,0,11.5s0,7.7-0.1,11.5c0,2.7-0.2,5.4-0.3,8.1s-0.2,5.4-0.1,8.1c0.1,2.9-0.1,5.8-0.4,8.6 s-0.6,5.7-0.7,8.6c0,0.3-0.1,0.5-0.2,0.8c-0.1,0.3-0.3,0.5-0.4,0.7c-0.1,0.1-0.3,0.3-0.4,0.4s-0.4,0.2-0.5,0.1 c-0.2,0-0.4-0.1-0.5-0.2s-0.3-0.2-0.4-0.4c-0.2-0.5-0.3-1.1-0.5-1.6c-0.1-0.6-0.2-1.1-0.2-1.7c0-6.6,0-13.3,0-19.9 c0-6.6,0-13.3,0-19.9c0-2.5,0-5-0.1-7.5c0-2.5-0.1-5-0.2-7.5c0-1.1,0.2-2,0.6-2.8C572.7,153,573.5,152.3,574.7,151.6z M707.1,976.3 c0.8-1.9,1.6-3.9,2.3-5.9c0.7-2,1.4-4,2-6c0.9-3.2,1.7-6.5,2.3-9.8c0.6-3.3,1.1-6.6,1.5-10c0.3-2.4,0.5-4.8,0.7-7.2s0.2-4.8,0.1-7.2 c0-0.5-0.1-0.9-0.2-1.4s-0.3-0.9-0.4-1.4c-0.1-0.3-0.5-0.5-1-0.5s-0.9,0.1-1,0.4c-0.3,0.8-0.7,1.6-1,2.4s-0.6,1.6-0.7,2.4 c-0.3,1.8-0.5,3.6-0.7,5.4c-0.2,1.8-0.4,3.6-0.6,5.4c-0.6,4.9-1.5,9.7-2.7,14.4c-1.2,4.7-2.7,9.4-4.6,13.9c-0.4,1.1-0.9,2.1-1.3,3.2 c-0.4,1.1-0.8,2.2-1.1,3.3c-0.3,1.1-0.7,2.1-0.9,3.3s-0.2,2.5,0.3,4c1.9-1.2,3.3-2.6,4.5-4.1C705.5,979.5,706.3,977.9,707.1,976.3z M714.2,868.6c0.3,0,0.6-0.1,0.8-0.2c0.3-0.1,0.5-0.3,0.7-0.4c0.2-0.3,0.5-0.6,0.7-0.9s0.3-0.7,0.3-1c0-0.3-0.2-0.6-0.5-0.9 s-0.6-0.5-0.9-0.7c-0.3-0.2-0.7-0.2-1.1-0.3c-0.4,0-0.8,0-1.2,0c-4.6-0.1-9.2,0.1-13.8,0.6c-4.6,0.5-9.1,1.2-13.6,2.2 c-0.6,0.1-1.3,0.4-2,0.6s-1.7,0.6-2.9,1.1c1.7,0.9,3.1,1.5,4.5,1.8s2.5,0.4,3.8,0.5c4.2,0.2,8.5-0.1,12.6-0.5 C705.9,869.9,710.1,869.2,714.2,868.6z M717.9,880.6c-0.4-0.1-0.7-0.2-1.1-0.2c-0.4,0-0.8,0-1.2,0c-4.3-0.1-8.4,0.5-12.5,1.5 s-8,2.3-12,3.6c-0.1,0-0.2,0.2-0.3,0.5s-0.3,0.7-0.5,1.3c4.1,0.2,8,0.3,11.9,0.1c3.9-0.2,7.6-0.7,11.3-1.6c0.9-0.2,1.8-0.6,2.6-1 c0.8-0.4,1.7-0.9,2.5-1.4c0.2-0.1,0.3-0.4,0.4-0.7s0.1-0.6,0-0.9c-0.1-0.2-0.2-0.5-0.4-0.7C718.4,880.9,718.2,880.7,717.9,880.6z M679.4,859.8c5.8,0.1,11.5-0.4,17.2-1.2s11.3-2,17-3.1c1.3-0.3,2.6-0.5,3.9-0.8c1.3-0.3,2.6-0.6,3.9-1c0.4-0.1,0.8-0.4,1.2-0.7 c0.4-0.3,0.7-0.6,1.1-1c0.3-0.3,0.4-0.9,0.2-1.4c-0.2-0.5-0.5-0.9-0.9-1c-0.8-0.1-1.7-0.2-2.6-0.2s-1.7,0-2.5,0.1 c-6.8,1.3-13.6,2.5-20.3,3.8s-13.6,2.6-20.3,3.9c-0.5,0.1-1,0.3-1.5,0.5s-1,0.4-1.5,0.6c0,0.2,0,0.4,0.1,0.7s0,0.4,0.1,0.7 c0.9,0,1.7,0,2.6,0C677.7,859.7,678.6,859.7,679.4,859.8z M581.6,770.7c-0.3,0-0.6,0.1-0.9,0.1c-0.3,0-0.6,0.1-0.8,0.2 c-0.6,0.2-1.1,0.5-1.5,0.9c-0.4,0.4-0.6,0.9-0.7,1.5c-0.1,0.6,0.1,1.2,0.3,1.7s0.7,0.9,1.3,1.1c0.8,0.3,1.6,0.5,2.5,0.7 c0.8,0.2,1.7,0.3,2.5,0.2c3.7-0.1,7.5-0.2,11.2-0.4s7.5-0.4,11.2-0.7c2-0.2,4-0.4,6-0.8c2.1-0.5,4.2-1.2,6.4-2.3 c-1.1-0.9-2.2-1.3-3.2-1.6c-1-0.3-1.9-0.4-2.8-0.6c-5.3-0.8-10.5-1.1-15.8-1.1C592.1,769.7,586.8,770.1,581.6,770.7z M600.8,337.5 c2.5,0.6,5,0.7,7.4,0.5c2.5-0.2,4.9-0.7,7.3-1.2c0.1,0,0.1-0.1,0.2-0.2c0.1-0.1,0.1-0.4,0.3-0.7c-2.4-0.9-5.4-1.6-8.3-1.9 s-5.7-0.3-7.7,0.1c-0.2,0-0.4,0.1-0.5,0.2c-0.2,0.1-0.3,0.2-0.5,0.3c-0.1,0.1-0.3,0.3-0.4,0.5c-0.1,0.2-0.2,0.3-0.2,0.5 c0,0.3,0.1,0.5,0.3,0.8c0.1,0.3,0.3,0.5,0.5,0.6c0.2,0.2,0.5,0.3,0.7,0.4S600.6,337.5,600.8,337.5z M625.1,280.8 c0.5-0.4,0.8-1,0.8-1.7c0-0.6-0.3-1.3-0.8-1.8c-0.9-0.8-1.9-1.3-3-1.6s-2.3-0.5-3.6-0.5c-0.2,0-0.4,0-0.7,0c-0.3,0-0.5,0.1-0.8,0.2 c-0.4,0.2-0.8,0.4-1.2,0.7c-0.4,0.3-0.7,0.6-0.9,0.9c-0.3,0.5-0.3,1.1-0.2,1.6s0.5,1,0.9,1.4c1.1,1.1,2.8,1.8,4.5,1.9 C622,282.2,623.8,281.8,625.1,280.8z M618.2,298c0,0.4,0.3,0.8,0.6,1.2s0.7,0.7,1.1,0.8c0.8,0.2,1.7,0.3,2.6,0.4 c1,0.1,2,0.2,3.3,0.3c0.8-0.2,1.8-0.4,2.9-0.6s2.3-0.5,3.4-0.9c0.3-0.1,0.7-0.5,1-0.9s0.4-0.9,0.4-1.3c0-0.4-0.3-0.8-0.6-1.2 c-0.3-0.4-0.7-0.7-1.1-0.8c-2.1-0.5-4.1-0.7-6.2-0.6c-2.1,0.1-4.1,0.5-6.1,1.4c-0.3,0.1-0.7,0.5-0.9,0.9 C618.3,297.2,618.2,297.7,618.2,298z M642.4,300.7c0.2,1.9,0.5,3.8,0.9,5.7c0.4,1.9,0.8,3.8,1.2,5.6c0.1,0.6,0.3,1.1,0.5,1.6 c0.2,0.5,0.5,1.1,0.8,1.5c0.2,0.3,0.5,0.6,0.8,0.8c0.3,0.2,0.7,0.4,0.9,0.3c0.4-0.1,0.9-0.3,1.3-0.6c0.4-0.3,0.7-0.6,0.8-1 c0.2-1.2,0.3-2.5,0.3-3.7c0.1-1.2,0.1-2.5,0-3.7c-0.1-2.3-0.3-4.6-0.4-6.9c-0.2-2.3-0.4-4.6-0.5-6.9c-0.2-3.2-0.4-6.5-0.6-9.7 c-0.2-3.2-0.4-6.5-0.7-9.7c-0.1-1.4-0.2-2.9-0.4-4.3c-0.2-1.4-0.4-2.8-0.7-4.3c-0.3-1.8-0.7-3.6-1.2-5.3c-0.4-1.8-0.9-3.5-1.4-5.3 c-0.1-0.5-0.4-0.9-0.7-1.3c-0.3-0.4-0.7-0.8-0.9-1.3c-0.2,0.1-0.4,0.1-0.6,0.2s-0.4,0.1-0.6,0.2c-0.2,2.1-0.5,4.2-0.7,6.3 c-0.2,2.1-0.4,4.2-0.4,6.3c0,3,0.1,5.9,0.3,8.9c0.2,3,0.4,5.9,0.6,8.9c0.2,3,0.4,5.9,0.7,8.9C641.8,294.8,642.1,297.7,642.4,300.7z M649.1,328.7c-0.3,0.2-0.5,0.4-0.6,0.5c-0.1,0.1-0.2,0.2-0.2,0.2c-1.2,3.9-1.6,7.8-1.5,11.7c0.1,3.9,0.7,7.8,1.6,11.7 c0.1,0.5,0.4,1.1,0.6,1.6s0.6,1,1,1.4c0.4,0.6,1.1,0.7,1.8,0.6s1.3-0.6,1.5-1.3c0.1-0.4,0.2-0.7,0.3-1.1s0.1-0.8,0.1-1.1 c0.1-3.1,0-6.2-0.3-9.2c-0.3-3-0.8-6.1-1.5-9.1c-0.2-1-0.4-2-0.8-3C650.7,330.5,650.1,329.5,649.1,328.7z M626.9,177.9 c2.2,0.8,4.3,1.5,6.6,1.8c2.2,0.3,4.5,0.3,6.8-0.2c0.6-0.1,1.3-0.3,1.8-0.7c0.5-0.4,0.9-0.9,1-1.7c-0.3-0.8-0.7-1.4-1.3-1.9 c-0.6-0.4-1.3-0.7-2.1-0.8c-1.8-0.2-3.6-0.4-5.4-0.6c-1.8-0.2-3.6-0.3-5.4-0.4c-0.3,0-0.7,0-1.1,0.2s-0.7,0.3-1,0.5 c-0.3,0.2-0.5,0.5-0.7,0.9c-0.2,0.3-0.3,0.7-0.3,1c0,0.3,0.1,0.7,0.3,1.1C626.4,177.5,626.6,177.8,626.9,177.9z M635.6,204 c-0.3,0-0.5,0-0.7,0c-0.2,0-0.4,0-0.6,0c-1.6,0.2-2.7,1-3.2,2c-0.5,1.1-0.4,2.4,0.6,3.8c0.7,0.9,1.5,1.6,2.4,2 c0.9,0.4,2,0.5,3.1,0.3c1.1-0.1,2.1-0.4,3-0.9c0.9-0.5,1.6-1.3,2-2.4c0.2-0.6,0.3-1.2,0.2-1.7c-0.1-0.5-0.5-1-1-1.4 c-0.9-0.7-1.8-1.2-2.8-1.4C637.6,204.1,636.6,204,635.6,204z M701.9,792.9c-0.6,0.5-1,1.2-1.1,1.9s0,1.6,0.3,2.3 c0.4,0.8,0.9,1.3,1.7,1.6s1.8,0.5,3.1,0.5c0.7-0.3,1.7-0.6,2.7-1.1c1-0.4,2.1-0.9,3.2-1.6c0.5-0.3,0.8-0.8,1.1-1.5 c0.3-0.6,0.4-1.4,0.4-1.9c0-0.7-0.4-1.3-0.9-1.7c-0.5-0.4-1.3-0.6-1.9-0.8c-1.6-0.4-3.1-0.3-4.5,0.1 C704.5,791.2,703.1,791.9,701.9,792.9z M551.7,349.2c5.2-0.6,10.5-1.3,15.7-1.8c5.2-0.5,10.5-0.9,15.8-1.1c0.6,0,1.1-0.1,1.7-0.2 s1.1-0.2,1.7-0.2c4.1,0,8.3-0.1,12.4-0.1s8.3,0,12.4,0c3.8,0.1,7.7,0.2,11.5,0.4c3.8,0.2,7.7,0.4,11.5,0.5c0.5,0,1-0.1,1.6-0.2 c0.6-0.1,1.2-0.3,2-0.4c-0.7-1.2-1.6-1.8-2.5-2.2s-1.8-0.5-2.7-0.6c-2.4-0.3-4.8-0.5-7.2-0.7s-4.8-0.4-7.2-0.6 c-1.3-0.1-2.7-0.2-4-0.2c-1.3-0.1-2.7-0.1-4-0.1c-2.6-0.1-5.2-0.2-7.8-0.4c-2.6-0.1-5.2-0.2-7.8,0c-4.7,0.2-9.4,0.5-14.1,0.9 c-4.7,0.4-9.4,0.8-14,1.2c-2.6,0.2-5.1,0.6-7.7,1s-5.1,0.9-7.7,1.3c-0.7,0.1-1.5,0.3-2.2,0.7s-1.3,1.1-1.7,2.2 c0.1,0.1,0.3,0.2,0.5,0.4s0.5,0.3,0.7,0.3c0.5,0,0.9,0,1.4,0C550.7,349.3,551.2,349.3,551.7,349.2z M699.4,782.6 c0.1,0.6,0.5,1.2,1,1.7c0.5,0.5,1.2,0.8,1.8,0.8c1.5-0.1,3-0.2,4.5-0.5s3-0.7,4.3-1.4c0.5-0.3,1-0.7,1.3-1.1s0.4-1,0.3-1.7 c-0.1-0.6-0.3-1.1-0.7-1.5c-0.4-0.4-0.9-0.6-1.5-0.8c-0.3-0.1-0.5-0.1-0.9-0.2c-0.3,0-0.7-0.1-1.2-0.2c-1,0.3-2.1,0.5-3.3,0.8 s-2.3,0.6-3.5,1c-0.7,0.2-1.3,0.7-1.7,1.3C699.5,781.4,699.3,782,699.4,782.6z M629.4,185.4c-1.5,0.9-2.2,2.4-2.2,3.9 c0,1.5,0.8,2.9,2.4,3.7c0.8,0.4,1.7,0.7,2.7,0.9c0.9,0.2,1.9,0.4,2.8,0.6c1.2-0.1,2.4-0.2,3.5-0.5c1.1-0.3,2.2-0.7,3.2-1.4 c1.2-0.7,1.9-1.7,2-2.7s-0.3-2-1.4-3c-1.4-1.4-3.8-2.3-6.3-2.5S631,184.4,629.4,185.4z M676.9,562.8c0-0.3,0-0.6,0-0.9 c0-0.2,0-0.4-0.1-0.5c-2.2-1.8-4.6-3.2-7.2-4.1c-2.6-0.9-5.3-1.4-8.1-1.4c-0.8,0-1.5,0.1-2.2,0.5s-1.3,0.8-1.8,1.4 c-0.7,0.9-1,2-0.8,3s0.8,1.9,1.8,2.4c0.3,0.2,0.7,0.3,1.1,0.4c0.4,0.1,0.7,0.2,1.1,0.2c2.3,0,4.6,0,6.9,0s4.6,0,6.9-0.1 c0.4,0,0.9-0.2,1.3-0.3C676.1,563.1,676.5,562.9,676.9,562.8z M624.8,404.2c-0.3,0-0.6,0.1-0.8,0.2s-0.5,0.2-0.8,0.3 c-0.6,0.3-0.9,1-1,1.6s0.2,1.4,0.7,1.8c0.3,0.2,0.6,0.4,1,0.6s0.7,0.3,1,0.3c3.1,0.2,6.1,0.3,9.2,0.5s6.1,0.3,9.2,0.3 c0.7,0,1.5-0.1,2.2-0.4s1.5-0.5,2.2-0.7c0.2-0.1,0.4-0.3,0.6-0.5c0.2-0.2,0.4-0.5,0.6-0.8c-0.8-1.1-1.8-1.9-2.9-2.4 c-1.1-0.5-2.3-0.8-3.5-1c-2.9-0.6-5.9-0.8-8.8-0.8C630.7,403.4,627.7,403.7,624.8,404.2z M532.9,951.9c0.1,0,0.1-0.1,0.2-0.3 c0.1-0.2,0.2-0.4,0.3-0.6c-0.5-0.2-0.9-0.4-1.3-0.5s-0.9-0.3-1.3-0.4c-5.3-0.6-10.7-1.3-16-1.9c-5.3-0.6-10.7-1.2-16-1.8 c-0.3,0-0.5,0-0.8,0.2s-0.7,0.3-1.2,0.4c0.3,0.4,0.4,0.8,0.6,1.1s0.4,0.6,0.7,0.7c0.4,0.2,0.8,0.4,1.3,0.5c0.5,0.1,0.9,0.2,1.4,0.3 c5.3,0.9,10.7,1.6,16,2S527.5,952.2,532.9,951.9z M665.2,526.5c-0.7-0.6-1.2-1-1.6-1.4c-0.4-0.3-0.7-0.5-1-0.7 c-1.6-0.6-3.2-1.3-4.8-1.9s-3.3-1.1-4.9-1.5c-3.3-0.7-6.6-1.3-9.9-1.8c-3.3-0.5-6.6-1-10-1.5c-2.6-0.4-5.1-0.7-7.7-1 c-2.6-0.3-5.2-0.5-7.8-0.6c-2.1-0.1-4.2,0-6.3,0.1s-4.2,0.4-6.3,0.6c-0.7,0.1-1.4,0.4-2.1,0.8c-0.7,0.4-1.3,0.8-2,1.2 c-0.2,0.1-0.3,0.4-0.3,0.7c-0.1,0.3-0.1,0.6,0,0.9c0.1,0.2,0.3,0.5,0.5,0.7c0.2,0.2,0.5,0.3,0.7,0.3c0.7,0,1.3,0,2-0.1 s1.3-0.1,2-0.1c2.4,0,4.8-0.1,7.2-0.1s4.8,0.1,7.2,0.4c5.5,0.7,11,1.5,16.5,2.4c5.5,0.9,11,1.8,16.5,2.6c1.8,0.3,3.6,0.5,5.5,0.6 C660.7,527.3,662.8,527.1,665.2,526.5z M648.1,456.7c-0.9-0.5-1.8-1-2.8-1.5c-0.9-0.5-1.9-0.9-2.9-1.2c-2.7-0.8-5.4-1.2-8.2-1.3 c-2.8-0.2-5.5-0.2-8.3-0.2c-0.4,0-0.8,0-1.2,0.1c-0.4,0.1-0.8,0.2-1,0.4c-0.4,0.2-0.8,0.5-1.1,0.9c-0.3,0.3-0.6,0.7-0.7,1.1 c-0.1,0.4,0,0.9,0.2,1.3c0.2,0.5,0.5,0.9,0.8,1.1c0.5,0.4,1.1,0.7,1.7,1s1.3,0.5,1.9,0.6c2.4,0.4,4.9,0.7,7.4,1.1 c2.5,0.3,4.9,0.6,7.4,0.9c1.3,0.1,2.7,0.1,4-0.3s2.8-0.9,4.3-1.9c-0.3-0.5-0.6-0.9-0.8-1.3S648.4,456.8,648.1,456.7z M644.5,414.1 c-1.2-0.4-2.4-0.7-3.6-0.7c-1.2-0.1-2.5,0.1-3.7,0.4c-0.9,0.2-1.6,0.6-2.2,1.2s-1,1.4-1.2,2.3c-0.2,1-0.1,1.9,0.2,2.8s1,1.6,1.9,2.1 c1.2,0.7,2.4,1.2,3.7,1.4s2.6,0.1,4-0.2c1.3-0.3,2.6-0.7,3.7-1.3s2-1.6,2.5-3c-0.4-1.4-1.1-2.4-2-3.2 C646.8,415.1,645.7,414.6,644.5,414.1z M668.3,543.1c-0.2-0.3-0.3-0.6-0.4-0.8c-0.1-0.2-0.2-0.4-0.3-0.4c-3.3-1.7-6.7-3-10.2-3.8 c-3.5-0.9-7.1-1.3-10.8-1.4c-0.5,0-1,0-1.5,0c-0.5,0.1-0.9,0.2-1.3,0.4c-0.4,0.2-0.8,0.5-1.1,0.9c-0.3,0.4-0.5,0.8-0.6,1.1 c0,0.4,0.2,0.8,0.4,1.2c0.3,0.4,0.6,0.8,0.9,1.1c0.2,0.2,0.4,0.3,0.7,0.4s0.6,0.1,0.9,0.2c3.4,0.3,6.8,0.7,10.3,1s6.9,0.6,10.3,0.9 c0.4,0,0.8-0.1,1.3-0.2C667.3,543.5,667.8,543.3,668.3,543.1z M683.8,625.4c-0.9-0.2-1.8-0.1-2.5,0.3s-1.3,1-1.7,1.9 c-0.3,0.7-0.3,1.6,0.1,2.3c0.3,0.8,1,1.4,1.9,2c0.1,0,0.2,0.1,0.3,0.1c0.1,0,0.2,0.1,0.3,0.1c2.6,0.9,5.3,1.6,8,2.1 c2.7,0.4,5.6,0.5,8.5,0c-0.1-0.5-0.2-0.9-0.3-1.2s-0.1-0.4-0.2-0.5c-2.2-1.5-4.5-3-6.8-4.2C688.9,627,686.4,626,683.8,625.4z M702.7,549.8c-0.4,0.4-0.8,0.8-1.1,1.2c-0.3,0.4-0.6,0.7-0.6,1c0,0.7,0,1.5,0.2,2.3s0.3,1.5,0.6,2.2c0.7,1.8,1.5,3.5,2.3,5.3 s1.7,3.5,2.6,5.2c0.6,1.1,1.3,2.1,2,3.2s1.5,2,2.2,3c0.2,0.3,0.5,0.4,0.8,0.6c0.3,0.2,0.7,0.3,1,0.5c0.5-2.1,0.7-3.4,0.6-4.9 s-0.6-3-1.5-5.4c-1-2.6-2-5.2-3.4-7.6S705.2,551.6,702.7,549.8z M706.5,581.1c-1.8-6-4.1-11.8-6.6-17.5c-2.5-5.7-5.3-11.3-8.1-16.8 c-0.4-0.8-1-1.6-1.6-2.4s-1.2-1.5-1.9-2.2c-0.5-0.6-1.2-0.8-1.8-0.8s-1.3,0.2-1.8,0.7c-0.5,0.5-0.7,1-0.7,1.5c0,0.5,0.2,1.1,0.5,1.6 c0.6,1.1,1.3,2.1,2,3.2s1.3,2.1,1.8,3.3c2.1,4.7,4.1,9.5,6.1,14.3c2,4.8,4,9.5,6,14.3c0.9,2,1.7,4.1,2.6,6.1s1.7,4.1,2.6,6.1 c0.2,0.5,0.5,1,0.8,1.5c0.3,0.5,0.6,1,0.9,1.4c0.2,0,0.3-0.1,0.5-0.1c0.2,0,0.3-0.1,0.5-0.1c0.1-0.5,0.2-0.9,0.2-1.4 s0.1-0.9,0.1-1.3c-0.3-1.9-0.5-3.8-0.8-5.7C707.4,584.8,707.1,582.9,706.5,581.1z M685.9,590.5c0.1,0,0.3-0.1,0.4-0.2 s0.3-0.3,0.5-0.4c-0.1-0.1-0.1-0.3-0.2-0.5c-0.1-0.2-0.1-0.3-0.3-0.4c-2.4-1.3-4.8-2.3-7.3-3.2s-5.1-1.7-7.6-2.4 c-0.3-0.1-0.7-0.1-1.1-0.1s-0.8,0.1-1.1,0.2c-0.2,0.1-0.5,0.2-0.7,0.5s-0.4,0.5-0.4,0.7c-0.1,0.2-0.1,0.5,0,0.8s0.2,0.6,0.3,0.8 c0.1,0.2,0.3,0.4,0.6,0.6s0.5,0.3,0.7,0.4c2.6,0.8,5.3,1.6,8,2.2C680.4,590.1,683.2,590.5,685.9,590.5z M748,806.3 c0-2.4-0.2-4.8-0.3-7.2s-0.2-4.8,0.1-7.2c0.5-5.2,0.7-10.4,0.8-15.6s0-10.4-0.1-15.6c-0.2-4.9-0.4-9.8-0.6-14.7s-0.4-9.8-0.4-14.7 c-0.1-7.9,0-15.8,0-23.7c0-7.9,0.1-15.8,0.1-23.7c0-5,0-10,0-15s-0.1-10-0.1-15c-0.1-7.1-0.3-14.2-0.7-21.4 c-0.4-7.1-1-14.2-1.7-21.3c-0.3-2.6-0.7-5.1-1.1-7.7s-0.8-5.1-1.2-7.7c-0.6-4-1.3-8-2.2-11.9s-2.1-7.8-3.4-11.6 c-0.8-2.4-1.7-4.7-2.5-7.1s-1.6-4.7-2.4-7.1c-1.3-4.2-3.1-8.1-5.1-11.9s-4.4-7.4-6.9-11c-1.1-1.5-2.1-3-3.1-4.5c-1-1.5-2-3-3.1-4.5 c-0.9-1.2-1.8-2.5-2.7-3.7c-0.9-1.2-1.9-2.4-3-3.5c-2.1-2.1-4.2-4.2-6.3-6.2c-2.1-2-4.2-4-6.3-6c0.4-3.3,0.9-6.5,1.4-9.6 c0.4-3.2,0.9-6.3,1.2-9.4c0.3-2.5,0.3-5,0.4-7.5c0.1-2.5,0.1-5,0.5-7.5c1-7.6,1.4-15.2,1.5-22.8c0.1-7.6-0.2-15.2-0.5-22.8 c-0.3-7.1-0.9-14.2-1.6-21.3s-1.8-14.1-3.1-21.1c-0.6-3.4-1.4-6.8-2.1-10.2s-1.4-6.8-1.9-10.2c-0.7-4.2-1.5-8.3-2.4-12.5 s-2-8.2-3.2-12.3c-0.4-1.5-0.8-3-1.1-4.5c-0.3-1.5-0.6-3-0.8-4.6c-0.6-4.2-1.1-8.4-1.6-12.6s-1-8.4-1.5-12.6 c-0.5-3.8-1-7.6-1.5-11.5c-0.5-3.8-0.9-7.7-1-11.5c-0.2-6.8-0.9-13.5-1.7-20.1c-0.8-6.7-1.7-13.3-2.5-20c-0.4-3.2-0.7-6.3-1-9.5 c-0.3-3.2-0.6-6.3-0.9-9.5c-0.1-1.4-0.2-2.9-0.3-4.3s-0.2-2.9-0.4-4.3c-0.6-4.8-1.3-9.5-1.9-14.3s-1.2-9.5-1.4-14.4 c-0.4-6.9-1-13.8-1.7-20.7c-0.7-6.9-1.4-13.8-2-20.7c-0.1-1.4-0.3-2.9-0.3-4.3c0-1.4,0-2.8,0.3-4.3c1-0.4,2-0.7,2.9-1s1.8-0.7,2.7-1 c1.4-0.6,2.6-1.5,3.5-2.5s1.5-2.4,1.7-3.9c0.5-3,0.7-5.9,0.7-8.9c-0.1-3-0.5-5.9-1.5-8.8c-0.6-1.8-1.4-3.4-2.6-4.7s-2.7-2.2-4.7-2.7 c-0.5-0.1-0.9-0.3-1.4-0.4s-0.9-0.4-1.5-0.5c0-0.6,0-1.1,0-1.6c0-0.5,0-1,0-1.4c0-0.4,0.1-0.7,0.2-1.1s0.2-0.7,0.2-1.1 c0.6-0.2,1.1-0.5,1.7-0.7c0.5-0.2,1.1-0.5,1.6-0.7c2.7-1,4.8-2.6,6.2-4.5s2.2-4.4,2.3-7.3c0-1,0.1-1.9,0.2-2.9s0.2-1.9,0.4-2.9 c0.6-3.2,0.6-6.2,0-9.2c-0.5-3-1.5-5.9-2.9-8.7c-1.2-2.5-2.7-4.5-4.6-5.8s-4.2-2.1-7-2.4c-0.8-0.1-1.5-0.1-2.3-0.2s-1.5-0.1-2.3-0.1 c-1.6-0.1-3.3-0.1-4.9-0.2c-1.6-0.1-3.3-0.1-4.9-0.2c-3.8-0.2-7.7-0.4-11.5-0.4s-7.7,0-11.5,0.3c-2,0.2-4,0.2-6.1,0.3 c-2,0-4,0.1-6.1,0.2c-2.8,0.1-5.6,0.2-8.4,0.4s-5.6,0.3-8.4,0.5c-6.3,0.4-12.7,0.8-19,1.3s-12.7,0.9-19,1.3c-1.3,0.1-2.7,0.1-4,0.1 c-1.3,0-2.7,0.1-4,0.3c-3.2,0.4-6.4,1-9.1,2.3s-5,3.4-6.5,6.8c-0.1,0.3-0.4,0.7-0.6,1s-0.5,0.6-0.7,0.9c-0.6,0.9-1.1,1.9-1.4,2.9 s-0.4,2-0.3,3.1c0.1,1.3,0.2,2.7,0.4,4c0.1,1.3,0.3,2.7,0.5,4c0.4,3.2,1.6,5.6,3.5,7.3c1.9,1.7,4.5,2.6,7.7,2.6c0.6,0,1.1,0,1.7,0 s1.2,0,1.9,0c0.2,2.3,0.4,4.5,0.6,6.8c0.2,2.3,0.4,4.6,0.6,7c-0.7,0.2-1.3,0.3-1.9,0.4c-0.6,0.1-1.1,0.2-1.7,0.3 c-1.4,0.3-2.6,0.7-3.8,1.3c-1.2,0.6-2.2,1.4-3.2,2.4c-1.8,1.9-3.2,3.9-4.3,6.2s-1.7,4.7-1.9,7.2c-0.1,0.8-0.1,1.7,0.1,2.6 s0.4,1.7,0.8,2.4c1.3,2.4,2.8,4.7,4.7,6.4c1.9,1.8,4.3,3,7.2,3.6c1.6,0.3,3.2,0.6,4.8,1s3.2,0.7,4.8,1.1c0.3,1.4,0.4,2.8,0.4,4.1 s-0.2,2.7-0.4,4c-0.7,4.4-1.3,8.8-2,13.1s-1.4,8.7-2.3,13.1c-1.3,6.7-2.7,13.4-4.1,20.1s-2.9,13.4-4.3,20c-0.4,1.7-0.7,3.4-1.1,5.1 s-0.7,3.4-1,5.1c-0.6,3.1-1.1,6.2-1.7,9.4s-1.1,6.3-1.7,9.4c-0.5,2.6-1,5.1-1.5,7.6s-1.1,5.1-1.6,7.6c-0.3,1.4-0.6,2.8-0.9,4.2 s-0.6,2.8-1,4.2c-1.3,5.2-2.6,10.4-4,15.7s-2.6,10.4-3.8,15.7c-1.1,4.7-2,9.4-3,14.1s-1.9,9.4-2.9,14.1c-1.4,6.7-2.6,13.4-3.9,20.1 s-2.6,13.4-4.2,20.1c-1.7,7.3-2.9,14.7-3.7,22.2c-0.8,7.5-1.4,15-1.9,22.5c-0.3,4.7-0.6,9.4-0.8,14.1c-0.2,4.7-0.5,9.4-0.8,14.1 c-0.7,10.4-0.7,20.8-0.1,31.2c0.6,10.3,1.8,20.7,3.7,30.9c0.3,1.4,0.4,2.7,0.3,4c0,1.3-0.3,2.6-0.8,3.9c-0.3,0.8-0.5,1.6-0.8,2.5 c-0.2,0.8-0.5,1.7-0.7,2.5c-0.6,1.9-1.3,3.6-2.3,5.2s-2,3.2-3.3,4.7c-2.1,2.6-4.3,5.2-6.3,7.9c-2,2.7-3.9,5.5-5.6,8.4 c-3.2,5.5-6.3,11-9.2,16.7s-5.6,11.4-8,17.3c-0.4,1.1-0.8,2.1-1.2,3.2c-0.4,1.1-0.7,2.2-1,3.3c-0.5,1.8-1,3.7-1.5,5.6 c-0.5,1.9-1,3.7-1.6,5.5c-2.8,8.2-4.9,16.5-6.4,24.9c-1.5,8.4-2.3,16.9-2.7,25.5c-0.3,8.6-0.6,17.1-0.9,25.7 c-0.3,8.6-0.6,17.1-0.9,25.7c0,1.1-0.1,2.1-0.2,3.2c-0.1,1.1-0.2,2.1-0.3,3.2c-0.5,3.7-0.7,7.5-0.8,11.2c-0.1,3.8,0.1,7.5,0.4,11.2 c0.6,6.2,0.8,12.5,0.9,18.7c0.1,6.3,0.1,12.5,0,18.8c0,1.9,0,3.8,0,5.8c0,1.9,0.1,3.8,0.2,5.8c0.3,7.4,0.7,14.8,1,22.2 c0.3,7.4,0.6,14.8,0.8,22.2c0.2,11.1,0.4,22.1,0.4,33.2c0.1,11.1,0.1,22.1-0.1,33.2c-0.2,12.9-0.1,25.8,0.3,38.7 c0.4,12.9,1,25.8,1.9,38.6c0.1,2.1,0.3,4.2,0.5,6.3s0.3,4.2,0.5,6.3c0.6,7.4,0.9,14.8,1,22.2c0.1,7.4,0,14.8-0.1,22.2 c0,1.4,0,2.9,0,4.3c0,1.4,0.1,2.9,0.3,4.3c0.5,5.7,1.1,11.3,1.6,16.9c0.6,5.6,1.1,11.3,1.6,16.9c0.7,7.1,1.7,14.2,3,21.2 s2.9,13.9,4.7,20.8c2.6,9.9,6.9,18,13.2,24.3c6.2,6.2,14.4,10.6,24.5,12.9c0.6,0.1,1.1,0.3,1.7,0.5s1.1,0.3,1.7,0.5 c4.4,1.2,8.7,2.3,13.2,3.2s8.9,1.5,13.4,1.7c2.1,0.1,4.2,0.2,6.3,0.4s4.2,0.4,6.3,0.8c3,0.6,6.1,1,9.1,1.4c3,0.4,6.1,0.6,9.2,0.8 c3,0.2,5.9,0.4,8.9,0.7c3,0.3,5.9,0.6,8.9,0.8c3.6,0.3,7.3,0.5,10.9,0.8c3.6,0.2,7.3,0.5,10.9,0.7c1.6,0.1,3.3,0.2,4.9,0.2 c1.6,0,3.3,0.1,4.9,0.1c1.9,0,3.8,0.1,5.8,0.1c1.9,0,3.8,0,5.8-0.1c5.2-0.3,10.4-0.7,15.6-0.9s10.4-0.3,15.6,0.2 c0.8,0.1,1.5,0.1,2.3,0c0.8,0,1.5-0.1,2.3-0.1c2.9-0.1,5.8-0.2,8.7-0.3s5.8-0.2,8.7-0.2c2,0,4-0.1,6-0.4s4-0.6,5.9-1.1 c1.5-0.4,3-0.7,4.5-1c1.5-0.3,3-0.6,4.5-1c2.3-0.5,4.7-1,7-1.8c2.3-0.7,4.4-1.7,6.4-3.2c2.6-1.9,5-4,7.2-6.2s4.1-4.8,5.6-7.7 c2.4-4.6,4.6-9.3,6.5-14.1s3.6-9.7,4.9-14.8c0.5-1.7,0.9-3.5,1.2-5.3c0.3-1.8,0.5-3.6,0.6-5.4c0.2-2.7,0.2-5.4,0.3-8.1 c0-2.7,0-5.4-0.1-8.1c-0.1-5.6-0.3-11.2-0.5-16.7s-0.4-11.2-0.6-16.7c0-1.3-0.1-2.7-0.2-4c-0.1-1.3-0.1-2.7-0.2-4 c0-1.9,0-3.8,0.1-5.8c0-1.9,0.1-3.8,0.1-5.8c0-6.5,0.1-13.1,0.1-19.6s0.1-13.1,0.2-19.6c0.1-5.6,0.3-11.2,0.4-16.7 s0.4-11.2,0.5-16.7c0.1-2.2,0.1-4.4,0.2-6.6s0.4-4.4,1-6.6c0.2-0.7,0.3-1.5,0.3-2.3c0-0.8,0-1.6,0-2.3c-0.3-8,0-16,0.4-24 s0.9-16,1.2-23.9c0.4-9.7,0.7-19.4,0.9-29.1s0.2-19.4,0-29.2c0-1.2,0-2.3,0-3.5c0-1.2,0.1-2.3,0.1-3.5c0-1.2,0.1-2.5,0.2-3.7 S748,807.5,748,806.3z M542.1,84.1c-1.2-0.2-2.2-0.7-3.1-1.4s-1.5-1.7-2-2.9c-1.4-3.5-1-7.5,0.8-10.8c1.8-3.3,4.8-5.9,8.6-6.7 c1.5-0.3,3-0.5,4.6-0.7s3.1-0.3,4.6-0.3c6.4,0,12.7-0.3,19-0.8s12.6-1,19-1.4c11-0.8,22.1-1.3,33.1-1.4s22.1,0.1,33.1,1 c1.2,0.1,2.5,0,3.7,0.3c1.2,0.3,2.2,0.8,3,2.2c1.6,2.5,2.7,5.2,3.2,7.9s0.5,5.6,0,8.6c-0.2,0.9-0.3,1.9-0.4,2.8s-0.2,1.9-0.2,2.9 c-0.1,1.2-0.3,2.2-0.9,3.1c-0.6,0.8-1.4,1.4-2.5,1.7c-2.9,0.8-5.7,1.4-8.4,1.2s-5.4-1.2-7.8-3.4c-0.7-0.6-1.4-1.3-2.1-2 c-0.7-0.7-1.4-1.3-2.2-1.9c-2.5-2-4.6-3-6.7-3.1s-4.3,0.6-7,2.2c-1.2,0.7-2.5,1.5-3.7,2.2c-1.2,0.7-2.5,1.4-3.8,2.1 c-1.3,0.6-2.6,1.2-4,1.6c-1.4,0.4-2.8,0.7-4.3,0.7c-2.1,0-4.1-0.2-5.9-0.8s-3.5-1.7-4.9-3.5c-0.4-0.4-0.7-0.9-1.2-1.3 c-0.4-0.4-0.9-0.8-1.3-1.1c-1.6-1.1-3.3-1.9-5-2.1s-3.5,0-5.3,1c-1.3,0.8-2.6,1.6-3.9,2.4c-1.3,0.8-2.5,1.7-3.8,2.6 c-2.1,1.5-4.3,2.3-6.6,2.7s-4.7,0.1-7.1-0.7c-0.8-0.2-1.4-0.5-2.1-0.9c-0.6-0.4-1.2-0.9-1.7-1.5c-2.4-2.7-4.3-4.3-6.5-4.8 s-4.7-0.1-8.2,1.1c-0.3,0.1-0.5,0.2-0.8,0.2c-0.3,0.1-0.6,0.1-0.8,0.2c-1,1.5-2.3,2.3-3.7,2.7S543.6,84.3,542.1,84.1z M660.4,96.8 c-0.2,1-0.3,2-0.4,3s-0.3,2-0.4,3c-0.8,0-1.5,0.1-2.2,0.1s-1.3,0.1-2,0c-14-0.9-28.1-1.1-42.1-1.2c-14,0-28.1,0.1-42.1-0.1 c-2.3,0-4.6,0.1-6.9,0.3s-4.6,0.4-6.9,0.6c-0.6,0-1.1,0-1.8,0s-1.4,0-2.3,0c-0.3-2.4-0.7-4.7-1-6.9c-0.3-2.2-0.6-4.3-0.9-6.4 c1.8-1.3,2.7-1.9,3.8-2.3c1.1-0.4,2.3-0.6,4.9-0.9c0.2,0.1,0.4,0.2,0.5,0.3c0.2,0.1,0.3,0.2,0.4,0.3c1,2.1,2.5,3.6,4.2,4.7 c1.7,1,3.8,1.7,5.9,2c3,0.5,5.8,0.6,8.6,0.1s5.4-1.5,7.9-3.3c0.9-0.7,1.9-1.3,2.9-2c1-0.6,2-1.2,3-1.8c1.4-0.8,2.4-1.1,3.3-0.9 c0.9,0.1,1.7,0.8,2.8,1.9c0.4,0.4,0.8,0.8,1.2,1.3c0.4,0.4,0.8,0.9,1.2,1.3c1.1,1.1,2.4,2,3.7,2.6s2.8,1.1,4.4,1.3 c2.9,0.5,5.8,0.5,8.6,0.1s5.6-1.2,8.2-2.5c1.2-0.6,2.4-1.2,3.7-1.7c1.2-0.6,2.4-1.2,3.6-1.8c1.7-0.9,3.2-1.4,4.7-1.2 s2.8,0.9,4.1,2.5c0.3,0.4,0.7,0.7,1,1c0.4,0.3,0.7,0.6,1.1,1c1.7,1.6,3.4,2.9,5.4,3.8c2,0.9,4.1,1.4,6.5,1.3c0.6,0,1.1,0.1,1.7,0.2 C659,96.5,659.7,96.6,660.4,96.8z M545,127.8c-1.2-0.3-2.3-1-3.1-1.9c-0.9-0.9-1.6-2-2.2-3.1c-0.1-0.2-0.1-0.3-0.2-0.5 c0-0.2-0.1-0.4-0.1-0.6c-0.2-2.3,0.7-4.8,2.3-6.8s3.7-3.6,6.1-4.1c4.2-0.9,8.5-1.5,12.8-2s8.6-0.7,12.9-0.8c2-0.1,4-0.1,6-0.1 s4,0,6,0c0.4,0,0.9,0.1,1.3,0.3c0.4,0.1,0.9,0.3,1.3,0.4c0.1,0,0.2,0,0.3-0.1c0.1,0,0.2,0,0.3,0c9.1-0.1,18.2-0.3,27.4-0.4 c9.1-0.1,18.2-0.3,27.4-0.3c3.3,0,6.5,0.1,9.8,0.3s6.5,0.4,9.8,0.5c0.8,0,1.4,0.2,1.9,0.5c0.5,0.3,0.9,0.8,1.2,1.5 c1,2.3,1.5,4.6,1.5,7s-0.4,4.7-1.4,7c-0.3,0.7-0.7,1.2-1.2,1.6c-0.5,0.4-1.1,0.6-1.8,0.8c-0.2,0-0.4,0.1-0.6,0.1s-0.4,0-0.6,0.1 c-3,0.2-5.9,0.4-8.9,0.6s-5.9,0.4-8.9,0.4c-7.1,0.1-14.2,0.1-21.3,0.1s-14.2,0-21.3,0c-0.3,0-0.6,0-0.9-0.1c-0.3,0-0.6-0.1-0.9-0.1 c-0.7,0.1-1.4,0.1-2.1,0.2s-1.4,0.1-2.1,0.2c-0.3,0.1-0.5,0.2-0.8,0.3s-0.5,0.2-0.8,0.2c-3.5,0.1-7.1,0.2-10.6,0.3 s-7.1,0.2-10.6,0.2c-3.1,0-6.1,0.1-9.2,0.1s-6.1,0-9.2-0.1c-1.6-0.1-3.2-0.2-4.8-0.5C548.1,128.6,546.5,128.3,545,127.8z M545.6,226.9c0.7-4.1,1.5-8.1,2.3-12.2c0.8-4.1,1.5-8.1,2.2-12.2c0.9-5.1,1.8-10.2,2.7-15.3s1.7-10.2,2.4-15.4 c0.7-5.2,1.2-10.5,1.8-15.8c0.5-5.3,1-10.5,1.5-15.8c0-0.3,0.1-0.5,0.3-0.8s0.3-0.5,0.4-0.8c0.2-0.1,0.3-0.3,0.5-0.4 c0.2-0.1,0.3-0.2,0.5-0.2c6.8-0.2,13.6-0.5,20.4-0.7s13.6-0.4,20.4-0.6c5-0.1,10-0.1,15-0.2s10,0,15,0c3.2,0,6.3,0,9.5,0 s6.4,0,9.8,0c0.4,2,0.6,4,0.8,6c0.1,2,0.2,4,0.1,6c0.4,4.6,0.8,9.2,1.3,13.8s0.9,9.2,1.3,13.7c0.6,6.2,1,12.4,1.6,18.6 s1.2,12.4,2.4,18.5c0.4,2,0.5,4,0.6,6s0.1,4,0.2,6c0.4,1,0.6,2,0.6,3.1c0.1,1.1,0,2.2-0.1,3.3c-1.1,0.3-2.2,0.2-3.2,0.1 c-1-0.2-2.1-0.4-3.1-0.5c-1,0-1.9-0.1-2.9-0.2c-1-0.1-1.9-0.2-2.9-0.4c-7.2-1.3-14.5-2.1-21.8-2.6c-7.3-0.4-14.6-0.4-21.9,0.1 c-2.3,0.1-4.6,0.2-6.9,0.3c-2.3,0.1-4.6,0.1-6.9,0.2c-7,0.2-14,0.6-21,1.5c-6.9,0.9-13.8,2.1-20.6,4.2c-0.3,0.1-0.7,0.1-1.1,0.1 c-0.4,0-0.8,0-1.3,0c-0.3-1.3-0.3-2.6-0.2-3.9S545.4,228.1,545.6,226.9z M527.4,335.9c0.7-4.2,1.3-8.4,2-12.5 c0.7-4.2,1.3-8.4,2-12.5c1-6,2.1-11.9,3.2-17.9c1.1-6,2.2-11.9,3.3-17.9c0.2-1.3,0.5-2.6,0.8-3.9c0.3-1.3,0.6-2.6,0.9-3.9 c0.5-2.1,0.9-4.1,1.3-6.2s0.6-4.2,0.7-6.3c0.1-2.6,0.6-5.1,1.1-7.7s1.2-5,1.6-7.6c4.9-0.9,9.7-2,14.4-2.8s9.5-1.3,14.4-1.3 c1.1,0,2.3-0.1,3.4-0.2s2.3-0.2,3.5-0.3c1.7-0.1,3.5-0.1,5.2-0.2c1.7,0,3.5-0.1,5.2,0c2.9,0.1,5.8,0.3,8.6,0.4s5.8,0.3,8.6,0.3 c6,0,11.9,0.4,17.8,1.1c5.9,0.7,11.8,1.8,17.6,3.1c2.3,0.5,4.7,1,7,1.5c2.4,0.5,4.7,1,7.1,1.4c1,0.2,1.7,0.5,2.3,1 c0.6,0.5,1,1.2,1.1,2.3c0.2,1,0.3,2.1,0.5,3.1c0.2,1,0.4,2.1,0.5,3.1c0.3,2.6,0.7,5.1,1,7.7c0.3,2.6,0.6,5.1,1,7.7 c0.1,0.8,0.2,1.5,0.2,2.3c0.1,0.8,0.1,1.5,0.1,2.3c0.2,5.8,0.6,11.5,1.2,17.3s1.3,11.5,2,17.2c0.7,5.8,1.4,11.6,2,17.5 c0.6,5.8,1.2,11.7,1.9,17.5c0.4,3.8,0.9,7.6,1.3,11.5c0.4,3.9,0.9,7.8,1.3,11.8c-0.7,0-1.3,0.1-1.9,0.2c-0.6,0.1-1.1,0.1-1.6,0 c-6.2-1.1-12.4-1.9-18.6-2.5s-12.5-0.9-18.7-1c-1.8,0-3.6-0.2-5.5-0.4c-1.8-0.2-3.6-0.4-5.5-0.4c-11.7,0-23.5,0-35.2,0 c-11.7,0-23.5,0-35.2,0.1c-4.3,0.7-8.6,0.7-12.9,0.8s-8.7,0.2-12.9,1c-0.3,0.1-0.7,0-1-0.1c-0.3-0.1-0.7-0.2-1-0.2 c-0.1-0.3-0.2-0.6-0.3-0.8s-0.1-0.4-0.1-0.6c0.7-4.2,1.3-8.3,2-12.5S526.7,340.1,527.4,335.9z M467.3,780.6c0-1.6,0-3.3,0.3-4.9 s0.6-3.2,1.2-4.7c2-5.3,4-10.6,6-15.9c2-5.3,4.1-10.6,6.2-15.8c1.4-3.4,3.2-6.6,5.1-9.7s4.1-6.1,6.1-9.2c4.3-6.6,9-12.8,14-18.7 s10.5-11.5,16.3-16.8c4.8-4.4,9.8-8.4,15.1-12s10.9-6.8,16.7-9.7c4.1-2,8.4-3.4,12.8-4.5c4.4-1.1,8.8-1.8,13.3-2.6 c5.5-0.9,10.9-1.3,16.4-1.4s11,0,16.4,0.3c6,0.3,11.9,1,17.7,2.1s11.6,2.7,17.2,4.9c2.3,0.9,4.7,1.8,7,2.7c2.3,0.9,4.7,1.8,7,2.7 c5.3,2,10.2,4.6,14.9,7.6c4.7,3,9,6.5,13.1,10.3c1.6,1.5,3,3.2,4.4,4.9s2.7,3.5,3.9,5.4c3.1,4.7,5.9,9.5,8.2,14.5s4.4,10.2,6.1,15.6 c1.2,3.7,2.7,7.4,4.2,11.1s3.1,7.3,4.6,10.9c1.2,2.9,2.4,5.9,3.6,8.8c1.2,2.9,2.5,5.8,3.7,8.8c1.4,3.2,2.3,6.5,3,9.9 c0.7,3.4,1.2,6.8,1.6,10.2c0.5,3.6,0.7,7.1,0.8,10.7s0,7.1-0.1,10.6c-0.3,5.6-0.3,7.9-1.4,9c-1.1,1.1-3.3,1.1-7.9,2.1 c-3.6,0.8-7.2,1.4-10.8,1.9s-7.2,1-10.8,1.6c-3.5,0.6-7,1.1-10.5,1.6s-7.1,0.7-10.6,0.9c-1.3,0-2.7,0.2-4,0.4s-2.7,0.5-4,0.7 c-5,0.8-9.9,1.2-14.9,1.5c-5,0.3-10,0.6-15,1c-8.3,0.7-16.5,0.9-24.8,1c-8.3,0-16.5-0.2-24.8-0.3c-3.2-0.1-6.3-0.2-9.5-0.4 c-3.2-0.2-6.3-0.3-9.5-0.4c-4-0.1-8.1,0-12.1,0c-4,0-8.1,0-12.1-0.1c-3.6-0.1-7.3-0.3-10.9-0.6c-3.6-0.3-7.3-0.6-10.9-0.8 c-0.6,0-1.2-0.2-1.9-0.5c-0.7-0.2-1.3-0.5-2.1-0.7c0.4-4,0.7-8,1-12c0.3-3.9,0.7-7.8,1.1-11.7c0.4-3.8,1-7.5,1.5-11.3 s1-7.5,1.3-11.3c-0.8-0.3-1.4-0.2-1.7,0c-0.4,0.3-0.6,0.7-0.8,1.1c-1.1,2.4-2,4.8-2.6,7.3s-1,5.1-1.3,7.7c-0.4,4.6-0.8,9.2-1.3,13.8 s-0.8,9.2-1.3,13.8c0,0.4-0.1,0.7-0.3,1.1c-0.1,0.3-0.3,0.7-0.4,0.9c-0.9,0.5-1.8,0.7-2.7,0.6s-1.7-0.3-2.5-0.8 c-2.8-0.4-5.5-0.7-8.3-1.1s-5.5-0.7-8.2-1.1c-0.5-1.4-0.6-2.7-0.6-4c0-1.3,0.2-2.5,0.3-3.7c0.3-4.2,0.6-8.4,0.9-12.7 c0.3-4.2,0.7-8.4,1.1-12.7c0.3-2.7,0.6-5.4,1-8c0.4-2.7,0.7-5.3,1.1-8c0.9-7.1,2.2-14.1,3.8-21s3.5-13.8,5.8-20.5 c1.2-3.6,2.6-7.3,3.9-10.9s2.7-7.2,4-10.8c0.2-0.6,0.5-1.2,0.6-1.9c0.1-0.6,0-1.2-0.7-1.9c-0.7,0.1-1.3,0.4-1.9,0.7s-1,0.9-1.3,1.5 c-0.4,0.8-0.9,1.5-1.3,2.3s-0.8,1.5-1.1,2.3c-2.1,5.6-4.3,11.1-6.4,16.7c-2.1,5.6-4,11.2-5.5,17c-0.5,2-1.1,3.9-1.7,5.8 c-0.6,1.9-1.2,3.9-1.7,5.8c-0.6,2.7-1.2,5.4-1.7,8.2s-1,5.5-1.6,8.2c-0.9,4.5-1.7,9.1-2.3,13.6s-1.1,9.1-1.4,13.8 c-0.2,2.6-0.5,5.2-0.8,7.7s-0.7,5.1-1,7.7c-0.1,0.5-0.2,0.9-0.3,1.4c-0.1,0.5-0.3,1-0.5,1.7c-3.6-0.7-7.1-1.3-10.6-2 c-3.5-0.7-7-1.3-10.6-2c-0.5-1.8-0.8-3.6-1-5.5c-0.2-1.8-0.3-3.6-0.4-5.4c-0.1-4.1-0.2-8.3-0.2-12.4 C467.4,788.9,467.4,784.7,467.3,780.6z M468.9,823.1c0.4-0.1,0.8-0.2,1.1-0.3c0.3-0.1,0.6-0.1,0.8-0.1c2.8,0.6,5.6,1.2,8.4,1.8 s5.6,1.3,8.4,1.9c0.4,0.1,0.9,0.3,1.3,0.6s0.9,0.5,1.5,0.8c0,1.1,0.1,2.3,0.1,3.4s0,2.3-0.1,3.4c-0.5,4.8-0.7,9.6-0.7,14.4 c0,4.8,0,9.6,0,14.4c0,3.3,0,6.5,0.1,9.8c0.1,3.3,0.4,6.5,0.8,9.8c0.1,1.2,0.3,2.3,0.6,3.4c0.3,1.1,0.7,2.1,1.4,3.1 c0.3,0.4,0.7,0.8,1.1,1.2s0.9,0.8,1.4,1.3c0.6-0.5,1.2-1,1.7-1.4s1-0.9,1.5-1.3c0-1.8,0.1-3.6,0.2-5.5s0.1-3.6,0-5.4 c-0.5-7.7-0.5-15.5-0.5-23.2c0.1-7.7,0.3-15.5,0.5-23.2c0-0.5,0.1-1.1,0.2-1.7c0.1-0.6,0.3-1.2,0.4-1.8c3,0.4,5.8,0.7,8.7,1.2 c2.8,0.5,5.6,1.1,8.3,2c0.3,0,0.6,0,0.9,0s0.6,0,0.8,0.1c1.3,0.4,2,0.7,2.5,1.1s0.6,1.2,0.7,2.3c0.1,1.1,0.1,2.1,0.1,3.2 s0,2.1,0,3.2c0,1.9,0,3.8,0,5.8s0,3.8,0,5.8c0,1.2,0.1,2.5,0.3,3.7c0.2,1.2,0.6,2.3,1.2,3.3c0.8,0.2,1.3,0,1.6-0.3s0.5-0.7,0.6-1.2 c0.1-0.7,0.2-1.3,0.2-2c0-0.7,0.1-1.3,0.1-2c0-2.8,0.1-5.6,0.1-8.4s0.1-5.6,0.1-8.4c0-0.7,0.1-1.5,0.2-2.2s0.2-1.4,0.2-2.1 c0.4-0.1,0.7-0.2,0.9-0.3c0.2-0.1,0.4-0.1,0.6-0.1c2.2,0.2,4.4,0.4,6.6,0.7c2.2,0.2,4.4,0.5,6.6,0.7c3.3,0.3,6.5,0.6,9.8,0.9 c3.3,0.3,6.5,0.6,9.8,0.9c0.2,0,0.4,0,0.6,0c0.2,0,0.4,0,0.6,0c7.2-0.1,14.4,0.1,21.6,0.6c7.2,0.5,14.4,1.2,21.5,1.8 c5.2,0.5,10.4,0.7,15.6,0.8c5.2,0.1,10.4,0,15.5,0c5.7,0,11.3-0.2,17-0.4s11.3-0.5,17-0.7c2-0.1,4-0.3,6-0.6c2-0.2,4-0.5,6-0.6 c5.9-0.4,11.9-0.9,17.8-1.6s11.8-1.5,17.7-2.6c2.1-0.4,4.1-0.8,6.2-1.2s4.2-0.8,6.2-1.1c0.6-0.1,1.3-0.2,2-0.2 c0.7-0.1,1.4-0.1,2.3-0.2c0.1,0.6,0.3,1.2,0.4,1.8c0.1,0.6,0.3,1.1,0.4,1.6c0,0.2,0,0.4,0,0.6s0,0.4,0,0.6c0,4.1-0.1,8.2-0.2,12.4 s-0.2,8.3-0.1,12.4c0.1,3.6,0,7.3-0.3,10.9s-0.5,7.3-0.7,10.9c-0.2,3.1-0.4,6.1-0.6,9.2c-0.2,3.1-0.4,6.2-0.6,9.4 c-0.7,0.3-1.4,0.6-2,1c-0.7,0.3-1.4,0.6-2.1,0.9c-5,1.9-10,3.4-15.1,4.8s-10.3,2.4-15.5,3.3c-2,0.3-4,0.8-5.9,1.3s-3.9,0.9-5.9,1.2 c-6.7,1-13.5,2.2-20.2,3.3s-13.5,2.1-20.3,2.7c-6.3,0.6-12.6,1.1-19,1.5s-12.7,0.6-19,0.6c-7.5,0-15,0-22.5-0.1 c-7.5,0-15-0.1-22.5-0.2c-2.6,0-5.2-0.2-7.8-0.4c-2.6-0.2-5.2-0.5-7.8-0.8c-3.1-0.3-6.1-0.6-9.2-1c-3.1-0.4-6.1-0.7-9.2-1.1 c-1-0.1-2.1-0.3-3.1-0.5s-2.1-0.4-3.1-0.6c-4.4-0.8-8.9-1.5-13.4-2.2c-4.5-0.7-8.9-1.5-13.3-2.4c-4.3-0.9-8.6-1.9-12.9-3 c-4.3-1.1-8.6-2.2-13-3.2c-0.1-0.8-0.3-1.5-0.4-2.1s-0.2-1.3-0.2-2c0-12.3,0-24.6-0.1-36.9s0-24.6,0-36.9c0-0.7,0.1-1.5,0.1-2.2 C468.8,824.6,468.9,823.8,468.9,823.1z M472.4,1014.1c0.1-3.2,0.1-6.3,0.1-9.5s0-6.3,0-9.5c0-7-0.2-14-0.6-21s-1-14-1.7-21 c0-0.2,0-0.4-0.1-0.6c0-0.2,0-0.4,0-0.6c-0.2-6.1-0.5-12.3-0.7-18.4s-0.5-12.3-0.7-18.4c0-0.7,0-1.3,0.1-2s0.2-1.3,0.2-2 c1.3-0.3,2.5-0.1,3.6,0.2s2.2,0.7,3.3,1c2.9,0.7,5.8,1.5,8.6,2.3s5.8,1.5,8.6,2.2c1.5,0.4,3,0.7,4.5,0.9c1.5,0.3,3,0.5,4.5,0.8 c2.2,0.4,4.3,0.8,6.5,1.2c2.2,0.4,4.3,0.8,6.5,1.2c3.4,0.6,6.8,1.2,10.2,1.7s6.8,1.1,10.2,1.6c2.5,0.4,4.9,0.7,7.4,1 c2.5,0.3,5,0.6,7.4,0.9c0.6,0.1,1.1,0.2,1.7,0.2c0.6,0.1,1.1,0.1,1.7,0.2c13.6,0.7,27.3,1.2,41,1.4c13.7,0.2,27.3,0.1,41-0.5 c5.7-0.2,11.3-0.8,16.9-1.5s11.3-1.4,16.9-2.1c3.3-0.4,6.7-0.9,10-1.4s6.6-1.1,9.9-1.7c4.9-0.9,9.8-1.8,14.7-2.8s9.8-2,14.7-3 c1.7-0.4,3.4-0.8,5-1.3s3.3-1,5-1.4c0.4-0.1,0.7-0.2,1.1-0.2c0.4-0.1,0.9-0.1,1.4-0.2c0.1,0.6,0.2,1.1,0.3,1.5 c0.1,0.5,0.2,0.9,0.2,1.4c0,5.6,0,11.2,0,16.7s0,11.2,0.1,16.7c0,1.6-0.2,3.1-0.5,4.6c-0.3,1.5-0.8,2.9-1.3,4.4 c-1.6,4.1-3.3,8.2-5.1,12.2s-3.7,8-5.8,11.9c-1.1,2-2.1,4.1-3,6.2s-1.9,4.2-2.9,6.3c-1.6,3.4-3.6,6.6-5.7,9.7s-4.5,6-6.9,8.9 c-5.4,6.8-11.4,12.9-18,18.3c-6.6,5.4-13.7,10-21.5,13.9c-5.9,2.9-11.9,5.5-18,7.7s-12.4,3.9-18.9,5.2c-3.6,0.7-7.1,1.5-10.7,2.2 s-7.2,1.3-10.8,1.6c-0.2,0-0.4,0.1-0.6,0.1c-0.2,0-0.4,0.1-0.6,0.1c-5.4,0.3-10.7,0.6-16.1,0.9c-5.4,0.3-10.7,0.5-16.1,0.6 c-4.8,0-9.6-0.3-14.4-0.8c-4.8-0.5-9.5-1.2-14.3-2.1c-3.1-0.6-6.2-1.1-9.3-1.7s-6.2-1.4-9.1-2.6c-0.5-0.2-1.1-0.4-1.6-0.6 c-0.5-0.2-1.1-0.4-1.6-0.6c-0.9-0.4-1.6-0.8-2.1-1.5s-0.8-1.4-0.9-2.4c-0.2-2.5-0.4-5-0.7-7.5c-0.2-2.5-0.5-5-0.7-7.5 c-0.4-4.1-0.7-8.2-1-12.3c-0.3-4.1-0.7-8.2-1.1-12.3c-0.2-2.4-0.9-4.6-1.8-6.7s-2.2-4.1-3.5-6c-1.8-2.5-4.2-3.9-6.7-4.1 s-5.1,0.7-7.3,2.9c-1.9,2-3.5,4.2-4.5,6.6s-1.6,5-1.7,7.9c0,2.9-0.1,5.8-0.1,8.7c0,2.9,0,5.8-0.1,8.7c0,0.7,0.1,1.5,0,2.3 s-0.4,1.5-1.1,2.1c-1,0-1.7-0.4-2.4-1c-0.6-0.6-1.1-1.3-1.6-1.9c-1.3-1.6-2.6-3.3-3.9-5c-1.3-1.7-2.5-3.4-3.8-5.1 c-0.7-1-1.2-2-1.6-3C472.5,1016.4,472.3,1015.3,472.4,1014.1z M505.4,1060.9c0.2,2.1,0.3,4.2,0.5,6.3c0.2,2.1,0.3,4.2,0.4,6.2 c0.1,2.2,0.2,4.4,0.3,6.6c0.1,2.2,0.1,4.4,0.2,6.6c0,1.1,0,2.3-0.2,3.4s-0.6,2.3-1.2,3.4c-1.3-1-2.2-2.1-2.9-3.3 c-0.7-1.2-1.2-2.6-1.4-4c-0.6-3.1-1.2-6.2-1.7-9.3s-1.1-6.2-1.6-9.3c-0.3-1.6-0.4-3.2-0.6-5c-0.2-1.8-0.3-3.7-0.6-5.9 c1.7,0.8,3.2,1.5,4.7,2.2C502.7,1059.6,504,1060.2,505.4,1060.9z M495.5,1043.1v-15v-15c0.6-0.4,1.2-0.9,1.9-1.5 c0.7-0.5,1.5-1.1,2.3-1.8c0.3,0.5,0.5,1,0.8,1.3c0.2,0.4,0.4,0.7,0.4,1.1c0.6,5.6,1.1,11.2,1.6,17s0.9,11.7,1.2,17.9 c-1.7-0.8-3.2-1.5-4.5-2.1C497.9,1044.3,496.7,1043.7,495.5,1043.1z M734,1045.1c-0.3,1.9-0.4,3.8-0.5,5.7s-0.1,3.8,0,5.7 c0.4,6.1,0.1,12.2-0.8,18.1s-2.2,11.9-4,17.7c-0.1,0.2-0.1,0.3-0.3,0.5s-0.3,0.4-0.5,0.7c-1.7-0.4-3.4-0.8-5.1-1.2s-3.5-0.8-5.3-1 c-8-1.1-16-2.3-24-3.2s-16.1-1.4-24.2-1.2c-8.2,0.3-16.3,0.3-24.5,0.2s-16.4-0.2-24.5-0.2c-1.4,0-2.9-0.1-4.3-0.2s-2.9-0.2-4.3-0.2 c-7.6-0.3-15.2-0.5-22.8-0.4c-7.6,0.1-15.2,0.5-22.7,1.3c-1.4,0.2-2.9,0.2-4.3,0.2c-1.4,0-2.9,0-4.3,0.1c-1.5,0-3.1,0.1-4.6,0.1 c-1.5,0-3.1,0.1-4.6,0.1c-1.3,0-2.5,0.1-3.7,0.4s-2.4,0.7-3.5,1.3c-0.1,0.1-0.3,0.2-0.4,0.4c-0.1,0.2-0.2,0.4-0.1,0.5 c0.1,0.2,0.2,0.5,0.3,0.8c0.1,0.2,0.3,0.5,0.5,0.6c0.3,0.2,0.7,0.3,1,0.4s0.8,0.1,1.1,0.1c2.4,0,4.8,0.1,7.2,0.1 c2.4,0,4.8,0,7.2-0.1c3-0.1,5.9-0.2,8.9-0.3c3-0.1,5.9-0.3,8.9-0.3c4.1,0,8.3-0.1,12.4,0s8.3,0.1,12.4,0.3 c8.9,0.4,17.8,0.9,26.7,1.4c8.9,0.5,17.8,1,26.7,1.6c5.2,0.3,10.3,0.6,15.5,1c5.2,0.4,10.3,0.7,15.5,1.1c2.6,0.2,5.1,0.5,7.7,1 c2.5,0.5,5,1.2,7.4,2.1c0.6,0.1,1.1,0.2,1.7,0.3s1.2,0.2,1.7,0.3c2.2,0.2,4.5,0.4,6.7,0.7s4.4,0.8,6.5,1.7c1.2,0.2,2.5,0.5,3.6,0.9 c1.2,0.4,2.3,1,3.4,1.8c-0.1,1.3-0.4,2.4-0.9,3.4c-0.5,1-1.2,2-1.8,2.9c-2.7,3.9-5.7,7.4-9.2,10.3s-7.4,5.3-11.9,6.9 c-2.3,0.8-4.5,1.6-6.8,2.4s-4.6,1.5-6.9,2.1c-1.1,0.3-2.2,0.5-3.4,0.6s-2.3,0.2-3.5,0.2c-3.2,0.1-6.3,0.3-9.5,0.5 c-3.2,0.2-6.3,0.6-9.5,1c-3.7,0.5-7.4,0.9-11.2,1.3s-7.5,0.7-11.2,1c-1.1,0.1-2.3,0.2-3.4,0.4c-1.1,0.1-2.3,0.3-3.4,0.4 c-2.7,0.3-5.4,0.5-8,0.5s-5.4-0.2-8.1-0.6c-2-0.3-4-0.5-6-0.6s-4-0.2-6.1-0.2c-3.3-0.1-6.5-0.2-9.8-0.5c-3.3-0.3-6.5-0.7-9.7-1.3 c-1.9-0.3-3.8-0.5-5.7-0.7s-3.9-0.2-5.8-0.3c-3.3-0.1-6.5-0.4-9.8-0.8c-3.2-0.4-6.5-0.9-9.7-1.6c-2.2-0.5-4.3-0.8-6.5-1.1 s-4.4-0.4-6.6-0.4c-3.7,0-7.3-0.7-10.9-1.5s-7.1-1.7-10.7-2.3c-0.3,0-0.6-0.1-0.9-0.2s-0.5-0.3-0.7-0.5c-1.3-1.5-2.9-2.3-4.5-3 c-1.7-0.7-3.5-1.2-5.1-1.9c-6-1.8-10.9-4.9-14.7-8.9s-6.4-9.1-8.1-15c-1.2-4.2-2.2-8.5-3.1-12.9s-1.8-8.7-2.6-13 c-1-4.9-1.6-9.9-2.1-14.8c-0.5-5-0.7-10-1.1-14.9c0-0.1,0-0.1,0.1-0.2s0.2-0.2,0.3-0.4c0.3,0.2,0.6,0.4,0.9,0.6s0.6,0.4,0.9,0.6 c1.1,0.9,2.1,1.9,3.2,2.9s2.2,1.9,3.4,2.7c1.3,0.9,2.1,1.8,2.6,2.9c0.5,1.1,0.7,2.4,0.8,3.8c0.3,5,0.7,10,1.3,14.9s1.2,9.9,2.2,14.8 c0.4,2,0.9,3.9,1.5,5.8s1.5,3.7,2.6,5.4c1.8,2.9,4,5.2,6.6,6.7c2.6,1.5,5.6,2.1,9.2,1.9c0.4-0.2,0.9-0.5,1.3-0.7s0.9-0.5,1.3-0.7 c1.1-1.2,1.8-2.5,2.4-3.9s1-2.9,1.3-4.4c0.8-3.7,1.2-7.4,1.3-11.2s-0.1-7.5-0.3-11.2c-0.1-1.1-0.2-2.3-0.2-3.4 c-0.1-1.2-0.1-2.3-0.2-3.5c0.4-0.1,0.8-0.2,1.1-0.2c0.3-0.1,0.6-0.1,0.8,0c3.7,1.2,7.4,2.1,11.2,2.8s7.6,1.1,11.4,1.5 c4.4,0.5,8.8,0.9,13.2,1.2s8.8,0.6,13.2,0.8c2.4,0.1,4.8,0,7.2-0.2c2.4-0.2,4.8-0.4,7.2-0.6c3.3-0.3,6.5-0.6,9.8-0.9 c3.3-0.3,6.5-0.7,9.8-0.9c2.8-0.2,5.6-0.6,8.3-1s5.5-1,8.2-1.7c7.5-1.8,14.9-3.8,22.2-6.2c7.3-2.4,14.4-5.3,21.3-8.9 c7.8-4,15.1-8.7,21.8-14.1s12.9-11.4,18.5-18.2c3.3-3.9,6.4-7.9,9.3-12.1c2.9-4.2,5.5-8.6,7.5-13.3c0.1-0.2,0.2-0.4,0.2-0.5 c0.1-0.2,0.2-0.3,0.3-0.5c1.1-1.7,2.2-3.4,3.3-5.1c1.1-1.7,2.2-3.4,3.1-5.2c0.9-1.8,1.8-3.6,2.6-5.4c0.8-1.8,1.6-3.6,2.4-5.4 c0.2,0,0.3,0,0.4,0c0.1,0,0.2,0,0.2,0c0.1,0.1,0.1,0.1,0.2,0.2c0.1,0.1,0.1,0.2,0.1,0.3c0.1,0.4,0.1,0.8,0.2,1.1 c0.1,0.4,0.1,0.8,0.1,1.1c0.1,4.5,0.2,9,0.3,13.6c0.1,4.5,0.2,9,0.3,13.6c0.3,4.5,0.8,9,1.1,13.5c0.4,4.5,0.7,9,0.9,13.5 c0.1,2.6,0,5.2-0.2,7.8C734.7,1040,734.4,1042.6,734,1045.1z M736.4,694.4c0,3.4-0.2,6.7-0.4,10.1s-0.4,6.7-0.5,10.1 c0,1.2,0.1,2.5,0.1,3.7s0.1,2.5,0.1,3.7c0,6.1,0,12.1,0,18.2s0,12.1,0,18.2c0,0.7,0,1.5,0,2.2s0,1.5,0,2.2c-0.7,0.1-1.2,0-1.4-0.3 c-0.3-0.3-0.4-0.6-0.5-1c-2.3-5.3-4.6-10.6-6.9-15.8s-4.6-10.6-6.9-15.9c-0.6-1.3-1.1-2.7-1.5-4c-0.5-1.4-0.9-2.7-1.3-4.1 c-1.6-5.5-3.7-10.8-6.2-15.8c-2.5-5.1-5.3-10-8.4-14.8c-2.5-3.9-5.5-7.5-8.8-10.7s-6.9-6.1-10.6-8.8c-1.2-0.8-2.4-1.7-3.6-2.5 c-1.2-0.8-2.4-1.5-3.7-2.2c-9.4-4.8-18.9-9.1-28.7-12.5s-20-5.7-30.7-6.6c-8.2-0.7-16.4-0.9-24.5-0.5c-8.1,0.4-16.2,1.4-24.3,3 c-3.1,0.6-6.2,1.4-9.2,2.4c-3,1-5.9,2.2-8.8,3.6c-5.5,2.7-10.7,5.6-15.8,8.9s-9.9,6.9-14.5,10.9c-9.6,8.2-18.2,17.3-25.9,27 S479,723.4,473,734.5c-0.1,0.3-0.3,0.5-0.5,0.7s-0.3,0.5-0.5,0.7c-0.6,2-1.4,3.9-2.2,5.9s-1.6,3.9-2.4,5.8c-0.8-0.3-1.1-0.8-1.2-1.2 c-0.1-0.5,0-0.9,0-1.3c-0.2-3.6-0.3-7.1-0.4-10.7c-0.1-3.6-0.3-7.1-0.6-10.7c-0.4-4.8-0.5-9.6-0.4-14.4c0.1-4.8,0.5-9.6,0.9-14.4 c0.1-1.6,0.2-3.3,0.3-4.9s0.1-3.3,0.2-4.9c0.2-3.1,0.3-6.1,0.5-9.2c0.2-3.1,0.3-6.1,0.4-9.2c0.1-3.7,0.2-7.3,0.3-11s0.1-7.3,0.2-11 c0.1-6.2,0.5-12.3,1.3-18.4s1.8-12.2,3.4-18.1c1.1-4.5,2.3-8.9,3.6-13.4s2.7-8.8,4.2-13.2c1.2-3.5,2.7-7,4.3-10.4s3.2-6.8,4.8-10.2 c1.1-2.4,2.3-4.9,3.6-7.3c1.2-2.4,2.5-4.8,3.7-7.2c2.6-4.9,5.4-9.5,8.6-14s6.7-8.6,10.8-12.4c0.5-0.5,1-0.9,1.5-1.3 c0.5-0.4,1.1-0.8,1.7-1.1c3.3-1.9,6.6-3.6,10.1-4.9s7.1-2.4,10.8-3.1c3.9-0.7,7.8-1.2,11.7-1.8s7.8-1,11.7-1.5 c0.5-0.1,0.9-0.1,1.4-0.1s1,0,1.4,0c0.6-0.2,1.3-0.4,1.9-0.6c0.6-0.2,1.3-0.4,1.8-0.7c0.3-0.1,0.6-0.4,0.8-0.8 c0.2-0.3,0.4-0.7,0.3-1c0-0.3-0.2-0.6-0.5-0.9s-0.6-0.6-0.9-0.7c-1-0.6-2.1-0.9-3.2-1.1c-1.1-0.2-2.3-0.2-3.4-0.1 c-2.7,0.2-5.3,0.4-8,0.6s-5.3,0.4-8,0.6c-2,0.1-4,0.3-6,0.4s-4,0.2-6,0.4c-2.3,0.6-4.6,1.3-7,2c-2.3,0.7-4.7,1.3-7.2,2 c-0.2-0.6-0.5-1.1-0.8-1.6s-0.5-1-0.6-1.5c-2.5-11.2-3.9-22.4-4.5-33.7s-0.5-22.6,0.1-34c0.3-4.9,0.5-9.8,0.8-14.7 c0.3-4.9,0.6-9.8,1-14.7c0.4-4.5,0.8-9,1.3-13.5s1-9,1.5-13.5c0.1-0.5,0.2-0.9,0.3-1.4s0.3-0.9,0.4-1.4c-0.1-1.3-0.1-2.5,0-3.7 s0.5-2.5,1.1-3.8c1-0.1,2.1-0.2,3.1-0.3s2.1-0.2,3.1-0.2c1.1-0.1,2.1-0.2,3.2-0.2c1.1-0.1,2.1-0.1,3.2-0.1c7.1,0,14.2,0.1,21.3,0.1 s14.2,0.1,21.3,0.2c3.4,0,6.7,0.1,10.1,0.1s6.7,0.2,10.1,0.4c5.3,0.3,10.5,0.7,15.8,1s10.5,0.8,15.8,1.3c4.2,0.4,8.4,0.8,12.6,1.3 s8.4,1,12.6,1.7c3.5,0.5,7,1.1,10.5,1.8c3.5,0.7,7,1.4,10.5,2c0.6,1.4,1,2.8,1.2,4.1s0.3,2.7,0.2,4c0,0.3,0,0.5-0.1,0.8 s-0.1,0.6-0.1,0.9c-2.4-0.4-4.7-0.9-7.1-1.1c-2.4-0.2-4.8-0.2-7.3,0.3c1.2,1.5,1.8,2.3,2.8,3.1s2.3,1.4,4.6,2.6 c1.4,0.7,2.8,1.3,4.2,1.9s2.8,1.2,4.3,1.9c0.3,1.4,0.6,2.7,0.8,4.1c0.2,1.4,0.3,2.8,0.2,4.4c-3-0.5-6-1.1-9-1.6s-5.9-0.8-9-0.6 c1,1.2,1.5,1.8,2.2,2.3s1.6,0.9,3.3,1.7c1.1,0.5,2.3,1,3.4,1.5c1.1,0.5,2.3,1,3.5,1.4c1.1,0.4,2.1,0.8,3.2,1.2 c1.1,0.4,2.2,0.8,3.4,1.2c0.5,3.3,0.9,6.5,1.3,9.7s0.9,6.3,1.3,9.4c-0.7,0.6-1.4,0.8-1.9,0.7c-0.6,0-1.1-0.3-1.6-0.4 c-2.3-0.6-4.7-1.2-7.1-1.5c-2.4-0.3-4.8-0.5-7.2-0.3c-0.3,0-0.6,0.1-0.8,0.1c-0.3,0.1-0.5,0.2-0.8,0.3c-0.2,0.1-0.3,0.2-0.4,0.4 s-0.2,0.3-0.3,0.5c2,2.8,4.8,5.2,8.4,7.4s8.1,4.1,13.6,5.9c0.1,0.8,0.2,1.7,0.3,2.6s0.2,1.7,0.3,2.5c-0.7,0.6-1.3,0.8-1.9,0.7 s-1.1-0.3-1.6-0.4c-1.3-0.2-2.5-0.5-3.9-0.8c-1.3-0.2-2.8-0.3-4.3,0c0.5,0.9,1.1,1.5,1.7,1.9c0.6,0.4,1.3,0.8,1.9,1.1 c0.7,0.4,1.5,0.9,2.2,1.3c0.8,0.4,1.5,0.8,2.3,1.2c0.7,0.4,1.4,0.7,2.1,1s1.5,0.7,2.3,1v5.7v5.7c-0.9,0.5-1.7,0.5-2.5,0.3 s-1.4-0.6-2.1-0.8c-2.5-0.9-5-1.5-7.6-1.8s-5.1-0.4-7.8-0.3c-0.4,0-0.8,0-1.2,0.1c-0.4,0-0.8,0.1-1.1,0.1c-0.5,0.1-1,0.1-1.4,0.3 c-0.4,0.2-0.7,0.5-0.7,1.1c0,0.3,0.1,0.7,0.3,1c0.2,0.3,0.5,0.6,0.8,0.8c1.5,0.8,3,1.6,4.6,2.4s3.1,1.5,4.7,2.2 c0.9,0.4,1.8,0.6,2.7,0.8s1.9,0.4,2.8,0.6c1.2,0.3,2.4,0.5,3.7,0.8s2.5,0.5,3.8,0.8v2.8v2.8c-3.2-0.6-6.1-1.8-9.1-2.7 c-3-1-5.9-1.7-9.1-1.4c-0.1,0.2-0.2,0.4-0.2,0.5c-0.1,0.1-0.1,0.2-0.1,0.3c0,0.1,0.1,0.1,0.1,0.2s0.1,0.1,0.2,0.2 c0.2,0.1,0.3,0.2,0.5,0.3s0.3,0.2,0.5,0.3c2.7,1.4,5.5,2.8,8.2,4.3s5.5,2.9,8.3,4.3c0.4,0.9,0.6,1.9,0.5,2.8s-0.4,1.8-1,2.6 c0.2,0.9,0.2,1.7,0.1,2.6s-0.4,1.8-0.8,2.7c-0.5-0.1-1.1-0.2-1.6-0.3c-0.5-0.1-1-0.3-1.5-0.5c-4-1.9-8.2-3.4-12.4-4.7 c-4.2-1.3-8.5-2.3-12.8-3.4c-3.3-0.9-6.7-1.4-10.2-1.9s-6.9-0.9-10.3-1.3c-0.7-0.1-1.5,0-2.2,0.1c-0.8,0.1-1.5,0.3-2.2,0.5 c-0.3,0.1-0.6,0.3-0.9,0.7s-0.4,0.7-0.5,1c0,0.3,0.1,0.7,0.3,1c0.2,0.3,0.5,0.6,0.7,0.8c0.4,0.3,0.8,0.4,1.3,0.6 c0.5,0.1,0.9,0.2,1.4,0.3c3,0.6,6.1,1.1,9.1,1.7c3,0.6,6,1.2,9,2.1c3.5,1,6.9,2.2,10.4,3.5c3.4,1.3,6.8,2.6,10.2,3.9 c3,1.2,5.8,2.5,8.6,4.1s5.4,3.3,8,5.1c1.4,1,2.8,2.1,4.1,3.2s2.6,2.3,3.9,3.4c0.3,0.3,0.5,0.7,0.6,1.1c0.1,0.4,0.2,0.9,0.4,1.4 c0.5,0.4,1.2,0.7,1.7,1c0.6,0.3,1.1,0.7,1.5,1.2c1.1,1.3,2.3,2.6,3.4,4c1.1,1.3,2.1,2.7,3.1,4.1c2.9,4.3,5.7,8.6,8.4,13.1 c2.7,4.4,5.2,9,7.4,13.6c3,6.2,5.4,12.5,7.3,19c1.9,6.5,3.2,13.2,4,20c0.2,1.7,0.4,3.4,0.6,5.1s0.4,3.4,0.6,5.2 c0.3,3.3,0.5,6.7,0.8,10c0.2,3.4,0.4,6.7,0.6,10.1c0.2,4.7,0.4,9.4,0.5,14.1c0.1,4.7,0.3,9.4,0.3,14.1c0.1,6.3,0.1,12.7,0,19 C736.6,681.8,736.5,688.1,736.4,694.4z M646.4,468.3c-3-1.6-6.1-2.6-9.3-3.1s-6.5-0.6-9.8-0.6c-0.2,0-0.4,0-0.6,0.1 s-0.4,0.1-0.6,0.2c-1.2,0.4-2,1.4-2.2,2.5c-0.2,1.1,0.1,2.3,1,3.1c0.4,0.4,0.9,0.7,1.4,1c0.5,0.3,1,0.5,1.6,0.7 c3.2,0.8,6.4,1.4,9.7,1.5c3.2,0.1,6.5-0.2,9.7-1.1c0.3-0.1,0.6-0.3,0.9-0.5s0.6-0.5,0.8-0.6c-0.1-0.3-0.2-0.6-0.2-0.8 c-0.1-0.2-0.1-0.4-0.2-0.5c-0.4-0.3-0.7-0.6-1.1-0.9C647.2,468.8,646.9,468.5,646.4,468.3z M693.3,608.1c0.8,0,1.7,0.1,2.5,0.1 s1.6-0.3,2.3-1c0-0.2-0.1-0.4-0.1-0.6s-0.1-0.4-0.2-0.5c-0.1-0.2-0.3-0.5-0.5-0.7c-0.2-0.2-0.4-0.4-0.6-0.6 c-3.1-2.8-6.4-4.9-10.1-6.5s-7.5-2.7-11.5-3.4c-0.5-0.1-0.9-0.1-1.4-0.1c-0.5,0-1,0-1.4,0.1c-0.8,0.1-1.5,0.5-2,1s-0.9,1.2-1.1,2 c-0.2,0.7-0.2,1.4,0,2c0.2,0.6,0.6,1.2,1.1,1.6c0.4,0.4,0.9,0.7,1.4,1c0.5,0.3,1,0.5,1.5,0.7c1.3,0.5,2.5,0.9,3.8,1.3 c1.3,0.4,2.6,0.8,3.8,1.2c2,0.6,4,1.2,6.1,1.7C689.1,607.7,691.2,608,693.3,608.1z M640.8,398.2c0.2,0,0.4-0.2,0.7-0.4 s0.5-0.5,0.9-0.9c-4.7-1.4-9.3-1.9-14-1.9s-9.2,0.2-13.8,0.3c-8.9,0.2-14.2,0.4-17.9,0.9s-5.7,1-8.1,2c0.8,0.4,1.4,0.7,1.9,0.9 s0.9,0.4,1.3,0.4c1,0.1,1.9,0.1,2.9,0.1s1.9,0,2.9-0.1c6.3-0.2,12.7-0.3,19-0.5s12.7-0.3,19-0.5c0.9,0,1.7-0.1,2.6-0.1 C639,398.4,639.9,398.3,640.8,398.2z M490.3,937.7c0.9,0.3,1.8,0.5,2.8,0.8c0.9,0.2,1.9,0.4,2.8,0.6c5.8,1.1,11.5,2.2,17.3,3.3 c5.8,1.1,11.5,2.2,17.3,3.3c5.3,1,10.6,1.8,16,2.4c5.3,0.6,10.7,1,16.1,1.4c3.7,0.2,7.5,0.3,11.2,0.3c3.8,0,7.5-0.1,11.3-0.2 c1.7,0,3.4-0.3,5.1-0.6c1.7-0.3,3.4-0.6,5.1-1c0.5-0.1,1-0.3,1.6-0.7c0.6-0.3,1.3-0.8,2.2-1.3c-2.2-1.3-4.3-2.1-6.3-2.5 c-2-0.4-3.9-0.6-5.8-0.7c-4.4-0.2-8.8-0.4-13.3-0.5s-8.8-0.3-13.3-0.5c-4.8-0.2-9.6-0.6-14.4-1.1c-4.8-0.6-9.5-1.3-14.3-2 c-5.8-1-11.5-2-17.3-3s-11.5-2-17.3-2.9c-1.3-0.2-2.7-0.3-4-0.3c-1.3,0-2.7,0-4,0.1c-0.8,0-1.4,0.6-1.6,1.4 c-0.2,0.7-0.1,1.6,0.4,2.2c0.3,0.3,0.7,0.6,1.1,0.9S489.8,937.6,490.3,937.7z M671.1,1119.6c1.5-0.8,3-1.6,4.5-2.4s3-1.6,4.5-2.4 c0.2-0.2,0.4-0.3,0.7-0.5s0.4-0.3,0.7-0.5c0.6-0.4,1.1-0.8,1.7-1.2s1.1-0.8,1.7-1.2c0.5-0.6,1.1-1.1,1.6-1.6 c0.5-0.5,1.1-1.1,1.5-1.7c0.5-0.6,0.5-1.3,0.3-1.9s-0.8-1.1-1.5-1.2c-0.3,0-0.6-0.1-0.9-0.1s-0.6,0-0.8,0c-3,0.8-5.9,1.9-8.4,3.5 c-2.6,1.6-4.9,3.6-6.9,6c-0.2,0.3-0.5,0.6-0.6,1c-0.2,0.3-0.3,0.7-0.4,1.1c-0.1,0.4-0.1,0.9-0.1,1.4c0,0.5,0.1,0.9,0.3,1.3 c0.1,0.2,0.5,0.3,0.9,0.4C670.3,1119.5,670.8,1119.5,671.1,1119.6z M583,1113.5c0.1-0.3,0.2-0.4,0.3-0.6s0.1-0.2,0.1-0.3 c-0.7-2.7-2-4.8-3.8-6.6s-3.9-3.2-6.2-4.3c-0.7-0.3-1.3-0.3-2-0.2c-0.6,0.2-1.2,0.6-1.7,1.1c-0.5,0.5-0.8,1.3-0.9,2s0.1,1.6,0.6,2.2 c1.7,2.2,3.7,3.9,6,5S580.3,1113.5,583,1113.5z M671.2,1126.1c4.9-0.8,9.3-2.4,13.5-4.6s8.2-4.8,11.9-7.9c0.4-0.3,0.7-0.6,1-1 s0.6-0.8,0.8-1.2c0.3-0.4,0.5-0.9,0.5-1.3c0-0.5-0.1-0.9-0.6-1.2c-0.2-0.2-0.6-0.3-1-0.4s-0.8,0-1,0.1c-0.8,0.3-1.5,0.8-2.3,1.2 s-1.5,0.9-2.3,1.2c-1.1,0.5-2.1,1.2-3.2,1.8s-2.2,1-3.6,1l0,0l0,0c-0.6,0.4-1.2,0.8-1.8,1.1c-0.6,0.4-1.2,0.8-1.8,1.1 c-1.5,0.9-2.9,1.9-4.4,2.7c-1.5,0.8-3.1,1.5-4.9,1.8c-0.6,0.9-1.5,1.5-2.4,2.3s-1.7,1.7-2.2,3.1c0.8,0,1.4,0.1,2,0.1 C670.1,1126.2,670.7,1126.2,671.2,1126.1z M543.8,1000.9c-2.9-2-5.5-4.2-7.9-6.7s-4.6-5.1-6.7-8c-2.5-3.4-5-6.8-7.5-10.2 c-2.5-3.4-5.1-6.8-7.6-10.2c-0.1-0.2-0.4-0.3-0.6-0.4c-0.3-0.1-0.6-0.2-1-0.4c-0.3,1.1-0.1,2,0.3,2.7s0.9,1.4,1.3,2.1 c2,3,4.1,6.1,6.1,9.1c2,3,4.1,6.1,6,9.1c2.1,3.2,4.3,6.2,6.7,9c2.4,2.8,5.1,5.4,8,7.9c1.2,1,2.4,2,3.6,2.9c1.2,1,2.4,1.9,3.6,2.9 c4.1,3.1,8.2,6.3,12.5,9.2s8.7,5.6,13.6,7.6c3,1.3,6,2.6,9.1,3.8s6.1,2.3,9.2,3.3c4.2,1.3,8.5,2.3,12.9,3s8.8,0.9,13.2,0.8 c2.1-0.1,4.2-0.3,6.3-0.7s4-1.2,5.9-2.3c0.4-0.2,0.7-0.5,1-0.9c0.3-0.3,0.6-0.7,0.9-1c-1.2-1.2-1.8-1.8-2.3-2.2s-0.8-0.5-1.5-0.6 c-1.5-0.2-3-0.5-4.5-0.7c-1.5-0.2-3-0.4-4.6-0.5c-2.6-0.2-5.2-0.1-7.8-0.2c-2.6,0-5.2-0.2-7.7-0.6c-7.3-1.3-14.5-3.1-21.4-5.6 s-13.6-5.7-19.9-9.7c-3.3-2.1-6.5-4.1-9.7-6.3C550.1,1005.2,546.9,1003.1,543.8,1000.9z M535.5,1025.6c-1.3-1.1-2.7-2.1-4.1-3.1 c-1.4-1-2.8-2-4.2-3c-0.4-0.3-0.8-0.6-1.2-0.8c-0.4-0.2-0.8-0.5-1.3-0.6c-0.3-0.1-0.7,0-1.1,0.1c-0.4,0.1-0.7,0.3-0.9,0.5 c-0.2,0.2-0.3,0.6-0.3,1s0,0.8,0.2,1c0.6,0.8,1.1,1.5,1.8,2.3c0.6,0.7,1.3,1.4,2,2c2.4,1.9,4.8,3.8,7.3,5.6c2.5,1.8,4.9,3.6,7.5,5.3 c3.3,2.2,6.8,4,10.5,5.3c3.7,1.4,7.5,2.3,11.5,2.7c1.3,0.1,2.6,0.3,4,0.3c1.4,0,2.9-0.3,4.6-1c-1.4-1.2-2.7-1.8-4-2.3 c-1.3-0.4-2.5-0.7-3.7-1c-5.2-1.6-10.2-3.5-15-5.8S539.8,1029,535.5,1025.6z M561.4,1113.8c0.4,0,0.8,0,1.3-0.2 c0.4-0.1,0.9-0.3,1.4-0.4c-0.1-1.6-0.6-2.9-1.3-4.1c-0.7-1.2-1.6-2.2-2.4-3.2c-0.8-1-1.6-1.9-2.4-2.8s-1.4-2-1.7-3.3 c-1.8-1.7-2.9-2.6-4-2.6c-1.1,0-2.1,0.9-3.8,2.6c0.2,0.8,0.3,1.7,0.4,2.6s0.3,1.7,0.7,2.4c1.2,2.5,2.7,4.6,4.6,6.1 C556.2,1112.5,558.6,1113.6,561.4,1113.8z M635.5,479.8c-0.1,0.5-0.1,1-0.2,1.4s-0.1,0.9-0.1,1.3c2,1.2,4.1,2,6.3,2.3s4.4,0.3,6.7,0 c0-0.3,0-0.7,0-1.1c0-0.4-0.1-0.7-0.2-0.8c-1.8-1.2-3.8-2-5.9-2.6C640,479.8,637.9,479.6,635.5,479.8z M546.1,532.7 C546.1,532.7,546.2,532.7,546.1,532.7C546.2,532.7,546.2,532.7,546.1,532.7c-0.2-0.1-0.4-0.3-0.6-0.5c-0.2-0.2-0.4-0.4-0.6-0.6 c0,0,0,0,0,0.1c0,0,0,0.1,0,0.1c-2.8-1.3-5.3-1.1-7.6-0.2s-4.5,2.4-6.7,3.7c-0.5,0.3-0.9,0.7-1.3,1.1s-0.8,0.9-1.2,1.3 c-3.6,3.7-7.1,7.5-10.5,11.4s-6.5,8-9.5,12.2c-0.4,0.9-0.7,1.8-1.1,2.6c-0.4,0.9-0.7,1.7-1.1,2.6c-0.3,0.8-0.8,1.6-1.1,2.3 s-0.7,1.6-1,2.4c-1.9,5.7-3.7,11.3-5.2,17.1c-1.6,5.7-2.9,11.5-3.9,17.4c-0.7,4.1-1.2,8.2-1.5,12.3c-0.3,4.1-0.4,8.3-0.2,12.4 c0.1,3.3,0.6,6.6,1.5,9.6s2.5,6,4.6,8.6c2,2.4,4.4,3.9,6.9,4.4s5.3,0,8-1.5c0.9-0.5,1.6-1.1,2.2-1.7s1.1-1.5,1.4-2.5 c0.6-2.1,1.2-4.3,1.6-6.4c0.4-2.2,0.6-4.4,0.5-6.6c-0.1-1.6-0.1-3.3-0.2-4.9s0-3.3,0.2-4.9c0.5-4.4,1-8.8,1.6-13.2 c0.6-4.4,1.2-8.8,1.9-13.1c1.1-6.7,2.7-13.2,4.9-19.5c2.2-6.3,4.9-12.5,8.5-18.3c1.5-2.5,3-5,4.5-7.4c1.5-2.5,3-4.9,4.6-7.3 c1.2-1.8,2.1-3.6,2.4-5.5c0.3-1.9,0.1-3.8-0.9-5.9c-0.2-0.2-0.4-0.4-0.6-0.7C546.5,533.1,546.3,532.9,546.1,532.7z M543,539.8 c-0.4,0.8-0.7,1.6-1.1,2.3c-0.4,0.8-0.8,1.5-1.3,2.2c-2,3.1-3.9,6.2-5.7,9.4c-1.8,3.2-3.5,6.4-5.2,9.7c-1.9,3.7-3.5,7.5-4.9,11.4 s-2.6,7.8-3.8,11.8c-0.5,1.7-0.8,3.5-1,5.4c-0.3,1.8-0.5,3.6-0.8,5.4c-0.5,2.7-1.1,5.5-1.6,8.2s-1.1,5.5-1.5,8.2 c-0.5,3.3-0.9,6.7-1.2,10s-0.7,6.7-1.1,10c-0.2,1.6-0.3,3.3-0.5,4.9s-0.4,3.2-0.7,4.8c-0.3,1.6-1.5,2.8-2.9,3.3 c-1.4,0.5-3.1,0.2-4.3-0.9c-0.8-0.7-1.5-1.5-2.1-2.3s-1.2-1.8-1.6-2.7c-0.9-1.8-1.5-3.7-2-5.7c-0.4-2-0.7-4-0.7-6c0-1.2,0-2.3,0-3.5 c0-1.2,0-2.3,0-3.5c0.3-7.1,1.2-14,2.5-20.9c1.4-6.9,3.1-13.7,5.2-20.4c0.8-2.8,1.7-5.5,2.7-8.2c1-2.7,2.2-5.3,3.7-7.8 c0.7-1.2,1.4-2.5,2.2-3.8s1.5-2.4,2.4-3.5c2.4-2.9,4.9-5.7,7.4-8.5s5-5.6,7.5-8.4c1-1.1,2.1-2,3.4-2.7c1.2-0.7,2.6-1.3,3.9-1.7 c0.4-0.1,0.9-0.1,1.3-0.1s0.9,0.3,1.3,0.5c0.5,0.3,0.8,0.8,0.9,1.4S543.3,539.2,543,539.8z M712.8,1045.3c-0.3,0.2-0.7,0.6-0.9,1.1 s-0.4,0.9-0.5,1.3c-0.6,3-0.8,5.9-0.6,8.9c0.2,2.9,0.8,5.8,1.8,8.7c0,0.1,0.2,0.3,0.3,0.4c0.2,0.1,0.4,0.3,0.6,0.5 c1.3-0.9,2.1-2.1,2.5-3.4c0.4-1.3,0.6-2.7,0.6-4.1c0-2.3,0-4.6-0.1-6.9c-0.1-2.3-0.3-4.7-0.3-7.3c-0.7,0.2-1.3,0.2-1.9,0.4 S713.2,1045,712.8,1045.3z M559,404.2c-0.7-2.2-1.6-3.3-2.7-3.8c-1.1-0.6-2.6-0.6-4.4-0.7c-1.4-0.1-2.7,0.3-3.7,1 c-1,0.7-1.8,1.9-2.3,3.4c-0.5,1.4-1,2.9-1.3,4.4s-0.5,3-0.5,4.6c0,1.1,0,2.3-0.1,3.5s-0.2,2.3-0.3,3.4c-1,6.4-1.5,12.8-1.8,19.2 c-0.3,6.4-0.3,12.8-0.1,19.3c0.1,2.9,0.4,5.7,0.9,8.5c0.5,2.8,1.2,5.6,2.2,8.4c0.2,0.6,0.5,1.3,0.7,1.9c0.3,0.6,0.5,1.2,0.9,1.8 c0.6,1.1,1.4,1.9,2.4,2.4c1,0.5,2.1,0.6,3.4,0.5c1.4-0.1,2.5-0.5,3.5-1.2s1.7-1.7,2.4-2.9c1-1.8,1.6-3.8,1.9-5.7s0.5-4,0.6-6 c0.2-4,0.3-8,0.5-12.1c0.1-4,0.2-8.1,0.4-12.1c-0.1,0-0.1,0-0.2,0s-0.1,0-0.2,0c0.1-2.5,0.2-5,0.3-7.5s0.2-5,0.2-7.5 c0-2.1,0-4.2,0-6.3s-0.1-4.2-0.4-6.3c-0.2-1.7-0.5-3.4-0.9-5.1C559.9,407.5,559.5,405.8,559,404.2z M556.5,427.2 c-0.2,3.4-0.3,6.7-0.4,10.1s-0.2,6.7-0.3,10.1c-0.1,3.1-0.1,6.1-0.2,9.2c-0.1,3.1-0.1,6.1-0.3,9.2c-0.1,1.3-0.2,2.7-0.5,4 s-0.5,2.6-0.8,3.9c-0.1,0.6-0.4,1.3-0.8,1.8c-0.4,0.5-1,0.9-1.9,0.9c-1-0.7-1.6-1.7-2-2.7s-0.7-2.2-0.9-3.3c-0.4-2-0.7-4-1-6 s-0.5-4-0.6-6c-0.1-2.3-0.1-4.6-0.1-6.9c0-2.3,0.1-4.6,0.1-6.9c0-5.8,0.5-11.5,1.1-17.2s1.4-11.4,1.9-17.2c0.1-1,0.2-1.9,0.5-2.8 c0.3-0.9,0.6-1.8,1.2-2.7c1.1,0,1.8,0.3,2.3,0.7s0.7,1,0.9,1.8c0.9,3.3,1.4,6.6,1.7,9.9S556.7,423.8,556.5,427.2z M536.6,1100.9 c0.3,4,1.6,7.2,3.8,9.8s5.1,4.4,8.7,5.8c0.4,0.1,0.9,0.2,1.4,0.2s0.9-0.2,1.2-0.4c0.5-0.4,0.5-0.8,0.4-1.2c-0.2-0.4-0.5-0.9-0.8-1.2 c-0.9-1.1-1.8-2.2-2.8-3.3s-1.9-2.2-2.8-3.3c-0.9-1-1.7-2.1-2.4-3.2c-0.6-1.1-1-2.4-1-3.9c-1.4-1.1-2.2-1.6-3-1.5 C538.7,1098.8,537.9,1099.5,536.6,1100.9z M703.6,1034.5c-0.3-0.7-0.7-1.2-1.2-1.6s-1.1-0.5-1.9-0.4c-0.7,0-1.4,0.3-1.9,0.8 c-0.5,0.5-0.9,1.2-1.1,2c-0.1,0.5-0.2,0.9-0.2,1.4c0,0.5-0.1,0.9-0.1,1.4c-0.1,0.9-0.3,1.8-0.4,2.8s-0.3,1.8-0.5,2.8 c-0.1,1-0.1,2.1-0.2,3.1s-0.2,2.1-0.3,3.1c-0.2,1.5-0.4,3-0.6,4.5c-0.2,1.5-0.4,3-0.6,4.5c-0.2,1.3-0.2,2.5-0.1,3.7 c0.1,1.2,0.5,2.4,1.1,3.5c0.2,0.4,0.6,0.8,1.1,1.1c0.4,0.3,0.9,0.6,1.3,1c1.4-1.3,2.3-2.8,2.8-4.3s0.8-3.2,1.1-4.7 c0.8-3.8,1.4-7.7,1.8-11.6c0.4-3.9,0.6-7.8,0.6-11.7c-0.1-0.3-0.3-0.5-0.4-0.7C703.8,1035.1,703.7,1034.8,703.6,1034.5z"/></g></svg>