<?xml version="1.0" encoding="UTF-8" standalone="no"?><svg xmlns="http://www.w3.org/2000/svg" xmlns:xlink="http://www.w3.org/1999/xlink" fill="#646044" height="1115.1" preserveAspectRatio="xMidYMid meet" version="1" viewBox="-0.3 -0.2 825.8 1115.1" width="825.8" zoomAndPan="magnify"><g id="change1_1"><path d="M821.9,632.4L821.9,632.4c-3.3-27.4-9-54.4-17-80.3c-8.3-26.5-19.1-52.2-32.1-76.6c-12.5-23.3-27.3-45.6-43.9-66.3 c-11.5-14.3-23.8-27.8-36.7-40.1c-3.2-3.1-6.5-6.1-9.8-9.1c-0.3-0.3-0.7-0.6-1-1c-0.8-0.8-1.8-1.8-2.6-2.3 c-13.9-12.2-28.4-23.4-43.3-33.4c-7.5-5-15.3-9.9-23.1-14.4c-0.6-0.4-1.1-0.6-1.4-0.7c-0.1-0.1-0.2-0.2-0.3-0.3 c-45.1-25.7-93.7-42.2-144.4-49.1c-14.6-2-29.7-3.2-44.7-3.5l0,0c-0.3,0-0.6,0-0.9,0l-2.5,0l0-250c0-1.9-0.9-3.5-2.5-4.5 c-1.7-1-4.1-1-5.8,0c-1.6,0.9-2.5,2.5-2.5,4.5l0,249.9l-1.3,0c-0.2,0-0.4,0-0.5,0l0,0l-0.1,0l0,0.8l0,0h0l-0.2-0.8c-0.3,0-0.7,0-1,0 c-0.3,0-0.6,0-0.8,0c-0.2,0-0.5,0-0.7,0c-9,0.2-17.3,0.6-25.4,1.5c-47.7,4.3-93.6,16.9-136.6,37.4c-11.9,5.7-23.8,12.1-35.4,19.2 c-1.6,0.5-3.1,1.6-4.6,2.7c-0.6,0.4-1.2,0.9-1.8,1.2c-8,5-15.9,10.4-23.5,16.1c-14.9,11-29.4,23.1-43,36.2c-1.5,0.9-2.8,2.4-3.9,3.7 c-0.5,0.6-0.9,1.1-1.4,1.5c-3.1,3.1-6.3,6.4-9.3,9.6c-11.7,12.4-22.9,26-33.4,40.3c-16.8,23-31.4,47.7-43.4,73.5 c-10.9,23.7-19.8,48.6-26.5,73.9c-6.5,25-10.8,50.9-12.9,76.9c-2,25.5-1.9,51.4,0.4,76.9c2.1,22.6,5.8,44.9,11.1,66.4 c5.6,22.4,12.9,44.4,21.8,65.4c0.9,2.2,1.9,4.5,2.9,6.7c0.2,0.4,0.3,0.8,0.5,1.3c0.4,1.1,0.9,2.4,1.6,3.4l0.1,0.2 c8.9,19.5,19.2,38.3,30.6,55.9c1.5,2.3,3,4.5,4.5,6.7c0.4,0.5,0.7,1.1,1.1,1.7c0.9,1.5,1.8,3,2.8,4c11.3,16,23.4,31.2,36.2,45.1 c3.3,3.6,6.7,7.1,10.1,10.6c0.3,0.3,0.5,0.6,0.8,0.9c0.6,0.7,1.3,1.4,2,2c12.3,12.2,25.5,23.7,39,34.2c0.5,0.4,1,0.7,1.5,1 c0.2,0.2,0.3,0.4,0.4,0.4l0.2,0.2c47,35.8,101.6,61.2,157.9,73.6c16.2,3.6,33.1,6.1,50.2,7.7c11.9,1.2,22.5,1.7,32.7,1.6l3.7,0 l0.8,0c73.1-0.4,144.7-20.8,207-59c16.6-10.2,32.9-21.9,48.4-34.7c0.1-0.1,0.2-0.2,0.3-0.4l0.1-0.1c0.2-0.1,0.4-0.2,0.6-0.4 c2.1-1.7,4.1-3.5,6.1-5.2c15.9-13.8,31.1-29.2,45.1-45.8l0,0c1.3-1,2.4-2.6,3.4-4c0.4-0.6,0.9-1.2,1.2-1.6 c12.9-15.8,24.8-32.7,35.4-50.3c1.3-1.4,2.4-3.5,3.4-5.4c0.4-0.8,0.8-1.6,1.2-2.2c10.9-18.9,20.6-39.2,28.7-60.3 c0.9-1.3,1.5-3.3,2-5c0.2-0.7,0.4-1.4,0.6-1.9c8.1-22.1,14.5-45.3,19.1-68.9c4.1-21.4,6.6-43.4,7.6-65.3 C825.5,680.1,824.6,656.1,821.9,632.4z M499.1,270C499.1,270,499.1,270,499.1,270L499.1,270C499.1,270,499.1,270,499.1,270z M762.1,901.4c-0.4,0.6-0.7,1.3-1.1,2c-0.8,1.5-1.6,3-2.6,4.3c-0.5,0.7-1.2,1.2-2.1,1.6c-8.1,2-16.5,4-25.5,6.1 c-7.2,1.7-14.7,3.4-22.5,5.1c0.1-0.2,0.2-0.4,0.3-0.6c1.2-2.1,2.3-4.3,3.5-6.5c0.2-0.4,0.5-0.9,0.7-1.4c0.2-0.4,0.4-0.8,0.6-1.1 c0.3-0.5,0.5-1,0.8-1.5l0.6-1.2c2.2-4.3,4.3-8.7,6.3-12.9c0.6-1.2,1.1-2.4,1.7-3.6c1.8-4,3.7-8.2,5.5-12.4l0.6-1.4 c0.3-0.8,0.7-1.6,1-2.4c2-4.9,3.9-9.6,5.6-14.2c8.1-1.9,16.7-4,26.1-6.3l8.3-2.1c6-1.5,12-3.1,18-4.7 C780.3,866.7,771.7,884.6,762.1,901.4z M416.4,1011.9c12-0.5,24.2-1.2,36.3-2c-2.4,13.1-4.8,23.9-7.3,34c-0.8,3.2-1.7,6.5-2.8,10.4 c-8.6,0.5-17.5,0.9-26.2,1.1V1011.9z M633.5,329.1c12.4,8.4,24.9,17.9,37,28.3l-0.1,0c-8.8,2-16.8,3.9-24.7,5.5 c-2.2-2.3-4.4-4.6-6.6-6.8c-0.8-0.8-1.7-1.7-2.5-2.5l-0.8-0.8c-1.4-1.4-2.9-2.8-4.3-4.2c-1.5-1.4-3-2.8-4.5-4.3 c-0.8-0.8-1.6-1.5-2.5-2.2l-0.5-0.4c-5.2-4.7-9.6-8.5-13.9-12c-1.1-0.9-2.3-1.8-3.5-2.8l-2.2-1.7c-0.5-0.4-1-0.8-1.6-1.2 c-1.7-1.3-3.4-2.6-5.1-3.8c-1.4-1-2.7-2-4.1-3l-0.2-0.1c0.3-0.1,0.5-0.1,0.8-0.2c1.2-0.3,2.3-0.6,3.3-0.8l2.7-0.6 c2-0.4,4.1-0.9,6.1-1.3c2.2-0.5,2.8-0.2,4.7,1l0.5,0.3v0C619.1,319.7,626.4,324.3,633.5,329.1z M688.4,493.3 c-8-22.2-17.4-43.5-28-63.5c9.1-1.9,17.6-3.8,25.9-5.7c12.6,19.5,24,40.4,33.7,62.2C709.4,488.7,698.8,491.1,688.4,493.3z M725.8,484.9c-9.6-21.8-20.8-42.7-33.4-62.3c11.3-2.6,22.5-5.4,33.2-8.1c14.9,18.8,28.4,39.1,40.2,60.5 C752.3,478.6,738.8,481.9,725.8,484.9z M752.2,562.8c-6.1-24.7-14.2-49-24.1-72.4c13.5-3.2,27.1-6.5,40.5-10 c11.8,22.4,21.8,46.1,29.6,70.4C783,555.1,767.5,559.1,752.2,562.8z M460.2,962c-2,14.9-4.2,28.6-6.5,41.8 c-12.3,0.8-24.9,1.5-37.4,2.1v-41.6C430.8,963.8,445.6,963,460.2,962z M615.4,342c1.8,1.6,3.6,3.2,5.5,4.9c0.9,0.8,1.8,1.6,2.7,2.4 c1.5,1.4,3.1,2.8,4.6,4.3c1.3,1.3,2.6,2.5,3.9,3.8l0.8,0.8c0.9,0.9,1.7,1.7,2.6,2.6c1.2,1.2,2.4,2.4,3.5,3.7 c-6.2,1.3-12.3,2.5-18.5,3.7c-1.9-2.5-3.9-4.9-6.1-7.6c-0.7-0.9-1.5-1.8-2.2-2.6l-0.3-0.4c-1.6-1.9-3.3-3.8-4.9-5.7l-0.9-1 c-0.7-0.8-1.4-1.6-2.1-2.3c-2.2-2.4-4.4-4.8-6.7-7.1c-1.2-1.3-2.5-2.6-3.8-3.8l-0.4-0.4c-1.2-1.2-2.5-2.5-3.7-3.7 c-0.4-0.4-0.8-0.8-1.1-1.1c-0.5-0.5-1-1-1.6-1.5c-0.3-0.3-0.6-0.5-0.9-0.8c-0.2-0.2-0.5-0.4-0.7-0.7c-1.3-1.3-2.7-2.5-4.1-3.8 l-0.4-0.4c-0.4-0.4-0.8-0.7-1.2-1.1c-0.6-0.5-1.1-1-1.7-1.5c-0.5-0.5-1.1-1.1-1.8-1.7c-0.1-0.1-0.1-0.1-0.2-0.2 c0.2,0,0.4-0.1,0.6-0.1l8.7-1.7c0.3,0,0.6,0,0.9,0.1c2,1.4,4.1,2.9,6.1,4.4c0.7,0.5,1.4,1,2,1.5l1.1,0.8h0 c6.5,4.9,12.8,10,18.9,15.2L615.4,342z M654.5,583.9c-3.6-25.6-8.6-50.8-14.8-75c14.8-2.7,29.9-5.6,44.9-8.8 c8.2,23.7,14.9,48.5,19.8,73.7C687.8,577.4,671,580.8,654.5,583.9z M710.1,572.6c-4.9-25.3-11.6-50-19.8-73.7 c10.7-2.3,21.4-4.6,31.9-7.1c9.8,23,17.9,47.4,24.2,72.4C734.5,567.1,722.2,569.9,710.1,572.6z M720,654.2 c-1.3-25.6-4.3-51.1-8.8-75.9c12.2-2.7,24.5-5.5,36.6-8.4c5.7,24.5,9.6,49.7,11.6,75.1C746.4,648.2,733.2,651.3,720,654.2z M720.3,660.2c12.9-2.9,26.2-6,39.6-9.2c1.4,22.1,1.5,44.4,0.1,66.4c-13.3,3.3-27,6.6-40.7,9.7C720.9,704.9,721.2,682.4,720.3,660.2 z M517.1,447c-3.9-19.7-8.1-37.8-12.9-55.3c12.8-1.4,25.8-3,38.8-4.7c7.2,16.8,13.6,34.6,19.6,54.2 C547.6,443.4,532.3,445.3,517.1,447z M601.8,676.2c-0.2-25.9-1.5-51.7-3.7-76.8c16.9-2.6,34.2-5.5,51.4-8.6 c3.2,25,5.2,50.7,5.8,76.5C637.7,670.5,619.7,673.5,601.8,676.2z M661.2,666.2c-0.7-25.9-2.6-51.6-5.9-76.5 c16.5-3.1,33.4-6.5,50.2-10.1c4.5,24.7,7.4,50.2,8.7,75.9C696.7,659.3,678.9,662.9,661.2,666.2z M712.8,734.6 c-1.7,19.7-4.3,39.2-7.9,58.2c-17.4,3.8-35.3,7.3-53.2,10.7c3.1-19,5.5-38.5,7.1-57.8C676.5,742.3,694.6,738.6,712.8,734.6z M703.7,799.1c-4.7,23.1-10.7,45.6-17.9,67c-16.3,3.3-33.2,6.6-50.2,9.5c6.1-21.3,11.2-43.5,15.1-66 C668,806.5,685.9,802.9,703.7,799.1z M586,511.8c-4.4-22.8-9.7-44.9-15.8-65.8c13.1-1.9,26.6-4.2,40.4-6.6 c8.3,20.4,15.6,42.2,21.8,64.8C617,506.9,601.4,509.5,586,511.8z M601.8,682.2c17.6-2.6,35.6-5.6,53.6-8.9 c0.1,5.9,0.1,10.5,0.1,14.9c0,5-0.1,10.5-0.3,16.6l-0.1,3.7c-0.1,4.5-0.3,8.9-0.5,13.4l-0.1,1.6c0,0.9-0.1,1.8-0.1,2.7 c-0.3,4.7-0.6,9.5-0.9,14.5c-17.6,3.3-35.7,6.3-53.7,9.1c0.3-4.7,0.6-9.3,0.8-14c0.1-2.2,0.2-4.5,0.3-6.7l0.2-5.1 c0.1-1.9,0.2-3.7,0.2-5.6c0.1-2.6,0.1-5.2,0.2-7.8l0.1-4.2c0-2,0.1-4,0.1-6c0-1.9,0-3.8,0.1-5.7l0-4.7c0-1.7,0-3.4,0-5.1 L601.8,682.2z M593.3,813.2c2.6-18.9,4.6-38.3,6-57.5c17.6-2.7,35.6-5.7,53.6-9.1c-1.7,19.6-4.1,39.1-7.3,57.9 C628.5,807.7,610.9,810.6,593.3,813.2z M544,995.2c0.5-1,0.9-2,1.4-3.1l1.2-2.7c0.3-0.7,0.6-1.4,0.9-2.1c1.4-3.3,2.8-6.6,4.2-10 l0.4-0.9c0.2-0.4,0.3-0.8,0.5-1.2c1.4-3.5,2.8-7,4.1-10.6l0.7-1.9c1.3-3.5,2.6-7.1,3.8-10.7c8.4-1.1,17.1-2.3,25.9-3.6l1.3-0.2 c0.5-0.1,1-0.1,1.5-0.2c4.6-0.7,9.2-1.4,13.9-2.1c-6.7,14.2-14,29.1-22.3,43.3c-0.4,0.5-0.9,0.9-1.4,1c-5.9,0.9-11.7,1.7-17.6,2.5 C556.3,993.6,550.2,994.4,544,995.2z M617.4,912.7c-1.3,3.5-2.6,6.9-3.9,10.3c-0.6,1.5-1.2,3-1.8,4.5c-1.4,3.5-3,7.2-4.5,10.9 c-0.5,0.9-0.9,1.2-1.4,1.3c-6.6,1-13.1,2-19.7,3c-7.3,1.1-14.9,2.1-22.7,3.1c5.9-17.6,11.2-36.2,15.7-55.3 c15.7-2.2,31.9-4.7,48.3-7.5c-1,3.4-2.1,6.9-3.2,10.3c-0.3,0.8-0.6,1.7-0.8,2.5l-0.5,1.6c-1.2,3.6-2.4,7.2-3.7,10.8 c-0.4,1.2-0.9,2.4-1.3,3.5L617.4,912.7z M522.7,891.5c3.3-20.7,6.2-42.3,8.5-64.3c18.1-2,36.7-4.4,55.2-7.1 c-3.3,22.5-7.4,44.4-12.2,65.1C557.5,887.6,540.2,889.7,522.7,891.5z M580.4,884.4c4.8-20.9,8.8-42.8,12-65.1 c17-2.5,34.5-5.4,52.1-8.6c-4.1,22.8-9.3,45-15.4,66C613.3,879.5,596.9,882,580.4,884.4z M595.9,692.8l0,2.2c0,1.8,0,3.5-0.1,5.3 c0,2-0.1,3.9-0.1,5.9l-0.1,4.3c-0.1,2.6-0.1,5.2-0.2,7.8c-0.1,1.9-0.1,3.7-0.2,5.6l-0.2,5.1c-0.1,2.2-0.2,4.5-0.3,6.7 c-0.3,5-0.6,10-0.9,15c-19,2.8-38.2,5.4-57.3,7.6c1.1-22.2,1.7-45,1.8-67.8c19-2.1,38.4-4.6,57.7-7.4 C595.9,686.3,595.9,689.6,595.9,692.8z M538.3,684.5c0-1.1,0-2.2,0-3.3l0-2.7c-0.1-23.1-0.7-47-2-70.9c18.4-2.1,37.3-4.6,56-7.4 c2.2,25.2,3.4,51,3.6,76.8C576.8,679.9,557.5,682.4,538.3,684.5z M572.7,891.4c-4.7,19.3-10,37.9-15.9,55.3 c-15.1,1.9-30.6,3.7-45.9,5.2c4-17.2,7.7-35.5,10.8-54.3C538.3,895.8,555.5,893.7,572.7,891.4z M654.1,939.2 c-0.4,0.8-0.8,1.6-1.3,2.4c-0.8,1.5-1.7,3.1-2.6,4.7c-1.2,2.2-2.5,4.4-3.7,6.5c-1.1,1.8-2.2,3.7-3.3,5.5c-1.1,1.8-2.1,3.5-3.2,5.3 c-1.4,2.2-2.8,4.3-4.2,6.5l-0.4,0.6c-0.8,1.3-1.7,2.5-2.5,3.8c-1.6,2.4-3.3,4.9-4.9,7.2c-0.6,0.6-1.3,1-2.1,1.3 c-6.8,1.2-14.2,2.4-22.7,3.8c-4.9,0.8-9.8,1.5-14.7,2.3c0.2-0.4,0.5-0.8,0.7-1.2l1.4-2.5c0.7-1.3,1.5-2.6,2.2-3.9 c1.2-2.2,2.4-4.5,3.6-6.7c0.9-1.7,1.8-3.5,2.7-5.2c1-1.9,1.9-3.8,2.9-5.8c1.1-2.1,2.1-4.3,3.1-6.4c0.7-1.4,1.3-2.9,2-4.3l1.2-2.7 c0.4-0.9,0.8-1.8,1.3-2.8c1-2.2,1.1-2.5,3.2-2.9c2.3-0.4,4.6-0.7,6.9-1.1c4.4-0.7,8.8-1.5,13.3-2.2c0.8-0.1,1.6-0.3,2.4-0.4 c0.7-0.1,1.5-0.3,2.2-0.4c0.6-0.1,1.2-0.2,1.8-0.3c0.7-0.1,1.3-0.2,2-0.3c4.5-0.8,9-1.6,13.6-2.5L654.1,939.2z M528.5,519.5 c-2.9-23.2-6.3-45.6-10.3-66.7c15.5-1.7,31-3.7,46.1-5.9c6.1,20.8,11.4,42.9,15.9,65.8C562.8,515.2,545.5,517.5,528.5,519.5z M532.3,691.1c-0.1,22.8-0.7,45.6-1.9,67.8c-16.3,1.8-32.9,3.4-49.3,4.7c0.7-22.3,1.1-45.2,1.2-67.9 C498.8,694.5,515.6,692.9,532.3,691.1z M516.4,1045.4c0.3-0.4,0.6-0.9,0.9-1.3c0.2-0.3,0.4-0.6,0.6-1c0.2-0.3,0.3-0.5,0.5-0.8 c1.7-2.6,3.2-5,4.7-7.4c0.7-1.2,1.4-2.3,2.1-3.5c1.4-2.3,2.7-4.6,4-7l0.5-0.8c0.4-0.7,0.8-1.5,1.2-2.2c1.5-2.8,3.1-5.8,4.7-8.9 l1.3-2.5c1.4-2.8,2.8-5.7,4.2-8.5c7.2-0.9,14.6-1.8,21.9-2.8l1.8-0.2c4-0.5,7.9-1.1,12-1.7c0,0.1-0.1,0.2-0.1,0.2 c-0.3,0.5-0.5,0.9-0.7,1.4l-0.6,1c-0.3,0.5-0.6,0.9-0.9,1.4c-1.6,2.6-3.3,5.1-5.1,7.6l-0.9,1.3c-0.4,0.6-0.8,1.3-1.3,1.9 c-2.7,3.8-5.3,7.5-8.1,11.2c-2.6,3.4-5.3,6.9-8.2,10.4c-0.3,0.3-0.6,0.7-0.9,1l-0.7,0.8c-2.2,2.6-4.5,5.3-6.8,7.9 c-0.5,0.5-1,0.8-1.3,0.9c-7.2,1.1-13.9,2.1-20.3,3l-1.1,0.1c-1.2,0.1-2.4,0.3-3.7,0.4c-0.4,0-0.8,0.1-1.2,0.1L516.4,1045.4z M597.5,593.5c-2.5-25.9-6-51.5-10.5-75.9c15.5-2.3,31.3-4.9,46.8-7.7c6.3,24.1,11.3,49.4,14.9,75 C631.8,588.1,614.6,590.9,597.5,593.5z M568.5,440.3c-5.8-19-12.3-37.2-19.5-54.2c10.9-1.5,21.9-3.2,32.8-5 c9.6,16.4,18.5,34.1,26.4,52.8C594.6,436.3,581.2,438.4,568.5,440.3z M523.4,526c2.9,24.7,5.1,50.4,6.6,76.5 c-16.1,1.8-32.5,3.3-48.6,4.7c-0.7-26.2-1.8-52-3.3-76.7C493.1,529.1,508.4,527.6,523.4,526z M530.2,764.9 c-1.1,19.2-2.6,38.4-4.4,57.1c-15.7,1.7-31.6,3.2-47.2,4.4c1-18.6,1.9-37.7,2.5-56.8C497.3,768.2,513.9,766.7,530.2,764.9z M525.1,827.9c-2.3,22.2-5.2,43.8-8.5,64.3c-14.3,1.5-28.8,2.7-43.1,3.8c1.8-20.5,3.4-41.9,4.7-63.7 C493.6,831.1,509.4,829.6,525.1,827.9z M515.6,898.2c-3.3,19.3-6.9,37-11,54.3c-12.5,1.2-25.2,2.2-37.6,3.1 c2.2-17.2,4.2-34.8,5.9-53.7C487,900.9,501.3,899.6,515.6,898.2z M584.8,374.6c-1.5-2.6-3.1-5.1-4.7-7.6c-0.6-0.9-1.2-1.9-1.8-2.8 c-1.6-2.5-3.2-4.9-4.9-7.4l-0.6-0.9c-0.3-0.4-0.5-0.8-0.8-1.2c-1.8-2.6-3.8-5.3-6-8.3c-0.8-1-1.5-2.1-2.3-3.1l-0.2-0.3 c-1.4-1.9-2.9-3.8-4.4-5.7c-0.3-0.3-0.5-0.7-0.8-1c-0.3-0.4-0.7-0.9-1-1.3l-0.7-0.8c-1.9-2.4-4-4.8-6.2-7.4l-0.8-1 c-0.2-0.2-0.4-0.5-0.6-0.8c7.2-1.2,13.3-2.2,19-3.3c16.2,13.8,31.7,29.7,46,47.5C603.9,371.3,594.2,373,584.8,374.6z M502.6,386 c-5.5-19.2-11.4-36.3-18.1-52.2c9.8-1,19.4-2.1,28.7-3.3c9.9,15.2,18.9,31.9,27.4,50.9C527.7,383.1,514.9,384.6,502.6,386z M498.2,392.3c3.8,13.8,7.4,28.4,10.5,43.3c0.9,4,1.7,8,2.5,12c-13.1,1.4-26.3,2.6-39.2,3.7c-2-19.8-4.2-38.2-6.6-56.1 C476.5,394.4,487.5,393.4,498.2,392.3z M512.3,453.5c4,21.2,7.5,43.6,10.3,66.7c-15,1.7-30.1,3.1-44.9,4.4 c-1.4-23.3-3.2-45.9-5.2-67.3C485.8,456.1,499.2,454.9,512.3,453.5z M503.2,958.6c-3.7,15.1-7.7,29-12,42.3 c-10.3,0.9-20.9,1.8-31.4,2.6c0.5-2.7,1-5.4,1.4-8.1c1.7-10.4,3.4-21.4,5-33.7C478.3,960.8,490.7,959.7,503.2,958.6z M591.8,1034 c0.9-0.9,1.8-1.7,2.6-2.6l0.6-0.6c0.2-0.2,0.5-0.5,0.7-0.7c0.9-0.9,1.7-1.8,2.5-2.7c0.5-0.5,1-1.1,1.5-1.6l0.8-0.9 c1.1-1.2,2.3-2.4,3.4-3.6c1.3-1.4,2.6-2.9,3.8-4.4l0.5-0.6c1.7-1.9,3.3-3.8,4.9-5.7c1-1.2,2.1-2.5,3.1-3.8l0.4-0.5 c0.4-0.5,0.9-1.1,1.3-1.6c0.7-0.9,1.4-1.7,2.1-2.6c0.3-0.4,0.7-0.9,1-1.3c0.3-0.4,0.5-0.7,0.8-1.1c1-1.3,1.9-2.5,2.9-3.9l1.1-1.5 c0.6-0.8,1.2-1.6,1.8-2.4c0.3-0.4,0.6-0.9,0.9-1.3l1-1.4c0.6-0.8,1.3-1.2,2-1.4c0.3-0.1,0.5-0.1,0.8-0.2l4.1-0.7 c0.7-0.1,1.3-0.2,1.9-0.3c1.6-0.3,3.2-0.6,4.7-0.9c1.2-0.2,2.4-0.5,3.5-0.7c1.3-0.2,2.6-0.5,3.9-0.7c2-0.4,3.9-0.7,5.9-1.1l2.3-0.4 c-0.7,0.9-1.4,1.8-2.2,2.7c-2.5,3-5.2,6.1-8,9.2l-0.8,0.9c-0.3,0.4-0.7,0.8-1.1,1.2c-3.2,3.6-6.6,7.1-10.1,10.7 c-0.4,0.4-0.9,0.9-1.3,1.3l-1,1c-3.1,3.1-5.9,5.9-8.7,8.5c-0.8,0.8-1.7,1.6-2.5,2.4c-2.8,2.6-5.8,5.2-8.8,7.9 c-1,0.7-2.1,1.2-3.6,1.6c-6.8,1.5-12.5,2.8-17.7,3.9l-2,0.4L591.8,1034z M666.1,929.1c0.3-0.7,0.7-1.4,1-2.1 c0.5-1.1,1.1-2.2,1.6-3.3c0.3-0.7,0.7-1.4,1-2.1l0.2-0.5c0.7-1.4,1.4-2.9,2-4.3c1.6-3.5,3.2-7.1,5-11.2l0.7-1.5 c0.4-0.9,0.8-1.9,1.2-2.8c1.5-3.5,3-7.3,4.8-11.9l0.7-1.7c0.3-0.8,0.6-1.5,0.9-2.3c1.8-4.6,3.5-9.4,5.2-14.1 c8.1-1.7,16.7-3.5,26.3-5.7c0.6-0.1,1.2-0.3,1.7-0.4c0.6-0.1,1.2-0.3,1.9-0.4c2.8-0.6,5.5-1.2,8.3-1.9c0,0,0,0,0,0 c-0.3,0.8-0.6,1.6-0.9,2.4l-0.1,0.4c-1.2,2.9-2.3,5.9-3.6,8.8h0c-0.8,2-1.7,4-2.6,6c-1.4,3.2-2.8,6.3-4.2,9.5l-0.6,1.3 c-0.5,1.1-1,2.2-1.5,3.3c-2.3,4.9-4.5,9.4-6.7,13.5l-0.2,0.4c-1.9,3.7-4.1,7.8-6.9,12.7c-0.5,0.7-1.1,1.1-1.8,1.4 c-5.7,1.2-11.4,2.4-17.1,3.5C676.9,927,671.5,928.1,666.1,929.1L666.1,929.1z M638.1,503.2c-6.1-22.5-13.4-44.3-21.7-64.8 c12.7-2.3,25.4-4.8,37.9-7.3c10.7,19.9,20.2,41.3,28.2,63.5C667.7,497.6,652.8,500.5,638.1,503.2z M546.6,380.5 c-8.4-19-17.2-35.7-27-51c7.9-1.1,15.2-2.1,22.3-3.2c13,14.4,25.3,30.9,36.6,49.3C567.7,377.4,557,379.1,546.6,380.5z M450,284.7 c0.3,0.3,0.6,0.7,0.9,1.1c0.8,1,1.6,2,2.3,3l0.6-0.5l0,0l-0.5,0.6c0.7,0.9,1.4,1.8,2.1,2.8c0.4,0.6,0.8,1.1,1.2,1.7l0.2,0.4 c0.8,1.2,1.6,2.4,2.4,3.6l1,1.5c0.9,1.4,1.8,2.8,2.6,4.2l0.7,1.2c0.9,1.5,1.8,3.1,2.6,4.6l0.5,1c0.9,1.6,1.7,3.2,2.6,4.8l0.6,1.1 c0.8,1.6,1.6,3.2,2.4,4.8l1,2.1c0.6,1.3,1.2,2.5,1.8,3.8c0.3,0.7,0.6,1.4,0.9,2.1c-7.5,0.7-14.9,1.3-22,1.8 c-3-13.5-6.9-29.3-12.7-44.5l-0.7,0.3l0.6-0.5c-1.9-5.1-4.3-10.9-7.4-16.4c0.6,0.4,1.3,0.9,1.8,1.3c2.6,2,5.1,4.2,7.7,6.8l0.3,0.3 c1.1,1.1,2.1,2.2,3.2,3.4l0.6,0.7C448.3,282.7,449.2,283.7,450,284.7z M489.2,1007c-5.8,17.2-11.9,32.1-18.5,45.3 c-7.2,0.6-14.5,1.2-21.8,1.6c3.6-13.3,6.8-27.4,9.9-44.4C468.6,1008.7,478.9,1007.9,489.2,1007z M480.6,1045.2l0.4-0.9 c0.2-0.5,0.4-0.9,0.6-1.4l0.4-1c1.5-3.3,2.8-6.4,4-9.4c0.5-1.3,1-2.6,1.6-3.9c1.1-2.8,2.2-5.7,3.3-8.6l0.4-1.2 c0.3-0.8,0.6-1.6,0.9-2.3c1.2-3.3,2.4-6.7,3.5-10.1c7.5-0.7,15-1.5,22.4-2.3l2-0.2c4.7-0.5,9.4-1,14.1-1.6c0,0,0,0,0.1,0 c-8.5,17.4-17.4,32.5-27.1,46.1c-5.9,0.7-11.6,1.4-17,1.9c-3.4,0.4-6.8,0.7-10.2,1l-1.4,0.1c-0.3,0-0.5,0-0.8,0 C478.6,1049.4,479.6,1047.3,480.6,1045.2z M560.5,1040.4c-3.1,0.6-6.2,1.1-9.3,1.6c0.4-0.5,0.9-1,1.3-1.5l0.9-1.1 c0.4-0.5,0.9-1,1.3-1.6l0.3-0.4c0.1-0.2,0.3-0.3,0.4-0.5c1.3-1.5,2.5-3.1,3.7-4.7l2.2-2.8c0.6-0.7,1.1-1.4,1.7-2.1 c1-1.3,2-2.7,3-4.1l2.2-3c0.9-1.3,1.9-2.6,2.8-3.9c0.3-0.5,0.7-1,1-1.5c0.3-0.4,0.5-0.8,0.8-1.2l0.5-0.7c1.6-2.4,3.3-4.7,4.8-7.1 c1.2-1.9,2.4-3.8,3.6-5.7c0.2-0.4,0.5-0.8,0.7-1.2l0.7-1.1c0.3-0.6,0.7-1.1,1-1.6c0.3-0.4,0.7-0.7,0.8-0.8l0,0 c1.2-0.2,2.4-0.4,3.6-0.6l2.9-0.5l0.3,0c0.2,0,0.5,0,0.7-0.1c2.3-0.4,4.6-0.7,6.9-1.1c1-0.2,2-0.3,3-0.5c0.9-0.1,1.7-0.3,2.6-0.4 c1-0.2,1.9-0.3,2.9-0.4c1.2-0.2,2.3-0.4,3.5-0.5c3.6-0.6,7.3-1.2,10.9-1.8c-1.2,1.6-2.4,3.2-3.6,4.8l-0.4,0.6 c-1.8,2.3-3.7,4.6-5.5,6.9l-1.3,1.6c-0.7,0.9-1.4,1.8-2.2,2.7c-1.2,1.4-2.4,2.8-3.6,4.2l-1.9,2.2c-1.2,1.4-2.5,2.9-3.8,4.3 c-0.8,0.9-1.6,1.8-2.4,2.6l-1.2,1.2c-1.9,2.1-3.9,4.2-5.9,6.2c-0.7,0.7-1.4,1.4-2.2,2.2l-1,1c-1.7,1.7-3.3,3.3-5,4.9 c-1.1,0.9-2.4,1.6-3.9,2.1c-4.6,0.9-9.3,1.8-14,2.6L560.5,1040.4z M711.2,791.4c3.5-19.2,6.1-38.7,7.7-58.2 c13.3-3,26.9-6.2,40.7-9.6c-1.5,19.7-4.1,39.3-7.8,58.4C738.6,785.2,724.9,788.4,711.2,791.4z M458.6,389.9 c-14.2,1-28.3,1.8-42.2,2.4v-54.1c11-0.3,22-0.9,32.9-1.5C452.6,352.7,455.7,370.1,458.6,389.9z M466.1,451.8 c-16.6,1.2-33.3,2.2-49.7,2.9v-56.5c14.2-0.6,28.7-1.4,43.1-2.4C461.9,413.3,464.1,431.7,466.1,451.8z M475.5,607.5 c-19.8,1.5-39.7,2.7-59.1,3.5v-76.6c18.5-0.8,37.3-2,55.9-3.5C473.7,555.7,474.8,581.4,475.5,607.5z M476.5,690.2 c-20,1.5-40.3,2.5-60.1,3.2v-76.6c19.5-0.8,39.5-1.9,59.3-3.5c0.3,11.9,0.5,23.9,0.6,35.7c0,2.5,0,4.9,0.1,7.4l0,4.7 C476.4,670.6,476.5,680.4,476.5,690.2z M476.4,696.2c-0.1,22.9-0.5,45.7-1.2,67.9c-19.7,1.5-39.5,2.7-58.9,3.4v-68.1 C436.2,698.7,456.4,697.6,476.4,696.2z M475.1,770c-0.6,19.3-1.5,38.4-2.5,56.8c-18.7,1.4-37.7,2.5-56.2,3.2v-56.6 C435.7,772.7,455.4,771.5,475.1,770z M472.2,832.8c-1.3,21.9-2.9,43.3-4.7,63.7c-17,1.2-34.3,2.2-51.2,2.9V836 C434.7,835.2,453.5,834.1,472.2,832.8z M467,902.4c-1.8,19-3.7,36.5-5.9,53.7c-14.9,1-29.9,1.8-44.7,2.4v-53.2 C433.1,904.6,450.1,903.6,467,902.4z M657.4,424.4c-9.9-17.9-21-35-33.1-51c7.4-1.5,13.6-2.7,19.3-3.9c14,15.1,27.1,31.7,39,49.4 C674,420.8,665.5,422.6,657.4,424.4z M600.3,309.4c-4.1,0.9-8.1,1.7-12.2,2.5c-0.8,0.1-1.6-0.1-2.3-0.4c-1.2-0.8-2.3-1.6-3.4-2.3 c-0.3-0.2-0.6-0.4-0.9-0.6c-2.6-1.7-5.3-3.4-7.9-5.1c-10.5-6.5-21.4-12.5-32.3-17.8c-8.4-4-16.9-7.6-25.6-10.9 c18.6,5.1,36.8,11.5,54.3,19.1c10.2,4.5,20.6,9.6,31,15.3L600.3,309.4z M526.8,322.6c-3.6,0.5-7.1,1.1-10.7,1.6 c-1.1-1.6-2.2-3.2-3.3-4.8c-0.6-0.8-1.2-1.7-1.8-2.5l-1.4-1.9c-0.5-0.6-0.9-1.2-1.4-1.9c-1.1-1.4-2.1-2.8-3.2-4.1l-0.5-0.7 c-0.3-0.4-0.7-0.9-1.1-1.3c-1.1-1.4-2.3-2.7-3.4-4.1l-0.3-0.4c-0.5-0.6-0.9-1.1-1.4-1.7c-1.1-1.2-2.2-2.5-3.3-3.7 c-0.7-0.8-1.5-1.6-2.3-2.4c-1-1-2-2-2.9-3c-1-1-2-2-3-3c-0.8-0.8-1.6-1.6-2.5-2.3c-1.3-1.2-2.6-2.3-3.9-3.4l-0.4-0.4 c-0.5-0.5-1.1-0.9-1.6-1.4c-1.4-1.1-2.8-2.2-4.2-3.3c-0.2-0.2-0.5-0.4-0.7-0.6c-0.3-0.2-0.6-0.5-0.9-0.7c-0.1-0.1-0.3-0.2-0.4-0.3 l-0.4-0.2c-0.7-0.5-1.4-1-2.1-1.5l-0.4-0.3c-1.3-0.9-2.5-1.7-3.8-2.6c-0.4-0.3-0.8-0.5-1.3-0.8c25.6,9.8,50.1,26.6,72.8,50.2 C533.6,321.5,530.2,322,526.8,322.6z M481.4,291.7c1.4,1.3,2.8,2.7,4.2,4.1c0.9,1,1.9,1.9,2.8,2.9c0.8,0.8,1.5,1.6,2.2,2.4 c1.1,1.2,2.2,2.5,3.3,3.7c0.5,0.6,1,1.2,1.6,1.8c1.1,1.4,2.3,2.7,3.4,4.1c0.4,0.5,0.8,1.1,1.3,1.6l0.2,0.3c1,1.3,2.1,2.7,3.1,4 c0.6,0.7,1.1,1.5,1.7,2.3l0.9,1.2c0.6,0.8,1.2,1.7,1.8,2.5c0.6,0.8,1.1,1.6,1.6,2.3c-9.4,1.2-18.6,2.2-27.4,3.1 c-0.7-1.5-1.3-3-2-4.5c-0.5-1.2-1.1-2.4-1.7-3.5l-0.7-1.5c-0.2-0.4-0.4-0.8-0.5-1.1c-0.8-1.7-1.7-3.3-2.5-5l-0.6-1.1 c-0.9-1.7-1.8-3.3-2.7-5l-0.6-1c-0.9-1.6-1.8-3.2-2.7-4.7l-0.7-1.2c-0.9-1.4-1.8-2.8-2.7-4.2l-0.4-0.7c-0.2-0.3-0.4-0.6-0.6-1 c-0.7-1.1-1.4-2.1-2.2-3.2l-0.9-1.2c-0.3-0.4-0.6-0.9-0.9-1.3c-0.5-0.7-1.1-1.5-1.6-2.2l-1.2-1.6c-0.4-0.5-0.7-1-1.1-1.4l-0.6-0.8 c-0.2-0.2-0.4-0.4-0.6-0.7l-0.4-0.5c-0.7-0.8-1.3-1.6-2-2.4c-0.3-0.4-0.7-0.8-1-1.2l-0.3-0.4c-0.7-0.8-1.4-1.5-2.1-2.3 c-0.4-0.4-0.8-0.8-1.3-1.2l-0.2-0.2c-0.7-0.7-1.5-1.4-2.2-2.1c-0.5-0.5-1.1-1-1.6-1.5c-0.7-0.6-1.4-1.2-2.2-1.8l-0.5-0.4 c-0.2-0.2-0.4-0.3-0.6-0.5c-0.2-0.2-0.5-0.3-0.7-0.5l-0.5-0.4c-0.3-0.2-0.6-0.5-0.9-0.7c0.4,0.1,0.8,0.3,1.3,0.4l1.8,0.6 c0.8,0.3,1.7,0.6,2.5,0.9c8.1,3.1,16.4,7.7,24.5,13.6c4.2,3.1,8.4,6.5,12.5,10.3c0.2,0.2,0.4,0.4,0.7,0.6L481.4,291.7z M436.4,289.9 c1.3,3.5,2.5,7,3.5,10.4l0.7-0.2l0,0l-0.7,0.3c2.7,8.8,5.2,18.2,8,30.5c-10.5,0.7-21.1,1.1-31.6,1.5v-70.7c0.6,0.1,1.2,0.2,1.8,0.4 c1,0.2,2.1,0.6,3.4,1c0.7,0.3,1.3,0.8,1.7,1.3l0.3,0.3c0.2,0.2,0.3,0.4,0.4,0.5c1.2,1.6,2.4,3.3,3.6,5.3c2.7,4.5,5.1,9.6,7.6,16.1 c0.3,0.8,0.6,1.7,0.9,2.5L436.4,289.9z M426.6,1104.8c0.4-0.4,0.7-0.8,1.1-1.2l0.5-0.6c0.1-0.2,0.3-0.3,0.4-0.5 c0.3-0.3,0.5-0.6,0.7-1l0.5-0.7c0.2-0.2,0.4-0.5,0.5-0.8c0.2-0.2,0.3-0.5,0.5-0.7l0.5-0.7c0.2-0.3,0.4-0.7,0.7-1.1 c0.2-0.3,0.4-0.6,0.6-1l0.6-1.1c0.5-0.9,1-1.7,1.5-2.6l0.3-0.6c2.9-5.5,5.6-11.8,8.1-19.1c1.6-4.7,3-9.5,4.1-13.3 c5.9-0.4,12.1-0.8,18.9-1.4l1.2-0.1c0.1,0,0.1,0,0.2,0c-0.1,0.2-0.2,0.4-0.3,0.6c-1.4,2.6-2.8,5-4.1,7.3c-3.1,5.2-6.1,9.8-9.2,14 l-1.2,1.6c-0.3,0.4-0.6,0.8-0.9,1.2c-0.4,0.5-0.7,0.9-1.1,1.4c-2.5,3.1-5,5.8-7.6,8.4C437.6,1098.2,432.1,1102.2,426.6,1104.8 C426.6,1104.9,426.6,1104.8,426.6,1104.8z M501.6,1065l0.5-0.6c1.3-1.6,2.6-3.3,3.9-4.9l0.8-1c1.2-1.5,2.4-3.1,3.5-4.7 c4.9-0.6,9.9-1.3,14.8-2l5.9-0.8c1.5-0.2,2.9-0.4,4.3-0.6c0,0,0,0,0,0c-0.4,0.4-0.8,0.8-1.2,1.2l-1.4,1.4c-1.2,1.2-2.4,2.4-3.6,3.6 c-0.7,0.7-1.4,1.3-2.1,2l-2.1,1.9c-0.7,0.7-1.5,1.4-2.2,2c-1.4,1.3-2.9,2.5-4.3,3.7l-1.1,0.9c-0.4,0.3-0.8,0.7-1.2,1 c-2,1.6-4.1,3.3-6.2,4.9l-0.5,0.4c-14.7,11.1-30,19.7-45.5,25.7C477,1090.9,489.6,1079.5,501.6,1065z M519.6,1073 c0.2-0.2,0.4-0.4,0.7-0.6l0.5-0.4c1.9-1.6,3.7-3.1,5.6-4.7c0.6-0.5,1.2-1.1,1.8-1.7l2-1.8c0.9-0.8,1.9-1.7,2.8-2.5 c1.1-1.1,2.2-2.1,3.3-3.2l1.7-1.7c0.5-0.5,0.9-0.9,1.4-1.4c1.8-1.8,3.6-3.7,5.6-5.9c5.2-0.8,10.8-1.8,17-2.9l6.5-1.2 c1.3-0.2,2.6-0.5,3.8-0.7c-24,20.9-49.9,37.1-77.1,48l-1.3,0.5c-2,0.8-4.1,1.6-6.1,2.3c-0.9,0.3-1.8,0.6-2.7,1 c-0.1,0-0.1,0.1-0.2,0.1C496.7,1089.9,508.4,1082.1,519.6,1073z M580.4,1062c6.3-4.2,12.8-8.7,19.2-13.5c0.4-0.3,0.7-0.6,1.1-0.9 l0.9-0.7c2.4-1.8,4.7-3.6,7-5.5l0.8-0.6c1.7-1.4,3.5-2.9,5.2-4.3c1.7-1.4,3.5-1.8,5.6-2.3l0.7-0.2c1.2-0.3,2.4-0.6,3.5-0.9l3.3-0.8 c2.1-0.5,4.3-1,6.4-1.6l2.8-0.7c1.1-0.3,2.2-0.6,3.3-0.9l4.5-1.1c1-0.3,2-0.5,3-0.8l2.6-0.7c1.4-0.4,2.8-0.7,4.2-1.1 c-41.6,32.1-89.5,56-139.5,69.6C537.9,1086.6,559.8,1075.5,580.4,1062z M649,1020.8c-2.1,0.6-4.3,1.1-6.4,1.7 c-3.3,0.9-6.6,1.7-9.9,2.5l-4.2,1c-1,0.2-2,0.5-3,0.7l1.8-1.7c0.7-0.7,1.5-1.3,2.2-2c0.3-0.3,0.6-0.6,0.9-0.8c0.4-0.3,0.8-0.7,1.1-1 c1.8-1.7,3.6-3.5,5.3-5.3l2-2c0.4-0.4,0.9-0.9,1.3-1.3c2.8-2.9,5.7-5.9,8.8-9.3c0.3-0.3,0.5-0.6,0.8-0.8c0.3-0.3,0.6-0.6,0.9-1 c3.1-3.4,6.3-7,9.4-10.8l0.7-0.8c1.7-2.1,3.5-4.2,5.2-6.3c1.8-2.3,2.8-2.7,5.9-3.3c5.2-1,10.4-2.1,15.6-3.2c0.9-0.2,1.9-0.4,2.8-0.6 c0.8-0.2,1.6-0.4,2.4-0.5c0.9-0.2,1.8-0.4,2.6-0.5c1-0.2,2-0.4,3-0.6c4.4-0.9,8.7-1.9,13.1-2.9c-12,13.6-24.6,26.1-37.4,37.4 c-1.8,1.6-3.7,3.2-5.5,4.8c-1.9,1.6-3.7,2.3-6.1,3c-1.7,0.5-3.4,0.9-5.1,1.4C654.6,1019.3,651.8,1020.1,649,1020.8z M673.6,974 c0.9-1.1,1.7-2.3,2.6-3.5c0.2-0.3,0.4-0.5,0.6-0.8l1.6-2.3c2.5-3.4,4.8-6.7,7-9.8c0.5-0.8,1-1.5,1.6-2.3l0.8-1.2 c1.7-2.6,3.4-5.1,5.1-7.7c1.1-1.8,2.2-3.5,3.3-5.3c1.3-2.1,2.6-4.3,3.9-6.5c0.3-0.4,0.5-0.9,0.8-1.3c0.3-0.6,0.7-1.1,1-1.7 c0.3-0.4,0.5-0.8,0.7-1.2l0.8-1.3c0.6-0.9,1.3-1.6,2.6-2c0.2-0.1,0.4-0.1,0.6-0.2l5.6-1.2c0.4-0.1,0.8-0.2,1.3-0.3l20.4-4.6 c1.3-0.3,2.6-0.6,3.9-0.9c5.1-1.2,10.2-2.4,15.3-3.7c-9.6,15.3-19.8,29.6-30.5,42.7c-0.4,0.5-0.8,1.1-1.3,1.7 c-0.9,1.2-1.8,2.5-2.9,3.4c-0.3,0.3-0.8,0.5-1.1,0.6c-8.2,1.9-17,3.8-27,5.9C684.9,971.7,679.3,972.8,673.6,974z M761.1,848.9 c-7,1.8-13.9,3.4-22.1,5.4l-1,0.2c0.2-0.7,0.5-1.4,0.7-2.1l1.2-3.4c0.2-0.5,0.4-1.1,0.6-1.6c0.2-0.5,0.3-1,0.5-1.4 c0.1-0.4,0.3-0.8,0.4-1.2c1.1-3.3,2.2-6.6,3.2-9.9c0.6-1.9,1.2-3.8,1.7-5.7c1-3.3,1.9-6.6,2.8-9.9l0.3-1.1c0.3-1.1,0.6-2.2,0.9-3.3 c1.1-4.1,2.1-8.3,3.2-12.6l0.8-3.3c1-4.4,1.9-8.3,2.7-12.2c17.4-4.3,35.4-9,53.5-14.1c-4.8,23.4-11.4,46.4-19.8,68.6 c-8.4,2.2-17.2,4.5-26.2,6.8L761.1,848.9z M818.4,707.9c-1,19.7-3.3,39.3-6.9,58.3c-17.5,4.9-35.5,9.7-53.6,14.1 c3.6-19.2,6.2-38.9,7.6-58.3C783,717.7,800.8,712.9,818.4,707.9z M818.7,701.7c-17.3,4.9-35,9.7-52.7,14.2c0.6-10.9,1-21,1-31 c0-11.3-0.4-23.2-1.3-35.3c16.7-4.1,33.7-8.6,50.7-13.3C818.7,657.9,819.5,679.9,818.7,701.7z M51.9,741.4 c2.2,19.7,5.6,39.5,10,58.8c-15.4-3.5-29.7-7.2-43.6-11.1c-4.6-19.3-8-39.2-10.1-59.3C22,733.9,36.7,737.8,51.9,741.4z M48.8,687.2 l0,1.7c0,1.9,0,3.8,0.1,5.7l0,1.1c0,1.4,0.1,2.9,0.1,4.3c0.1,3.7,0.3,7.3,0.4,11c0,0.7,0.1,1.5,0.1,2.2l0.1,1.3c0.2,3,0.4,6,0.6,9 c0.1,1.2,0.2,2.4,0.3,3.6c0.2,2.7,0.5,5.4,0.7,8.1c-15.5-3.7-29.8-7.6-43.7-11.6c-2-23.4-2.1-47.1-0.5-70.6 c13.3,4.1,27.1,7.9,42.1,11.6c-0.1,2.6-0.2,5.2-0.2,7.9c-0.1,2.1-0.1,4.3-0.1,6.4l-0.1,4.4c0,0.6,0,1.1,0,1.7 C48.7,685.7,48.8,686.4,48.8,687.2z M20.8,570.8c6.3-23.4,14.5-46.2,24.3-67.7c11.1,2.6,22.7,5.1,34.5,7.5 c-8.3,22.5-15.1,46-20.1,70C46.1,577.5,33.2,574.2,20.8,570.8z M47.7,497.6c11.3-23.8,24.9-46.7,40.3-68c8.6,2.2,17.8,4.4,27.2,6.4 c-12.9,21.7-24.1,44.9-33.4,69C70.3,502.7,58.8,500.2,47.7,497.6z M87.6,506.1c9.3-23.9,20.6-47.1,33.7-68.8 c10.7,2.3,21.9,4.5,33.3,6.5c-10.7,21.9-20,45.3-27.6,69.3C113.7,511,100.5,508.6,87.6,506.1z M114.5,591.8 c4-24.6,9.6-48.9,16.6-72.1c16.3,2.5,33,4.8,49.9,6.8c-5.4,23.7-9.6,48.5-12.6,73.7C150.3,597.8,132.2,595,114.5,591.8z M282.5,390.1c8.6-20.5,17.8-38.5,28-54.9c7.7,0.7,15.8,1.3,24.1,1.8c-6.8,16.6-12.8,34.6-18.4,55.1 C305.2,391.6,293.9,390.9,282.5,390.1z M331.9,1026c1,2.7,2.1,5.4,3.2,8.1c0.4,1.1,0.9,2.2,1.4,3.2l0.3,0.7c1.1,2.5,2.2,5,3.3,7.5 c0.6,1.3,1.2,2.6,1.8,3.9l0.5,1.2c0.2,0.5,0.5,1.1,0.8,1.6c0.4,0.9,0.9,1.8,1.3,2.6c-2.4-0.1-4.8-0.2-7.1-0.4 c-4.6-0.3-9.2-0.6-13.8-0.9c-9.1-12.1-17.4-25.5-25.6-40.9c10,0.3,19.8,0.6,29.3,0.7c1.1,3.1,2.2,6.2,3.4,9.4 c0.3,0.7,0.5,1.4,0.8,2.1L331.9,1026z M138.3,958.7l-0.8-1.1c-0.4-0.6-0.8-1.2-1.3-1.8c-1.7-2.5-3.5-5.1-5.1-7.7 c0.3,0,0.6,0.1,0.8,0.1c2.4,0.4,4.8,0.8,7.3,1.2c1.3,0.2,2.6,0.4,3.9,0.6l6.6,1c7.1,1.1,13.6,2,19.6,2.8c2.3,3.9,4.7,8,7.2,11.9 c0.4,0.6,0.8,1.2,1.2,1.8l0.8,1.3c2.3,3.7,4.5,7,6.5,9.9c0.5,0.8,1,1.5,1.6,2.3l0.7,1c2.3,3.3,4.4,6.3,6.6,9.3 c0.9,1.3,1.9,2.5,2.8,3.7c0.4,0.5,0.8,1.1,1.2,1.7c0.6,0.8,1.2,1.7,1.9,2.5c0.2,0.3,0.4,0.6,0.6,0.9c-6.5-0.7-12.4-1.3-17.9-1.9 c-4.5-0.5-8.9-1-13.2-1.6c-0.6-0.2-1.1-0.5-1.4-0.8c-3.7-4.2-7-7.9-9.9-11.5l-0.5-0.7c-3.1-3.8-6.2-7.7-9.5-11.9l-1.8-2.3 C143.5,966,140.9,962.4,138.3,958.7z M121,812c-4.3-19.1-7.6-38.7-9.9-58.3c18.3,3.3,37.3,6.3,56.5,8.8c2.1,19.4,4.9,38.8,8.5,57.7 C157.5,817.9,139,815.1,121,812z M241.5,826.9c-2.8-18.5-5.1-37.7-6.9-57.2c16.6,1.4,33.5,2.5,50.3,3.3c1.2,19.2,2.8,38.3,4.7,56.8 C273.5,829.1,257.3,828.1,241.5,826.9z M282.3,698.2c0.2,23.1,1,46.3,2.3,68.9c-16.9-0.8-33.9-1.9-50.5-3.3 c-1.8-22.7-2.9-46-3.1-69.3C247.8,696,265.1,697.2,282.3,698.2z M283.2,632.9c0,1.2-0.1,2.4-0.1,3.7L283,639 c-0.1,4.4-0.3,8.8-0.4,13.3c0,1.8-0.1,3.7-0.1,5.5l0,1.5c-0.1,4.2-0.1,8.5-0.2,12.7c0,2.2,0,4.5,0,6.7l0,2.6c0,1.3,0,2.5,0,3.8 c0,2.4,0,4.9,0,7.3c-17.2-0.9-34.5-2.2-51.3-3.7c0-4.1,0-8.3,0-12.4l0-2.3c0-1.8,0-3.5,0.1-5.3c0-3.1,0.1-6.1,0.2-9.2l0.1-4 c0.1-2.2,0.1-4.4,0.2-6.6c0.1-3.1,0.3-6.2,0.4-9.2l0.2-4.8c0.1-1.8,0.2-3.5,0.3-5.3c0.3-5,0.6-10.4,1.1-16.3 c16.5,1.4,33.4,2.5,50.3,3.3C283.6,621.9,283.4,627.4,283.2,632.9z M228.6,769.3c1.7,19.2,4,38.5,6.8,57.2 c-18-1.5-35.9-3.3-53.2-5.4c-3.6-18.8-6.6-38.2-8.7-57.7C191.6,765.6,210.1,767.6,228.6,769.3z M250.9,902.8 c4.9,18.8,10.4,37.1,16.6,54.3c-14.5-0.9-28.9-1.9-42.7-3.2c-8.1-17.2-15.5-35.9-22.1-55.4C218.6,900.2,234.8,901.7,250.9,902.8z M283.4,610.5c-16.6-0.8-33.2-1.9-49.4-3.2c2.1-25.6,5.1-50.8,9.2-74.9c15,1.1,30.5,1.9,46.2,2.5 C286.7,559.3,284.7,584.8,283.4,610.5z M196.1,897.8c1.5,4.5,3,9,4.6,13.3c0.3,0.7,0.5,1.4,0.8,2.2l0.6,1.6c1.6,4.4,3,8,4.3,11.4 c0.3,0.9,0.7,1.7,1.1,2.6l0.6,1.6c1.6,3.9,3,7.4,4.4,10.6c0.5,1.2,1.1,2.5,1.6,3.7l1.4,3.2c0.5,1.2,1,2.4,1.6,3.6 c0.2,0.4,0.4,0.9,0.6,1.4c-0.3,0-0.6,0-1,0l-1.9-0.1c-5.6-0.5-11.2-1.1-16.8-1.7c-8.3-0.9-16.8-1.9-25.2-3 c-10.2-17.9-19.4-37.1-27.4-57.1C162.5,893.7,179.5,896,196.1,897.8z M255.6,897.2c-5.1-20.5-9.5-42.1-13.1-64.3 c15.9,1.2,32,2.2,47.9,2.9c2.4,21.8,5.4,43.3,8.9,63.7C284.5,898.9,269.8,898.2,255.6,897.2z M344.5,694.3 c-18.8-0.2-37.7-0.8-56.3-1.7c0-4.7,0-9.3,0-14c0-2.2,0-4.5,0-6.7c0-4.2,0.1-8.4,0.2-12.6l0-1.9c0-1.7,0.1-3.4,0.1-5.1 c0.1-4.4,0.2-8.8,0.4-13.2l0.1-2.4c0-1.2,0.1-2.5,0.1-3.7c0.2-5.4,0.4-10.8,0.7-16.2c18.3,0.8,36.9,1.3,55.4,1.4 c-0.3,11.2-0.4,22.6-0.6,35.1c0,2.2,0,4.4,0,6.6l-0.1,9.6c0,4.1-0.1,8.3-0.1,12.4C344.4,686,344.4,690.2,344.5,694.3z M253.6,456.8 c-6,22-11.2,45.3-15.3,69.2c-16.6-1.2-33.4-2.8-50-4.6c5.8-24.1,12.9-47.4,21.2-69.3C223.7,453.9,238.6,455.5,253.6,456.8z M173,757.3c-2.2-22.9-3.4-46.4-3.5-69.8v-0.1c18.4,2.5,37.1,4.7,55.6,6.5c0.2,23.3,1.3,46.6,3.1,69.4 C209.5,761.7,191,759.6,173,757.3z M177.3,826.3c4.5,22.3,10.2,44.3,16.9,65.3c-17.5-2-34.7-4.3-51.1-6.8 c-8.1-21.2-15-43.6-20.5-66.6C140.4,821.3,158.8,824,177.3,826.3z M200.3,990.3c-0.6-0.7-1.1-1.5-1.7-2.3l-0.6-0.8 c-2.2-3-4.4-6.1-6.5-9.2l-0.3-0.4c-0.7-1-1.4-2-2-3c-1.9-2.8-3.9-5.8-6-9.3l-0.8-1.3c-0.4-0.7-0.9-1.4-1.3-2c-1.5-2.4-3-4.9-4.5-7.4 c4.2,0.5,8.5,1.1,12.7,1.6c1.1,0.1,2.1,0.2,3.2,0.4l6.6,0.7c7.9,0.9,15,1.6,21.7,2.2c1.8,3.8,3.7,7.6,5.6,11.2 c0.3,0.5,0.5,1,0.8,1.5l0.6,1.1c1.9,3.7,3.7,6.9,5.3,9.9c0.3,0.6,0.7,1.2,1,1.7l0.6,1.1c1.9,3.4,3.7,6.4,5.4,9.2 c0.5,0.9,1,1.7,1.6,2.5l1.7,2.8c0.6,1,1.2,2.1,1.9,3.1c0.1,0.1,0.1,0.2,0.2,0.3c-7-0.5-13.2-1-19-1.4c-5.5-0.5-11-1-16.5-1.5 c-1.2-0.2-1.7-0.4-2.3-1.1C205.1,996.6,202.7,993.4,200.3,990.3z M231.9,968.4c-0.7-1.4-1.4-2.9-2.1-4.4c-0.6-1.3-1.2-2.6-1.8-3.9 c3.9,0.3,7.9,0.7,11.8,1c1,0.1,2.1,0.2,3.1,0.2l6.6,0.5c7.4,0.5,14,1,20.2,1.3c5.7,15.2,11.9,29.7,18.5,43.1 c-12.1-0.5-23.9-1.1-35.2-1.8c-2.6-3.9-4.8-7.5-6.9-10.9l0,0c-2.5-4.1-4.9-8.3-7.3-12.5l-0.2-0.3C236.2,976.6,234,972.5,231.9,968.4 z M273.9,957.5c-6.2-17-11.8-35.3-16.7-54.3c14.3,1,28.8,1.7,43.1,2.2c0.8,4.3,1.5,8.6,2.3,12.8c2.6,13.8,5.6,27.5,8.8,40.8 C298.7,958.7,286.1,958.2,273.9,957.5z M290.1,610.6c1.3-25.7,3.4-51.1,6-75.5c16.8,0.6,34,0.8,51.3,0.8c0.1,0,0.2,0,0.3,0 c-1.4,24.6-2.4,50.2-3.1,76C326.5,611.8,308.2,611.4,290.1,610.6z M271.2,330.8c-0.2,0.3-0.4,0.5-0.6,0.8c-0.2,0.2-0.4,0.4-0.5,0.7 c-1.7,2-3.4,4.1-5,6.2c-0.3,0.3-0.5,0.6-0.8,0.9c-0.3,0.4-0.6,0.8-0.9,1.2c-0.1,0.2-0.3,0.4-0.4,0.6l-0.4,0.5 c-2,2.6-4.1,5.4-6.3,8.5c-0.9,1.2-1.7,2.4-2.5,3.6c-2,2.9-3.9,5.6-5.6,8.3l-1.5,2.3c-1.9,2.9-3.8,6-5.9,9.5c-0.6,1-1.2,1.9-1.8,2.9 c-1.9,3.1-3.6,6-5.2,8.9c-11.3-1.3-22.8-2.9-34.4-4.7c14.8-20,31.1-38,48.6-53.6c4.9,0.8,10.1,1.6,15.5,2.4l2,0.3 C267.4,330.3,269.3,330.5,271.2,330.8C271.2,330.8,271.2,330.8,271.2,330.8z M195.5,386.2c11.3,1.8,23.2,3.4,35.3,4.8 c-9.2,17-17.7,35.4-25.2,54.7c-13.9-1.8-28.1-4-42.2-6.3C173.1,420.4,183.9,402.5,195.5,386.2z M237.3,531.9 c-4,24.3-7.1,49.5-9.2,74.9c-18.1-1.6-36.2-3.5-53.9-5.8c2.9-25,7.2-49.8,12.7-73.7C203.4,529,220.3,530.6,237.3,531.9z M226.6,629.3c-0.1,1.8-0.2,3.5-0.3,5.3l-0.2,5.2c-0.1,3-0.3,5.9-0.4,8.9c-0.1,2.2-0.1,4.5-0.2,6.7l-0.1,3.4 c-0.1,3.2-0.2,6.5-0.2,9.7c0,1.9,0,3.9-0.1,5.8l0,4.8c0,1.9-0.1,3.9-0.1,5.8l0,3.1c-18.8-1.8-37.5-4-55.6-6.5 c0.1-25,1.5-50.1,4.1-74.7c17.6,2.3,35.8,4.2,54.1,5.8C227.2,618.6,226.9,624.1,226.6,629.3z M190.5,1019c-0.6-0.5-1.1-1.1-1.7-1.6 c-2.4-2.3-5-4.9-7.9-7.7l-0.9-0.9c-0.5-0.5-0.9-0.9-1.4-1.4c-1.3-1.4-2.6-2.8-4-4.2l2.2,0.3c1.6,0.2,3.3,0.4,4.9,0.6l6.7,0.8 c5.7,0.6,11.3,1.2,17,1.8c2.7,3.3,5.6,6.8,8.7,10.3c0.5,0.5,0.9,1,1.4,1.5l0.9,1c2.7,3,5.2,5.7,7.7,8.3c0.6,0.6,1.2,1.2,1.8,1.8 l0.7,0.8c2.6,2.7,5.2,5.3,7.8,7.8c0.9,0.9,1.9,1.8,2.8,2.7c0.4,0.4,0.9,0.8,1.3,1.2c0.3,0.3,0.6,0.6,0.9,0.9c-2.5-0.4-5-0.9-7.5-1.4 l-2.8-0.6c-4.3-0.9-9-1.9-14.8-3.1c-1.8-0.5-3.5-1.3-5.2-2.5c-2.4-2-4.9-4-7.2-6.1c-0.8-0.7-1.6-1.4-2.4-2.1l-0.2-0.2 c-2.7-2.4-5.4-4.9-8.1-7.4L190.5,1019z M295.6,830.1c-2-18.5-3.5-37.6-4.7-56.8c18.2,0.8,36.8,1.2,55.2,1.4 c0.7,19.2,1.5,38.2,2.6,56.6C330.8,831.2,313,830.8,295.6,830.1z M261.2,451.6c5.6-19.6,12-38.4,19-55.7c11.2,0.8,22.8,1.5,34.5,2 c-4.7,17.9-8.9,36.3-12.6,56.3C288.4,453.6,274.7,452.7,261.2,451.6z M331.5,1007.4c-4.5-13.2-8.6-27.1-12.5-42.2 c14,0.3,28.1,0.5,42.1,0.4c2.1,14.9,4.2,28.6,6.6,41.8C355.6,1007.5,343.4,1007.5,331.5,1007.4z M296.8,529 c2.7-23.7,6.1-46.8,10.1-68.6c15.5,0.7,31.3,1.1,47,1.2c-2,21.7-3.8,44.7-5.1,68.2C331.7,529.8,314.3,529.5,296.8,529z M308,454.5 c3.8-20.1,8-38.6,12.7-56.3c13.3,0.5,26.9,0.8,40.3,0.9c-2.5,18.1-4.6,36.6-6.5,56.6C339.1,455.5,323.5,455.1,308,454.5z M276.3,389.6c-11.9-0.9-24.1-2.1-36.1-3.4c1.1-2,2.2-3.9,3.4-5.9c0.6-1,1.3-2.1,1.9-3.1v0c1.4-2.3,2.8-4.6,4.3-6.9l0.7-1.1 c0.4-0.7,0.9-1.4,1.3-2.1c1.7-2.6,3.5-5.3,5.6-8.4c1-1.4,2-2.8,3-4.2l0.2-0.3c1.1-1.5,2.1-3,3.2-4.5c1.2-1.6,2.3-3.1,3.5-4.7 c2.3-2.9,4.2-5.4,6-7.6c1.5-1.8,3-3.6,4.5-5.4c0.4-0.2,0.8-0.3,1.3-0.3l2,0.2c0.3,0,0.5,0.1,0.8,0.1c2.1,0.3,4.2,0.5,6.2,0.7 l3.2,0.4c0.8,0.1,1.6,0.2,2.4,0.3c3.4,0.4,6.8,0.7,10.2,1C294,351,284.9,369,276.3,389.6z M225.8,323.2c2.1,0.4,4.2,0.8,6.4,1.2 l1.4,0.2c2.3,0.4,4.6,0.8,6.8,1.2c-0.1,0.1-0.2,0.2-0.3,0.3c-0.6,0.6-1.1,1.2-1.7,1.7l-0.7,0.7c-2.5,2.4-5.1,4.9-7.8,7.6 c-0.2,0.2-0.5,0.5-0.7,0.7c-0.3,0.3-0.6,0.5-0.8,0.8c-0.6,0.6-1.1,1.2-1.7,1.8c-0.4,0.4-0.8,0.9-1.2,1.3c-1.3,1.4-2.6,2.7-3.9,4.1 l-0.2,0.2c-1.5,1.6-2.9,3.1-4.3,4.7c-2.4,2.7-4.8,5.4-6.9,8c-0.8,0.9-1.5,1.9-2.3,2.8l-0.9,1.1c-1.7,2.1-3.4,4.2-5.1,6.3 c-0.9,1.2-1.8,2.3-2.7,3.5c-2.2,2.8-4.2,5.6-6.2,8.3c-8.4-1.3-17.2-2.9-26-4.5c1.7-1.9,3.4-3.8,5.1-5.6c0.9-1,1.8-1.9,2.7-2.9 l1.4-1.5c2.9-3,5.8-5.9,8.6-8.7l0.9-0.9c1.9-1.8,3.7-3.7,5.6-5.5c0.6-0.6,1.2-1.1,1.9-1.7c0.4-0.4,0.9-0.8,1.3-1.2 c2.6-2.4,5-4.5,7.4-6.6c0.6-0.5,1.2-1,1.7-1.5l1.2-1c2.3-2,5.1-4.3,7.9-6.5c0.8-0.6,1.5-1.2,2.3-1.8l1.2-0.9 c2.4-1.9,4.8-3.7,7.2-5.5C224,323.1,224.6,322.9,225.8,323.2z M132.9,514.1c7.7-24.2,17-47.4,27.7-69.2c13.8,2.4,28.2,4.5,42.9,6.5 c-8.2,22-15.3,45.3-21.1,69.4C165.7,518.8,149.1,516.6,132.9,514.1z M107.3,671.3c0.6-24.8,2.7-49.6,6.3-73.7 c17.5,3.1,35.7,5.9,54.1,8.4c-2.6,24.5-4,49.6-4.2,74.7C144.4,677.9,125.5,674.8,107.3,671.3z M92.2,875.3c-0.8-2-1.7-4-2.5-6 l-0.9-2.3c-0.5-1.3-1-2.6-1.5-3.9l-0.3-0.8c-1.8-4.6-3.3-8.7-4.6-12.5c-0.2-0.5-0.3-1-0.5-1.5l-0.4-1.2c-1.3-3.6-2.5-7.3-3.6-11 l-0.3-1c-0.2-0.8-0.5-1.5-0.7-2.3c-1.3-4.2-2.6-8.5-3.8-12.8c-0.2-0.9-0.5-1.7-0.7-2.6l-0.1-0.4c-0.8-3-1.6-6-2.4-9 c15.3,3.4,30.9,6.4,46.3,9.1c5.3,22.8,12.1,45.2,20.2,66.7c-6.5-1-12.3-2-17.7-3l-4.1-0.7c-6.9-1.2-14-2.6-21-4 C92.9,876,92.6,875.8,92.2,875.3z M270,1028.1c-2.2-2.8-4.4-5.7-6.7-8.8l-0.7-1c-0.4-0.5-0.7-1-1.1-1.4c-1.5-2-2.9-4.1-4.3-6.2 c2.6,0.2,5.3,0.3,7.9,0.5c0.6,0,1.1,0.1,1.7,0.1l1.5,0.1c8.2,0.4,15.7,0.8,22.9,1.1c1.6,3.2,3.4,6.5,5.3,9.9 c0.3,0.6,0.6,1.1,0.9,1.7l0.5,0.9c1.7,3,3.4,6,5.2,8.9c0.5,0.8,1,1.6,1.5,2.5c2,3.2,4.1,6.4,6.1,9.5l1.3,2c0.2,0.2,0.3,0.5,0.5,0.7 c1.1,1.5,2.2,3,3.3,4.5c-3.1-0.3-6.2-0.5-9.2-0.8l-3-0.3c-4.6-0.4-9.2-0.9-13.8-1.4c-0.2-0.1-0.3-0.1-0.5-0.2 c-3.2-3.3-6.1-6.4-8.8-9.5l-0.9-1.1c-2.6-3-5.3-6.2-7.9-9.4C271.1,1029.5,270.5,1028.8,270,1028.1z M317.5,959.2 c-4.2-17-7.9-34.5-11.3-53.6c16,0.5,32.2,0.8,48.1,0.8c1.8,18.3,3.8,36.2,6,53.2C345.9,959.7,331.5,959.6,317.5,959.2z M305.2,899.7 c-3.5-20.4-6.5-41.8-8.9-63.7c17.4,0.7,35.2,1.1,52.7,1.1c1.3,21.9,2.9,43.2,4.8,63.4C337.5,900.5,321.2,900.2,305.2,899.7z M55.5,713.1c0-0.7-0.1-1.5-0.1-2.2c-0.2-3.7-0.3-7.3-0.4-11c0-1.5-0.1-3-0.1-4.6l0-0.9c0-1.9-0.1-3.7-0.1-5.6c0-2.3,0-4.6,0-6.9 l0-2.5c0-2.3,0.1-4.7,0.1-7c0.1-2.2,0.1-4.3,0.2-6.5c14.9,3.6,30.5,7,46.2,10.1c0,2.9-0.1,5.9-0.1,8.8c0,1,0,2,0,2.9 c0,0.7,0,1.5,0,2.2c0,2,0,3.9,0.1,5.9c0.1,4.1,0.2,8.1,0.4,12.2l0,1.1c0.1,1.7,0.1,3.4,0.2,5.1c0.2,3.6,0.4,7.6,0.8,12.5l0.1,2 c0.1,1.2,0.2,2.3,0.2,3.5c0.4,4.5,0.8,9.2,1.3,14.1c-16.1-3-32-6.4-47.1-9.9c-0.3-3.2-0.6-6.4-0.9-9.6c-0.1-1.2-0.2-2.4-0.3-3.6 c-0.2-3-0.4-6-0.6-9L55.5,713.1z M55.3,660c1.2-24.3,4.2-48.7,8.8-72.4c14.2,3.2,28.9,6.2,43.8,8.9c-3.6,24.3-5.8,49-6.4,73.6 C85.6,667,70.1,663.6,55.3,660z M337.9,1077.9L337.9,1077.9L337.9,1077.9L337.9,1077.9L337.9,1077.9z M361.4,918.1L361.4,918.1 c-0.4-3.9-0.8-7.8-1.2-11.7c16.7-0.1,33.5-0.4,50.2-1v53.2c-14.7,0.5-29.6,0.8-44.2,1c-0.5-4.1-1.1-8.2-1.6-12.3 C363.5,938,362.4,928.1,361.4,918.1z M386.4,283.6l-0.4,1c-0.5,1.4-1.1,2.8-1.6,4.2l-0.6,1.7c-0.6,1.8-1.2,3.5-1.8,5.3l-0.2,0.7 c-0.6,2-1.3,4-1.9,6.1c-2.2,7.6-4.4,16-6.6,25.7c-0.3,1.4-0.6,2.9-0.9,4.3c-9.5-0.2-19.3-0.5-29.1-1c6.2-14.2,14.9-32.2,27.8-47.6 c8.2-9.8,16.4-16.3,25-19.9C391.9,270.1,389.1,277,386.4,283.6z M371.1,275l-0.3,0.3c-1,1-1.9,2-2.8,3.1l-0.6,0.7 c-0.4,0.5-0.9,1-1.3,1.6l-1.4,1.8c-0.7,0.8-1.4,1.7-2,2.5c-0.3,0.4-0.7,0.9-1,1.3l-1,1.4c-0.9,1.2-1.8,2.5-2.7,3.8 c-0.2,0.3-0.4,0.6-0.6,0.9l-0.4,0.6c-1.1,1.7-2.2,3.4-3.3,5.1l-0.6,1c-1.2,1.9-2.3,3.8-3.4,5.8l-0.3,0.6c-1.2,2.1-2.3,4.2-3.4,6.3 l-0.2,0.4c-1.1,2.2-2.2,4.4-3.3,6.6l-0.6,1.3c-0.9,1.9-1.8,3.9-2.7,5.8c-0.8,1.8-1.6,3.6-2.4,5.5c-7.4-0.4-15.1-1-22.9-1.6 c19.4-29.3,40.3-49.4,62.4-59.9C374.7,271.4,372.9,273.1,371.1,275z M300.9,300.5c-0.4,0.3-0.7,0.6-1.1,1l-0.8,0.7 c-0.5,0.4-1,0.9-1.4,1.3L297,304c-1.3,1.2-2.6,2.4-3.9,3.6c-1.4,1.3-2.7,2.6-4.1,3.9l-0.7,0.7c-0.4,0.4-0.8,0.8-1.2,1.2l-0.9,0.9 c-0.6,0.6-1.2,1.3-1.8,1.9l-1.8,2c-0.7,0.7-1.4,1.5-2.1,2.3l-0.5,0.6c-0.2,0.2-0.4,0.4-0.6,0.7c-0.2,0.2-0.4,0.4-0.6,0.7l-0.5,0.5 c-0.6,0.7-1.3,1.4-1.8,2c-0.2,0.2-0.4,0.4-0.6,0.4l-0.1,0c-2.2-0.3-4.3-0.6-6.5-0.9l-1.8-0.3c-2-0.3-3.9-0.6-5.9-0.9l-2.8-0.4 l-1.1-0.2c-1.2-0.2-2.4-0.5-3.6-0.7c0.5-0.5,1.1-0.9,1.6-1.4c0.3-0.3,0.7-0.5,1-0.8l0.9-0.8c1.6-1.3,3.2-2.6,4.8-3.8 c0.4-0.3,0.8-0.6,1.2-0.9l0.9-0.7c1.6-1.2,3.1-2.4,4.7-3.6c0.4-0.3,0.8-0.6,1.3-0.9l1-0.7c1.6-1.1,3.2-2.3,4.8-3.4 c0.4-0.3,0.8-0.5,1.2-0.8l0.9-0.6c1.7-1.1,3.4-2.3,5.1-3.4c0.4-0.2,0.8-0.5,1.2-0.7l0.8-0.5c1.8-1.1,3.5-2.2,5.3-3.3 c0.4-0.2,0.8-0.5,1.2-0.7l0.8-0.5c1.8-1.1,3.6-2.1,5.5-3.2c0.4-0.2,0.8-0.4,1.2-0.7l0.8-0.4c1.8-1,3.7-2,5.5-3 c0.4-0.2,0.8-0.4,1.2-0.6l0.9-0.4c1.9-0.9,3.7-1.9,5.6-2.8c0.4-0.2,0.9-0.4,1.3-0.6l0.8-0.4c1.9-0.9,3.7-1.7,5.6-2.5 c0.5-0.2,1-0.4,1.5-0.6l0.8-0.4c1.8-0.8,3.7-1.5,5.6-2.3c0.6-0.2,1.1-0.4,1.7-0.6l0.8-0.3c1.8-0.7,3.6-1.4,5.5-2 c0.7-0.2,1.4-0.5,2-0.7l0.7-0.2c1.8-0.6,3.5-1.2,5.3-1.7c0.2,0,0.3-0.1,0.5-0.1C330,278.4,315,288.3,300.9,300.5z M260.2,293.1 l-1.7,0.9c-0.5,0.3-1,0.6-1.5,0.8l-1.1,0.6c-1.9,1.1-3.9,2.2-5.8,3.3c-0.6,0.4-1.3,0.8-1.9,1.2l-2,1.2c-0.8,0.4-1.5,0.9-2.3,1.4 c-0.5,0.3-1,0.6-1.5,0.9l-1.1,0.7c-1.1,0.7-2.1,1.3-3.2,2c-2,1.3-3.9,2.5-5.8,3.8c-1,0.7-2.1,1.4-3.1,2.1l-1.1,0.7 c-0.5,0.4-1,0.7-1.6,1.1c-0.3,0.2-0.5,0.4-0.8,0.6l-0.9,0.7c-0.5,0.4-1.1,0.8-1.7,1.1c-0.1,0.1-0.2,0.1-0.3,0.1c-0.1,0-0.2,0-0.4,0 c-2.7-0.6-5.4-1.2-8.1-1.7c18.2-10.6,37.2-19.7,56.6-27.2C267.4,289.3,263.7,291.2,260.2,293.1z M199.6,334.8 c-0.4,0.4-0.9,0.8-1.3,1.2c-0.4,0.3-0.7,0.6-1.1,1c-0.5,0.4-0.9,0.8-1.4,1.2l-0.9,0.8c-3.7,3.3-7.5,6.7-11.1,10.2l-1,1 c-0.8,0.8-1.6,1.5-2.4,2.3c-1.5,1.5-3.1,3.1-4.6,4.6c-1.7,1.7-3.4,3.4-5,5.2l-0.7,0.7c-0.9,1-1.8,1.9-2.7,2.9 c-2.6,2.8-5.1,5.5-7.4,8.2c-4.1-0.8-8.2-1.6-12.3-2.5c-1.3-0.3-2.6-0.6-4-1c-1-0.3-2-0.5-3-0.8c12-11.2,24.3-21.5,36.6-30.6 c6.9-5.1,14-10,21.2-14.7c0.7-0.4,1.4-0.9,2.1-1.5c2.6-1.9,5.6-4.1,8.2-3.5l2.9,0.6c1,0.2,1.9,0.4,2.9,0.6c0.5,0.1,1.1,0.3,1.7,0.5 C210.2,325.8,204.4,330.6,199.6,334.8z M63.4,806.6c1,4,2.1,8.1,3.3,12.6l0.3,1c0.2,0.8,0.4,1.6,0.7,2.4c1.2,4.1,2.4,8.3,3.7,12.5 c0.6,1.8,1.2,3.7,1.8,5.5c1,3.2,2.1,6.4,3.2,9.6c0.9,2.5,1.8,5,2.7,7.5c1,2.8,2.1,5.7,3.2,8.5c0.2,0.5,0.4,1,0.6,1.5 c0.2,0.6,0.5,1.3,0.7,1.9c0.7,1.7,1.3,3.3,2,4.9c-6.1-1.2-11.3-2.3-16.2-3.4l-4.4-1c-6.6-1.5-13.3-3.1-19.6-4.6 c-1.4-0.6-2-2.1-2.6-3.7c-0.2-0.5-0.4-1-0.6-1.5c-1.2-2.7-2.3-5.4-3.4-8.1c-7.4-17.9-13.7-36.9-18.8-56.5 C33.9,799.5,48.5,803.2,63.4,806.6z M48.4,872.4c2.4,0.6,4.7,1.1,7.1,1.7c1.5,0.4,3.1,0.7,4.6,1l3.7,0.8c1.3,0.3,2.7,0.6,4,0.9 c7.4,1.6,14.1,3.1,20.4,4.3c2.1,4.8,4.3,9.7,6.7,14.7c0.4,0.8,0.8,1.6,1.2,2.4l0.7,1.5c2.1,4.3,4.1,8.3,6,11.9c0.5,1,1.1,2,1.6,3.1 l0.6,1.1c2.1,3.9,4.2,7.7,6.3,11.4c0.8,1.4,1.7,2.9,2.5,4.3c0.3,0.6,0.7,1.2,1,1.8c0.5,0.8,0.9,1.6,1.4,2.4c0.8,1.3,1.6,2.7,2.5,4 c-4.4-0.8-8.7-1.5-13.1-2.3l-4.4-0.8c-5.7-1.1-11.5-2.2-17.1-3.4c-0.9-0.3-1.6-0.8-2.2-1.4c-2.2-2.6-4.2-5.8-6-8.8 c-0.7-1.2-1.4-2.3-2.1-3.4C64.5,905,55.6,889,47.7,872.2C47.9,872.3,48.2,872.3,48.4,872.4z M91.6,941c1.7,0.3,3.3,0.6,5,1l7.5,1.4 c6.9,1.3,13.1,2.4,18.9,3.4c2.6,4,5.3,8,8.2,12.3c0.5,0.8,1.1,1.5,1.6,2.2l0.8,1.2c2.5,3.5,4.9,6.9,7.4,10.1 c0.8,1.1,1.7,2.2,2.6,3.4c2.6,3.4,5.4,6.9,8.2,10.3l0.9,1.1c0.4,0.5,0.8,1,1.2,1.5c0.3,0.3,0.5,0.6,0.8,0.9c0.3,0.4,0.6,0.7,0.9,1.1 c1.2,1.5,2.5,2.9,3.7,4.4c-6.5-0.9-12.1-1.7-17.5-2.5l-1.7-0.3c-2.8-0.4-5.5-0.8-8.2-1.2c-1.4-0.5-2.6-1.8-3.7-3 c-0.3-0.4-0.7-0.8-1-1.1c-3.2-3.3-6.4-6.7-9.5-10.1c-10.3-11.3-20.3-23.6-29.8-36.7C89.2,940.5,90.4,940.7,91.6,941z M142.5,998.8 l6.8,1c5.4,0.8,10.7,1.5,16.1,2.2c2.9,3.2,6,6.4,9.1,9.6c0.4,0.5,0.9,0.9,1.3,1.3l1,1c2.8,2.9,5.5,5.4,8,7.8c0.5,0.5,1,1,1.6,1.5 l1,0.9c2.8,2.6,5.4,5,8,7.3c1,0.8,1.9,1.7,2.9,2.5l0.3,0.2c-1.1-0.3-2.1-0.5-3.2-0.8c-2-0.5-4-1-6-1.6c-5.4-1.5-10.7-3-15.8-4.5 c-1.7-0.7-3.1-1.5-4.2-2.5c-10.3-8.1-20.7-17-30.7-26.5C140,998.4,141.2,998.6,142.5,998.8z M187.1,1037.3c3.1,0.9,6.3,1.7,9.6,2.5 l0.3-0.7h0l0,0.8l0.8,0.2c3.2,0.8,6.3,1.5,9.4,2.3c1.1,0.4,2,0.9,2.8,1.4l0.5,0.4c5,3.9,9.7,7.4,14.2,10.7l0.6,0.4 c0.6,0.5,1.3,1,2,1.4c6.2,4.4,12.7,8.5,19.1,12.4c7.8,4.7,15.9,9.1,24.2,13.2c-20.3-7.8-39.8-17.3-58.4-28.3 c-8.8-5.2-17.7-10.9-26.4-17L187.1,1037.3z M235.8,1055.1c-1.4-0.9-2.8-1.9-4.2-2.9c-0.7-0.5-1.4-1-2.1-1.5l-1-0.7 c-2-1.5-4.1-2.9-6.1-4.4c0.1,0,0.3,0.1,0.4,0.1c0.9,0.2,1.8,0.4,2.7,0.5l5.3,1c6.4,1.2,12,2.3,17.3,3.2c1.9,1.7,3.9,3.3,5.9,4.9 c0.3,0.3,0.7,0.5,1,0.8l0.8,0.6c1.7,1.3,3.3,2.7,5.1,4c0.4,0.3,0.8,0.6,1.1,0.9l1.2,0.9c1.5,1.2,3,2.3,4.6,3.4 c0.4,0.3,0.8,0.6,1.2,0.8l0.8,0.6c1.7,1.2,3.4,2.4,5.1,3.6c0.3,0.2,0.7,0.5,1.1,0.7l0.8,0.5c1.8,1.2,3.6,2.4,5.4,3.5 c0.3,0.2,0.7,0.4,1,0.6l0.8,0.5c1.9,1.2,3.7,2.3,5.6,3.4c0.3,0.2,0.7,0.4,1,0.6l0.8,0.4c1.9,1.1,3.8,2.2,5.7,3.3 c0.3,0.2,0.7,0.4,1,0.6l0.8,0.4c1.9,1.1,3.9,2.1,5.9,3.1c0.3,0.2,0.7,0.3,1,0.5l0.8,0.4c2,1,3.9,2,5.9,2.9c0.4,0.2,0.7,0.3,1.1,0.5 l0.8,0.4c1,0.5,2,0.9,3.1,1.4c-25.3-8.1-49.7-19.4-72.9-33.9l-1.1-0.7c-0.6-0.4-1.1-0.7-1.7-1.1h0c-1.2-0.8-2.4-1.6-3.6-2.4 L235.8,1055.1z M300.4,1057.4l5.9,0.6c4.7,0.4,9.5,0.8,14.2,1.2c1,1.3,2.1,2.6,3.1,3.9l0.7,0.8c1.2,1.5,2.4,2.9,3.7,4.4l0.5,0.5 c1.3,1.5,2.7,3,4.1,4.5l0.3,0.3c1.4,1.6,2.9,3.1,4.4,4.6l0.2,0.2c1.5,1.5,3.1,3,4.8,4.6l0.2,0.1c1.5,1.4,3.1,2.8,4.7,4.2l0.5,0.4 c1.5,1.3,3.1,2.6,4.6,3.8l0.9,0.7c1.4,1.1,2.9,2.2,4.4,3.2c0.3,0.2,0.6,0.4,0.9,0.6l0.4,0.3c1.3,0.9,2.6,1.8,4,2.6 c0.5,0.3,1,0.6,1.5,0.9l0.4,0.3c0.2,0.1,0.4,0.2,0.6,0.4c-24.3-8.4-47.5-23-69.2-43.6C297.6,1057.1,299,1057.3,300.4,1057.4z M405.1,1101.5c-0.2-0.2-0.4-0.5-0.7-0.7l-0.6-0.7c-0.2-0.2-0.3-0.3-0.5-0.5c-0.3-0.4-0.6-0.8-0.9-1.2l-0.6-0.8 c-0.3-0.4-0.6-0.8-0.8-1.2l-1.8-2.9c-0.2-0.3-0.4-0.7-0.6-1l-0.7-1.2c-0.4-0.7-0.7-1.3-1.1-2c-0.1-0.2-0.2-0.4-0.3-0.5l-0.2-0.4 c-0.6-1.1-1.1-2.2-1.6-3.4c-3.6-7.8-6.3-16-8.4-23.1c8,0,16.1-0.1,24.1-0.3v43.7c-1.2-0.4-2.4-1.1-3.5-2c-0.1-0.1-0.2-0.2-0.3-0.3 l-0.4-0.4C405.9,1102.2,405.5,1101.9,405.1,1101.5z M374.8,1013.2c11.8-0.2,23.8-0.6,35.7-1v43.4c-8.7,0.2-17.4,0.3-25.8,0.3 C381.1,1043.1,377.9,1029.5,374.8,1013.2z M367.1,965.6c14.5-0.1,29.1-0.4,43.4-0.9v41.6c-12.4,0.5-24.7,0.9-36.8,1.1 C371.3,994.3,369.1,980.6,367.1,965.6z M351.9,774.7c19.3,0,39-0.3,58.5-1v56.6c-18.6,0.7-37.5,1-56,1 C353.5,812.9,352.6,793.8,351.9,774.7z M350.4,700.3c19.8,0.2,40-0.1,60-0.7v68.2c-19.6,0.7-39.4,1-58.7,1 C351,746.3,350.6,723.3,350.4,700.3z M350.4,663.8l0-3.9c0-2.2,0-4.4,0-6.7c0.1-12,0.3-23.8,0.6-35.1c19.6,0,39.6-0.3,59.4-1v76.6 c-20.1,0.6-40.3,0.9-60.1,0.7C350.3,685.6,350.4,676.1,350.4,663.8z M351.2,612.2c0.7-26,1.7-51.6,3.1-76.3 c18.5-0.1,37.4-0.5,56.2-1.3v76.6C390.7,611.9,370.8,612.3,351.2,612.2z M354.6,530c1.4-23.7,3.1-46.7,5.2-68.4 c16.5,0,33.6-0.2,50.7-0.8v67.9C391.9,529.5,373.1,529.9,354.6,530z M367.8,393.2c2.9-20.3,6-38.2,9.5-54.6 c10.8,0.1,22,0.1,33.3-0.2v54.1C396.1,392.9,381.7,393.2,367.8,393.2z M335.1,1096.1l0.3-0.7c-2.3-0.8-4.7-1.7-7-2.6l-0.9-0.4 c-2.1-0.8-4.2-1.7-6.3-2.6l-1.6-0.7c-1.9-0.8-3.7-1.7-5.5-2.5l-0.9-0.4c-0.4-0.2-0.8-0.4-1.2-0.6c-1.5-0.7-3-1.5-4.5-2.2l-1.4-0.7 c-0.5-0.3-1.1-0.5-1.6-0.8c-1.2-0.6-2.4-1.3-3.6-2l-1.8-1c-0.6-0.3-1.3-0.7-1.9-1c-1-0.6-2-1.2-3-1.7l-2.2-1.3 c-0.7-0.4-1.4-0.8-2.1-1.2c-1.1-0.6-2.1-1.3-3.1-2l-2-1.2c-0.6-0.4-1.3-0.8-1.9-1.2c-1.4-0.9-2.8-1.9-4.2-2.8l-2.2-1.5 c-0.6-0.4-1.2-0.8-1.8-1.2c-1.6-1.1-3.2-2.3-4.7-3.4l-1.7-1.2c-0.5-0.4-1-0.7-1.5-1.1c-1.8-1.4-3.6-2.8-5.3-4.2l-1.2-1 c-0.2-0.2-0.4-0.3-0.6-0.5c0.6,0.1,1.2,0.2,1.8,0.3c1,0.2,2.1,0.3,3.1,0.4l5.7,0.8c6,0.8,11.5,1.5,16.6,2.1 c18.2,18.3,37.4,32.5,57.2,42.3c-2.8-0.9-5.5-1.8-8.3-2.7L335.1,1096.1C335.1,1096.1,335.1,1096.1,335.1,1096.1z M368.4,1082.6 c-2.8-3.6-5.5-7.5-8.3-11.9c-1.3-2-2.4-4.2-3.6-6.3c-0.6-1.1-1.2-2.2-1.8-3.3c1.3,0,2.6,0.1,3.9,0.1c0.5,0,1,0,1.5,0 c0.4,0,0.9,0,1.3,0c6.7,0.2,12.8,0.3,18.6,0.4c1.1,3.6,2.5,8.2,4,12.7c0.2,0.6,0.4,1.2,0.6,1.8l0.6,1.6c0.2,0.5,0.4,1,0.6,1.5 c0.5,1.3,1,2.6,1.6,3.9l0.4,0.9c0.5,1.3,1.1,2.5,1.7,3.8l0.2,0.4c0.1,0.2,0.2,0.4,0.3,0.6c0.4,0.9,0.9,1.7,1.3,2.6l0.6,1.1 c0.2,0.3,0.3,0.6,0.5,1c0.3,0.5,0.6,1,0.9,1.5l0.9,1.5c0.3,0.5,0.6,1,0.9,1.5l0.7,1.1c0.3,0.5,0.6,0.9,0.9,1.4 c0.1,0.1,0.2,0.3,0.3,0.4l0.2,0.3c0.4,0.6,0.8,1.1,1.3,1.7c0.1,0.1,0.2,0.2,0.3,0.3l0.2,0.2c0.5,0.6,1,1.2,1.5,1.7 c0.1,0.1,0.1,0.1,0.3,0.3c0.6,0.6,1.2,1.2,1.9,1.8c0.4,0.3,0.7,0.6,1.1,0.9c-2.6-0.5-5.2-1.3-7.8-2.3 C386.5,1101.8,377.5,1094.2,368.4,1082.6z"/></g></svg>