<?xml version="1.0" encoding="UTF-8" standalone="no"?><svg xmlns="http://www.w3.org/2000/svg" xmlns:xlink="http://www.w3.org/1999/xlink" fill="#000000" height="317.9" preserveAspectRatio="xMidYMid meet" version="1" viewBox="-8.6 -11.8 332.8 317.9" width="332.8" zoomAndPan="magnify"><g id="change1_1"><path d="M198.9,12.3c22.5,9.4,42.5,23.7,62.2,37.9c10.1,7.3,20.3,14.7,28.3,24.2c6.4,7.5,11.3,16.1,15.8,24.8 c6.1,11.6,11.7,23.6,14.2,36.4c4.8,24.7-2.5,50.8-16.1,72s-32.9,38.2-53.4,52.9c-14.4,10.4-29.7,19.9-46.4,26 c-51.9,18.9-114,0.5-150.7-40.9S5.1,143.2,20.2,90c3.5-12.5,8.5-24.6,15.3-35.7C70.3-1.8,141.2-11.8,198.9,12.3z" fill="#f7f6f1"/></g><g id="change2_1"><path d="M124.9,14.3c20,0,40.5,4.2,59.5,12.1c22.8,9.5,43.5,24.5,61.8,37.7c9.8,7.1,20,14.4,28,23.8 c6.3,7.4,11.2,16.1,15.6,24.4c5.8,11.1,11.5,23.1,14,35.9c4.4,22.3-1.4,48-15.8,70.5c-11.6,18.1-28.4,34.7-52.8,52.3 c-17.5,12.6-31.7,20.5-46,25.7c-13.3,4.9-27.6,7.3-42.4,7.3c-40,0-79.6-17.8-106.1-47.6c-17.5-19.8-29.7-44.8-35.3-72.4 c-5.5-27-4.5-55.1,3-81.3c3.8-13.3,8.9-25.1,15.1-35.2c11-17.7,25.8-31.3,44.2-40.5C84.6,18.7,104.4,14.3,124.9,14.3 M124.9,12.3 C84.3,12.3,45,29.2,21.8,66.6c-6.8,11-11.7,23.2-15.3,35.7c-15.1,53.2-3.9,114.2,32.8,155.5c26.9,30.3,67.4,48.3,107.6,48.3 c14.6,0,29.2-2.4,43.1-7.4c16.7-6.1,32-15.6,46.4-26c20.5-14.7,39.8-31.7,53.4-52.9c13.6-21.2,20.9-47.3,16.1-72 c-2.5-12.8-8.1-24.8-14.2-36.4c-4.6-8.7-9.5-17.3-15.8-24.8c-8.1-9.5-18.2-16.9-28.3-24.2c-19.8-14.2-39.8-28.5-62.2-37.9 C166,16.5,145.3,12.3,124.9,12.3L124.9,12.3z" fill="#959d83"/></g></svg>