<?xml version="1.0" encoding="UTF-8" standalone="no"?><svg xmlns="http://www.w3.org/2000/svg" xmlns:xlink="http://www.w3.org/1999/xlink" fill="#000000" height="223.1" preserveAspectRatio="xMidYMid meet" version="1" viewBox="-32.4 -43.9 246.2 223.1" width="246.2" zoomAndPan="magnify"><g id="change1_1"><path d="M93.615,81.71c10-70.333,120.121-125.58,105.349-32.673C192.37,90.513,129.652,165.75,88.432,179.207 C65.612,167.834-32.444,46.921,10.948,14.377C36.282-4.623,79.553,10.481,93.615,81.71z M88.948,171.377 c17.496-6.91,41.188-26.132,62.383-51.262c22.229-26.354,55.915-95.796,30.95-109.739c-8.812-4.921-15.363-1.265-24.886,2.003 c-40.781,13.997-58.448,79.997-64.547,81.621c-3.113,0.829-8.701-21.313-9.643-23.668c-4.153-10.384-9.081-20.563-15.332-29.86 C60.766,29.903,49.448,15.71,35.281,15.71c-6.427,0-13.44,1.663-18.666,6C-16.718,49.377,66.948,152.377,88.948,171.377z" fill="#646044"/></g></svg>