<?xml version="1.0" encoding="UTF-8" standalone="no"?><svg xmlns="http://www.w3.org/2000/svg" xmlns:xlink="http://www.w3.org/1999/xlink" data-name="OUTLINE" fill="#000000" height="769.5" preserveAspectRatio="xMidYMid meet" version="1" viewBox="405.3 625.3 1209.3 769.5" width="1209.3" zoomAndPan="magnify"><g id="change1_1"><path d="m1101.5615,1066.6943c-4.9394-2.4697-10.9463-.4677-13.416,4.4727-5.9883,11.9766-22.4482,24.6074-28.293,28.4697-4.6123,3.0362-5.8906,9.2354-2.8564,13.8487,1.9219,2.9209,5.1113,4.5048,8.3643,4.5048,1.8857,0,3.7929-.5332,5.4863-1.6464,1.039-.6836,25.5508-16.959,35.1875-36.2334,2.4697-4.9395.4678-10.9463-4.4727-13.4161Z" fill="#646044"/></g><g id="change1_2"><path d="m1114.4951,1038.0811c-5.0693-2.1973-10.957.1328-13.1523,5.1992l-2.5655,5.9199c-2.1953,5.0674.1319,10.9561,5.1993,13.1523,1.2959.5616,2.6445.8272,3.9716.8272,3.8653,0,7.5459-2.2549,9.1807-6.0264l2.5654-5.9199c2.1953-5.0674-.1318-10.9561-5.1992-13.1523Z" fill="#646044"/></g><g id="change1_3"><path d="m1555.0977,1275.6348h-48.7881v-5.9766c0-21.165-1.3506-42.5127-4.0147-63.4531-15.164-118.7676-73.0898-228.1436-163.1064-307.9805-75.9448-67.3558-170.1592-109.3923-270.0391-121.3444v-30.6831c12.5752-2.0026,24.1646-7.8752,33.3291-17.0477,7.5449-7.5459,12.9854-16.9473,15.7217-27.1523,1.3955-5.1319,2.1035-10.4727,2.1035-15.876,0-33.5596-27.3027-60.8623-60.8623-60.8623h-98.8926c-5.4033,0-10.7441.708-15.8398,2.0937-10.2393,2.7452-19.6406,8.1846-27.1875,15.7325-11.4951,11.4951-17.8252,26.7793-17.8252,43.0361,0,30.2519,22.1919,55.4097,51.1494,60.0708v30.634c-44.1782,5.2317-87.2368,16.3535-128.5889,33.262-90.1523,36.8691-166.9765,98.9971-222.1679,179.666-56.5293,82.6231-86.4082,179.4121-86.4082,279.9043v5.9766h-48.7784c-.2724,0-.5468.0029-.8125.0127-15.5918.2002-30.2539,6.3877-41.2998,17.4336-11.25,11.25-17.4453,26.206-17.4453,42.1123,0,32.8349,26.7178,59.5478,59.5576,59.5478h1090.1954c15.9111,0,30.8671-6.1924,42.1123-17.4365,9.4843-9.4854,15.5429-22.0186,17.0595-35.2891.2559-2.2392.3858-4.5342.3858-6.8222,0-32.8409-26.7178-59.5586-59.5576-59.5586Zm-635.4014-589.5137c0-10.915,4.25-21.1768,11.9678-28.8945,3.9892-3.9895,8.75-7.0835,13.9526-9.1277,1.4067-.553,2.8398-1.0447,4.3062-1.4378,3.4209-.9306,6.996-1.4023,10.6259-1.4023h98.8926c22.5313,0,40.8623,18.331,40.8623,40.8623,0,3.6299-.4717,7.2051-1.4121,10.6611-.3896,1.4532-.8779,2.8747-1.4268,4.2716-2.0395,5.1934-5.1362,9.9606-9.1318,13.9569-7.708,7.7149-17.9687,11.9639-28.8916,11.9639h-98.8926c-22.5263,0-40.8525-18.3271-40.8525-40.8535Zm51.1494,60.8535h78.3037v27.9164c-12.9785-1.0231-26.0371-1.5424-39.1494-1.5424-13.1299,0-26.1851.5139-39.1543,1.5213v-27.8953Zm-437.165,522.6836c0-184.7668,105.0605-350.3361,269.9902-429.4388,8.5615-4.1064,17.2783-7.9889,26.1562-11.6198,57.2051-23.3906,117.8233-35.251,180.1729-35.251,238.6821,0,441.4912,177.9463,472.2876,414.1233.0547.4209.1147.8401.1685,1.2615,2.5566,20.1025,3.8535,40.5996,3.8535,60.9248v5.9766h-952.6289v-5.9766Zm1060.7177,70.0859c-.0439.3829-.1005.7637-.1557,1.1446-1.211,8.374-5.148,16.2468-11.1743,22.2744-7.4678,7.4658-17.4014,11.5781-27.9707,11.5781H464.9023c-21.8125,0-39.5576-17.7412-39.5576-39.5478,0-10.5645,4.1153-20.4971,11.5879-27.9698,7.3057-7.3059,16.9903-11.4074,27.2925-11.571.0781-.0012.1558-.0073.2339-.0081.1113-.0019.2226-.0049.334-.0097h1090.3047c21.8125,0,39.5576,17.7461,39.5576,39.5586,0,1.5312-.086,3.0615-.2569,4.5507Z" fill="#646044"/></g><g id="change1_4"><path d="m1118.6709,952.3379c-37.3184-17.0684-67.2549-7.292-85.7949,3.9121-9.9072,5.9873-17.6104,12.9775-22.878,18.5313-5.1464-5.4268-12.6171-12.2247-22.1982-18.1182-18.1445-11.1582-47.4609-21.1514-84.0908-5.3838-.7842.3389-1.5684.6875-2.3819,1.0576-16.4941,7.5381-28.4238,20.6123-34.499,37.8076-5.417,15.3321-6.0625,33.628-1.8642,52.9092,12.6845,58.2705,67.8271,120.2002,145.0341,120.2002,45.4102,0,88.1602-22.2344,117.2901-61.0029,25.2041-33.5371,35.8828-73.9824,27.8642-105.5449-5.208-20.4991-17.8232-35.8418-36.4814-44.3682Zm-7.3721,137.8984l-.0009.001c-6.398,8.5151-13.5396,16.1089-21.2676,22.7085-22.8496,19.5137-50.8428,30.3081-80.0323,30.3081-66.7402,0-114.4687-53.8174-125.4921-104.4541-6.4195-29.488.8335-53.3021,19.4184-65.1609,1.7969-1.1465,3.6939-2.1875,5.7007-3.1047.6758-.3076,1.3398-.6035,1.998-.8867,10.7676-4.6348,20.7305-6.5059,29.8028-6.5059,37.043,0,59.1914,31.2041,60.3183,32.8301,1.8575,2.7158,4.9414,4.332,8.2325,4.3418h.0302c3.2793,0,6.3594-1.6201,8.2276-4.3164,1.4531-2.0957,36.209-51.0332,92.122-25.4707,13.1446,6.0078,21.6944,16.4726,25.4112,31.1045,6.4658,25.4462-3.1387,60.2265-24.4688,88.6054Z" fill="#646044"/></g><g id="change1_5"><path d="m1308.9424,945.9229c-3.9639-3.8458-10.2949-3.75-14.1406.2148-3.8457,3.9639-3.7491,10.2949.2148,14.1406.54.5235,54.3037,53.0078,80.1963,106.2305,1.7305,3.5576,5.292,5.6269,8.999,5.6269,1.4678,0,2.959-.3242,4.3682-1.0097,4.9658-2.416,7.0332-8.4004,4.6172-13.3672-27.4131-56.3496-81.9463-109.5967-84.2549-111.8359Z" fill="#646044"/></g><g id="change1_6"><path d="m1260.0596,903.2197c-3.9053-3.9023-10.2354-3.9043-14.1426,0-3.9053,3.9053-3.9053,10.2364,0,14.1426l17.373,17.374c1.9532,1.9522,4.5118,2.9287,7.0713,2.9287,2.5586,0,5.1182-.9765,7.0713-2.9287,3.9053-3.9052,3.9053-10.2363,0-14.1425l-17.373-17.3741Z" fill="#646044"/></g><g id="change1_7"><path d="m616.1523,1321.9023h-95.2558c-5.5225,0-10,4.4776-10,10,0,3.9551,2.3027,7.3643,5.6352,8.9864,1.3204.6428,2.7974,1.0136,4.3648,1.0136h95.2558c1.5674,0,3.0445-.3708,4.3648-1.0136,3.3325-1.6221,5.6352-5.0313,5.6352-8.9864,0-5.5224-4.4775-10-10-10Z" fill="#646044"/></g><g id="change1_8"><path d="m672.9912,1321.9023h-12.8057c-5.5224,0-10,4.4776-10,10,0,3.9551,2.3028,7.3643,5.6353,8.9864,1.3203.6428,2.7974,1.0136,4.3647,1.0136h12.8057c1.5674,0,3.0444-.3708,4.3648-1.0136,3.3325-1.6221,5.6352-5.0313,5.6352-8.9864,0-5.5224-4.4775-10-10-10Z" fill="#646044"/></g><g id="change1_9"><path d="m992.7969,672.7471c0-5.5225-4.4776-10-10-10h-32.0156c-1.2388,0-2.42.2358-3.5147.6477-3.7861,1.424-6.4853,5.0686-6.4853,9.3523,0,5.5224,4.4775,10,10,10h32.0156c5.5224,0,10-4.4776,10-10Z" fill="#646044"/></g><g id="change1_10"><path d="m902.6504,847.6533c.7256,0,1.4619-.0791,2.1992-.2451,7.6084-1.708,29.1641-6.291,37.4404-6.9805,5.5039-.4589,9.5938-5.292,9.1358-10.7959-.459-5.5029-5.2783-9.6015-10.7959-9.1357-11.3418.9453-38.9903,7.1348-40.1611,7.3984-5.3887,1.21-8.7764,6.5586-7.5665,11.9473,1.044,4.6514,5.1719,7.8115,9.7481,7.8115Z" fill="#646044"/></g></svg>