<?xml version="1.0" encoding="UTF-8"?><svg xmlns="http://www.w3.org/2000/svg" xmlns:xlink="http://www.w3.org/1999/xlink" height="52.9" preserveAspectRatio="xMidYMid meet" version="1.0" viewBox="1.0 5.6 62.0 52.9" width="62.0" zoomAndPan="magnify"><g id="change1_1"><path d="M60.33 50.5L57.67 46.5 53 39.5 11 39.5 8.33 43.5 1 54.5 9.85 54.5 54.15 54.5 63 54.5 60.33 50.5z" fill="#a0d468"/></g><g id="change2_1"><path d="M29.90039,44.5c-1.20019-1.2207-2.8008-2.9395-4.47069-5C21.40039,34.5098,17,27.46,17,20.5a15,15,0,0,1,30,0c0,6.96-4.4004,14.0098-8.4297,19-1.6699,2.0605-3.2705,3.7793-4.47071,5h-.0098C32.8301,45.7695,32,46.5,32,46.5S31.1699,45.7695,29.90039,44.5Z" fill="#ed5565"/></g><g id="change3_1"><path d="M60.33 50.5L54.34 50.5 54.33 50.5 50.33 46.5 57.67 46.5 60.33 50.5z" fill="#8cc152"/></g><g id="change3_2"><path d="M38.1 48.5L42.43 44.5 47.87 53.5 24.13 53.5 20.13 49.5 38.1 48.5z" fill="#8cc152"/></g><g id="change4_1"><path d="M60.33 50.5L63 54.5 54.15 54.5 52.24 50.5 60.33 50.5z" fill="#e6e9ed"/></g><g id="change4_2"><path d="M32,46.5s.8301-.7305,2.08979-2H42.4297l1.4404,5H20.12989l1.44041-5h8.33009C31.1699,45.7695,32,46.5,32,46.5Z" fill="#e6e9ed"/></g><g id="change4_3"><path d="M15.09 43.5L9.85 54.5 1 54.5 8.33 43.5 15.09 43.5z" fill="#e6e9ed"/></g><g id="change3_3"><path d="M19.09 47.5L15.755 54.5 9.85 54.5 15.09 43.5 19.09 47.5z" fill="#8cc152"/></g><g id="change5_1"><path d="M63 54.5L63 58.5 1 58.5 1 54.5 9.85 54.5 54.15 54.5 63 54.5z" fill="#81b53e"/></g><g id="change4_4"><path d="M57.67 46.5L50.34 46.5 50.33 46.5 47 39.5 53 39.5 57.67 46.5z" fill="#e6e9ed"/></g><g id="change4_5"><path d="M39 13.5L36 17.5 33 13.5 39 13.5z" fill="#e6e9ed"/></g><g id="change6_1"><path d="M28,30.5a7,7,0,1,1,7-7A7.00849,7.00849,0,0,1,28,30.5Zm0-12a5,5,0,1,0,5,5A5.00588,5.00588,0,0,0,28,18.5Z" fill="#f6bb42"/></g><g id="change7_1"><path d="M36,30.5a7,7,0,1,1,7-7A7.00849,7.00849,0,0,1,36,30.5Zm0-12a5,5,0,1,0,5,5A5.00588,5.00588,0,0,0,36,18.5Z" fill="#ffce54"/></g><g id="change4_6"><path d="M36.001,18.501a.99556.99556,0,0,1-.80078-.40039l-3-4a.99961.99961,0,1,1,1.5996-1.19922l3,4A1.0001,1.0001,0,0,1,36.001,18.501Z" fill="#e6e9ed"/></g><g id="change4_7"><path d="M35.999,18.501a1.0001,1.0001,0,0,1-.79882-1.59961l3-4a.99961.99961,0,1,1,1.5996,1.19922l-3,4A.99556.99556,0,0,1,35.999,18.501Z" fill="#e6e9ed"/></g><g id="change4_8"><path d="M39,14.501H33a1,1,0,0,1,0-2h6a1,1,0,0,1,0,2Z" fill="#e6e9ed"/></g></svg>