<?xml version="1.0" encoding="UTF-8" standalone="no"?><svg xmlns="http://www.w3.org/2000/svg" xmlns:xlink="http://www.w3.org/1999/xlink" data-name="Layer 1" fill="#646044" height="62" preserveAspectRatio="xMidYMid meet" version="1" viewBox="1.0 1.0 62.0 62.0" width="62" zoomAndPan="magnify"><g id="change1_1"><path d="M32,1A31,31,0,1,0,63,32,31.0353,31.0353,0,0,0,32,1Zm0,60A29,29,0,1,1,61,32,29.0328,29.0328,0,0,1,32,61Z" fill="inherit"/></g><g id="change1_2"><path d="M32,47H17a1.0013,1.0013,0,0,1-1-1V44a9.01,9.01,0,0,1,9-9h4a10.0294,10.0294,0,1,0-5.7669-1.8445A11.0078,11.0078,0,0,0,14,44v2a3.0033,3.0033,0,0,0,3,3H32a1,1,0,0,0,0-2ZM21,25a8,8,0,1,1,8,8A8.0092,8.0092,0,0,1,21,25Z" fill="inherit"/></g><g id="change1_3"><path d="M48.2627,34.3242l-10.2939,11.23L33.707,41.293a1,1,0,0,0-1.414,1.414l5,5a1.01,1.01,0,0,0,1.4443-.0312l11-12a1,1,0,0,0-1.4746-1.3516Z" fill="inherit"/></g></svg>