<?xml version="1.0" encoding="UTF-8"?><svg xmlns="http://www.w3.org/2000/svg" xmlns:xlink="http://www.w3.org/1999/xlink" height="2473.4" preserveAspectRatio="xMidYMid meet" version="1.0" viewBox="-2.2 -1.4 1813.4 2473.4" width="1813.4" zoomAndPan="magnify"><g><g id="change1_1"><path d="M 871.765625 859.5625 C 870.183594 863.839844 870.871094 867.871094 870.867188 871.828125 C 870.835938 1331.800781 870.835938 1791.769531 870.839844 2251.738281 C 870.839844 2285.398438 870.816406 2319.070312 870.875 2352.730469 C 870.886719 2360.71875 871.515625 2361.890625 878.855469 2364.410156 C 890.933594 2368.558594 903.171875 2367.738281 915.226562 2364.199219 C 919.667969 2362.898438 922.640625 2359.941406 922.328125 2354.640625 C 922.113281 2350.988281 922.390625 2347.308594 922.390625 2343.648438 C 922.394531 1852.679688 922.390625 1361.710938 922.390625 870.75 C 922.390625 868.417969 922.296875 866.082031 922.378906 863.746094 C 922.5 860.199219 920.734375 858.972656 917.429688 859.488281 C 909.828125 860.671875 902.167969 860.988281 894.496094 860.730469 C 886.890625 860.488281 879.292969 859.957031 871.765625 859.5625 Z M 907.550781 396.15625 C 938.546875 396.15625 969.539062 396.261719 1000.53125 396.140625 C 1060.539062 395.898438 1120.449219 392.65625 1180.382812 390.09375 C 1208.351562 388.910156 1236.339844 387.941406 1264.25 385.9375 C 1313.089844 382.421875 1361.929688 378.738281 1410.539062 372.570312 C 1445.25 368.144531 1479.941406 363.777344 1513.511719 353.289062 C 1518.953125 351.589844 1524.378906 349.984375 1528.882812 346.375 C 1534.324219 342.007812 1534.21875 339.507812 1528.09375 336.113281 C 1516.9375 329.925781 1504.820312 326.183594 1492.421875 323.5 C 1440.21875 312.222656 1387.167969 306.445312 1334.128906 301.945312 C 1294.679688 298.609375 1255.089844 295.863281 1215.449219 294.152344 C 1127.878906 290.363281 1040.320312 286.179688 952.660156 285.679688 C 821.667969 284.921875 690.714844 286.648438 559.914062 294.667969 C 496.050781 298.59375 432.230469 302.898438 368.730469 310.980469 C 338.300781 314.84375 308.050781 319.726562 279.296875 331.09375 C 275.90625 332.445312 272.566406 334.003906 269.410156 335.824219 C 266.0625 337.75 265.660156 340.585938 268.78125 343.023438 C 271.644531 345.253906 274.828125 347.148438 278.039062 348.859375 C 300.15625 360.714844 324.359375 365.21875 348.828125 368.75 C 399.96875 376.160156 451.5 379.753906 502.921875 384.410156 C 545.421875 388.242188 588.113281 388.820312 630.695312 391.230469 C 722.921875 396.429688 815.246094 396.125 907.550781 396.15625 Z M 902.589844 2457.289062 C 980.089844 2457.820312 1065.929688 2454.25 1151.460938 2444.621094 C 1198.460938 2439.332031 1245.460938 2434.128906 1291.5 2422.671875 C 1311.242188 2417.761719 1330.769531 2412.289062 1349.019531 2403.058594 C 1357.980469 2398.519531 1366.488281 2393.261719 1372.550781 2384.949219 C 1377.148438 2378.648438 1377.199219 2376.011719 1372.410156 2369.832031 C 1366.570312 2362.300781 1358.898438 2356.960938 1350.300781 2353.109375 C 1335.710938 2346.570312 1320.878906 2340.621094 1305.308594 2336.761719 C 1260.320312 2325.628906 1214.691406 2318.0625 1168.648438 2312.949219 C 1133.882812 2309.082031 1099.039062 2306 1064.148438 2303.640625 C 1026.921875 2301.121094 989.660156 2298.980469 952.324219 2298.667969 C 944.082031 2298.601562 943.992188 2298.667969 943.96875 2306.550781 C 943.925781 2322.199219 943.632812 2337.878906 944.179688 2353.519531 C 944.425781 2360.589844 941.398438 2364.808594 935.917969 2368.160156 C 932.746094 2370.101562 929.214844 2371.082031 925.664062 2371.980469 C 910.269531 2375.871094 894.632812 2376.019531 878.996094 2374.28125 C 870.363281 2373.320312 862.039062 2370.800781 854.515625 2366.179688 C 850.535156 2363.738281 848.683594 2360.640625 848.851562 2355.519531 C 849.351562 2340.210938 849.265625 2324.878906 849.203125 2309.558594 C 849.15625 2297.21875 850.953125 2298.4375 837.960938 2298.648438 C 770.96875 2299.738281 704.164062 2304.058594 637.480469 2310.449219 C 591.34375 2314.871094 545.699219 2322.308594 500.585938 2332.960938 C 478.160156 2338.261719 457.703125 2347.390625 441.214844 2364.039062 C 438.878906 2366.398438 436.59375 2368.859375 434.628906 2371.53125 C 426.269531 2382.890625 427.644531 2391.71875 439.21875 2399.410156 C 443.34375 2402.148438 447.894531 2404.398438 452.496094 2406.261719 C 473.824219 2414.878906 495.683594 2421.890625 518.171875 2426.808594 C 569.367188 2438.019531 621.355469 2443.582031 673.433594 2448.410156 C 746.8125 2455.21875 820.375 2457.878906 902.589844 2457.289062 Z M 300.9375 374.617188 C 300.699219 375.222656 300.460938 375.84375 300.222656 376.449219 C 303.957031 379.679688 307.710938 382.878906 311.417969 386.121094 C 409.003906 471.421875 506.660156 556.644531 604.140625 642.0625 C 666.273438 696.515625 729.46875 749.722656 789.875 806.175781 C 837.148438 850.347656 893.296875 858.019531 953.761719 839.75 C 979.164062 832.082031 999.53125 815.589844 1018.800781 797.929688 C 1031.320312 786.453125 1043.21875 774.28125 1055.980469 763.078125 C 1114.351562 711.886719 1173.019531 661.058594 1231.320312 609.789062 C 1319.652344 532.117188 1408.671875 455.246094 1497.371094 378.011719 C 1498.890625 376.691406 1501.25 375.660156 1500.621094 372.21875 C 1481.710938 376.191406 1463.03125 379.148438 1444.289062 381.90625 C 1398.441406 388.667969 1352.320312 392.59375 1306.179688 396.308594 C 1224.132812 402.902344 1141.859375 405.902344 1059.609375 408.132812 C 983.019531 410.195312 906.382812 410.253906 829.734375 409.859375 C 735.726562 409.375 641.886719 405.117188 548.027344 400.902344 C 505.746094 399.007812 463.664062 394.472656 421.53125 390.683594 C 390.023438 387.847656 358.523438 384.789062 327.34375 379.195312 C 318.546875 377.617188 309.738281 376.132812 300.9375 374.617188 Z M 832.65625 229.726562 C 933.519531 230.332031 1005.148438 229.242188 1076.78125 227.285156 C 1162.410156 224.953125 1247.949219 221.707031 1333.371094 215.203125 C 1402.789062 209.929688 1472.160156 204.503906 1541.191406 195.089844 C 1594.351562 187.828125 1647.242188 179.492188 1699.34375 166.5 C 1719.730469 161.40625 1739.894531 155.660156 1758.734375 146.1875 C 1767.96875 141.546875 1776.867188 136.226562 1782.976562 127.40625 C 1788.417969 119.550781 1788.28125 117.324219 1782.277344 109.773438 C 1773.863281 99.164062 1762.269531 93.539062 1750.019531 88.808594 C 1703.480469 70.816406 1654.777344 61.386719 1605.886719 52.929688 C 1554.015625 43.941406 1501.601562 38.859375 1449.28125 33.402344 C 1380.019531 26.15625 1310.5 21.792969 1241.011719 17.472656 C 1161.179688 12.515625 1081.191406 10.785156 1001.230469 9.484375 C 875.917969 7.421875 750.644531 9.574219 625.394531 14.347656 C 541.800781 17.53125 458.355469 22.382812 375.078125 30.449219 C 312.753906 36.496094 250.417969 42.410156 188.636719 52.929688 C 149.570312 59.582031 110.660156 66.949219 72.742188 78.773438 C 61.519531 82.277344 50.917969 86.929688 41.644531 94.28125 C 34.238281 100.148438 27.984375 107.03125 23.898438 115.609375 C 19.082031 125.722656 21.066406 133.484375 29.882812 140.230469 C 34.398438 143.683594 39.386719 146.308594 44.582031 148.625 C 77.957031 163.558594 113.234375 171.941406 148.921875 178.761719 C 212.101562 190.828125 275.835938 198.789062 339.828125 205.320312 C 414.109375 212.902344 488.503906 218.554688 563.054688 222.027344 C 662.597656 226.664062 762.214844 229.058594 832.65625 229.726562 Z M 67.578125 169.742188 C 66.21875 168.910156 64.488281 168.183594 63.539062 169.636719 C 63.042969 170.394531 64.683594 171.425781 65.886719 171.714844 C 66.25 172.273438 66.507812 172.941406 66.984375 173.351562 C 89.613281 193.027344 112.273438 212.65625 134.902344 232.320312 C 170.371094 263.152344 205.828125 293.984375 241.246094 324.863281 C 243.90625 327.183594 245.972656 328.683594 249.90625 326.652344 C 272.015625 315.222656 295.878906 309.144531 320.167969 304.640625 C 358.863281 297.457031 398.003906 293.773438 437.160156 290.148438 C 490.59375 285.207031 544.152344 282.011719 597.703125 278.871094 C 646.617188 276.007812 695.621094 275.492188 744.597656 274.234375 C 864.582031 271.15625 984.542969 271.277344 1104.46875 276.171875 C 1194.339844 279.84375 1284.242188 282.980469 1373.789062 292.546875 C 1413.570312 296.804688 1453.148438 301.972656 1492.5 309.082031 C 1511.570312 312.523438 1530.246094 317.542969 1547.359375 326.910156 C 1551.878906 329.382812 1554.453125 328.289062 1557.789062 325.257812 C 1566.414062 317.390625 1575.296875 309.839844 1584.105469 302.1875 C 1634.113281 258.648438 1684.152344 215.128906 1734.148438 171.5625 C 1734.753906 171.03125 1734.84375 169.894531 1735.195312 169 C 1732.964844 168 1731.023438 168.757812 1729.128906 169.242188 C 1682.363281 181.355469 1635.113281 190.8125 1587.289062 198.015625 C 1528.625 206.851562 1469.71875 213.355469 1410.652344 218.386719 C 1341.269531 224.269531 1271.789062 229.453125 1202.210938 232.199219 C 1127.621094 235.152344 1052.980469 237.398438 978.34375 238.398438 C 884.703125 239.65625 791.058594 238.414062 697.425781 235.640625 C 602.144531 232.804688 506.9375 229.03125 411.929688 221.101562 C 362.796875 217.007812 313.679688 212.523438 264.78125 206.304688 C 198.382812 197.863281 132.171875 188.070312 67.578125 169.742188 Z M 849.234375 1569.828125 C 849.234375 1335.828125 849.234375 1101.839844 849.234375 867.839844 C 849.234375 854.851562 849.226562 854.851562 837.40625 850.515625 C 816.769531 842.964844 798.960938 830.792969 782.285156 816.769531 C 757.554688 795.972656 732.613281 775.417969 708.117188 754.332031 C 660.367188 713.25 612.726562 672.046875 565.554688 630.300781 C 519.386719 589.433594 472.640625 549.214844 426.136719 508.726562 C 374.101562 463.433594 322.023438 418.183594 270.03125 372.84375 C 213.015625 323.121094 156.082031 273.292969 99.101562 223.527344 C 71.25 199.210938 43.378906 174.914062 15.480469 150.628906 C 12.445312 147.988281 10.070312 144.761719 7.277344 141.941406 C -1.898438 132.664062 -2.199219 120.796875 5.25 109.015625 C 16.078125 91.902344 31.921875 81.398438 50.582031 74.695312 C 66.265625 69.058594 82.367188 64.769531 98.566406 60.964844 C 148.214844 49.277344 198.476562 40.984375 249.066406 34.691406 C 322.816406 25.535156 396.824219 18.941406 470.910156 13.289062 C 515.109375 9.90625 559.410156 8.316406 603.695312 6.390625 C 741.941406 0.417969 880.242188 -1.386719 1018.582031 1.054688 C 1084.878906 2.222656 1151.21875 4.042969 1217.449219 7.375 C 1297.648438 11.421875 1377.789062 16.957031 1457.691406 25.203125 C 1514 31.007812 1570.402344 36.601562 1626.15625 46.773438 C 1672.027344 55.15625 1717.714844 64.417969 1761.523438 80.972656 C 1769.332031 83.914062 1777.03125 87.035156 1784.277344 91.191406 C 1790.691406 94.875 1796.328125 99.480469 1801.195312 105.074219 C 1810.957031 116.339844 1811.246094 121.21875 1801.605469 132.769531 C 1796.496094 138.878906 1790.992188 144.65625 1784.914062 149.945312 C 1739.195312 189.785156 1693.628906 229.804688 1648.03125 269.777344 C 1620.714844 293.726562 1592.988281 317.179688 1565.71875 341.175781 C 1494.660156 403.691406 1422.640625 465.113281 1351.699219 527.75 C 1305.730469 568.347656 1258.871094 607.894531 1213.148438 648.78125 C 1169.929688 687.433594 1125.511719 724.742188 1081.96875 763.03125 C 1067.449219 775.8125 1052.589844 788.164062 1037.691406 800.445312 C 1023.3125 812.296875 1008.699219 823.941406 993.117188 834.234375 C 979.960938 842.917969 965.90625 849.785156 950.570312 853.605469 C 945.398438 854.894531 943.679688 857.351562 943.847656 862.597656 C 944.214844 873.917969 943.957031 885.257812 943.957031 896.597656 C 943.957031 1355.25 943.960938 1813.910156 943.960938 2272.570312 C 943.960938 2284.910156 943.964844 2284.839844 955.914062 2285.148438 C 1043.929688 2287.449219 1131.699219 2293.390625 1218.960938 2305.199219 C 1255.898438 2310.191406 1292.652344 2316.851562 1328.75 2326.519531 C 1345.53125 2331.011719 1361.628906 2337.308594 1377.460938 2344.351562 C 1386.691406 2348.449219 1395.199219 2353.800781 1402.050781 2361.191406 C 1415.949219 2376.171875 1413.082031 2381.441406 1402.378906 2393.582031 C 1394.789062 2402.191406 1384.8125 2407.808594 1374.53125 2412.710938 C 1353.070312 2422.949219 1330.320312 2429.230469 1307.300781 2434.808594 C 1261.53125 2445.921875 1214.890625 2451.308594 1168.230469 2456.738281 C 1059.421875 2469.398438 950.191406 2472.011719 840.800781 2470.589844 C 768.777344 2469.660156 696.96875 2465.082031 625.339844 2457.429688 C 580.917969 2452.691406 536.699219 2446.800781 493.132812 2436.78125 C 470.058594 2431.480469 447.589844 2424.160156 425.679688 2415.160156 C 419.191406 2412.488281 412.871094 2409.53125 407.164062 2405.398438 C 392.105469 2394.519531 390.046875 2381.46875 401.378906 2366.871094 C 409.859375 2355.949219 420.535156 2347.480469 432.386719 2340.429688 C 448.308594 2330.941406 465.65625 2325.230469 483.566406 2321.070312 C 542.097656 2307.460938 601.414062 2299.128906 661.292969 2294.449219 C 721.445312 2289.738281 781.652344 2286.089844 841.992188 2284.96875 C 849.152344 2284.839844 849.210938 2284.738281 849.214844 2275.808594 C 849.238281 2211.8125 849.234375 2147.808594 849.234375 2083.808594 C 849.234375 1912.480469 849.234375 1741.160156 849.234375 1569.828125" fill="#0f0f0f"/></g><g id="change2_1"><path d="M 65.886719 171.722656 C 64.683594 171.425781 63.042969 170.394531 63.535156 169.644531 C 64.488281 168.191406 66.21875 168.910156 67.578125 169.742188 C 67.015625 170.40625 66.453125 171.058594 65.886719 171.722656" fill="#fefefe"/></g></g></svg>