<?xml version="1.0" encoding="UTF-8" standalone="no"?><svg xmlns="http://www.w3.org/2000/svg" xmlns:xlink="http://www.w3.org/1999/xlink" fill="#646044" height="476" preserveAspectRatio="xMidYMid meet" version="1" viewBox="5.1 7.4 482.6 476.0" width="482.6" zoomAndPan="magnify"><g id="change1_1"><path d="M302.113,218.977c-17.514-5.312-31.514,5.263-40.6,18.8-27.32-57-91.82-.287-43.969,40.776q-53.538-.015-107.075.1c48.241-36.131,97.865-70.33,150.1-100.165,5.484-3.707,5.774-10.474,1.789-15.662-21.616-35.123-20.811-57.547-64.613-29.006,6.291-16.125-2.306-35.52-18.078-42.346C149.131,79.686,126.726,110.625,125,138.34c-1.959,14,1.151,29.755-3.933,42.968-18.678,14.423-56.734-9.138-82.618-.028-33.359,9.879-26.567,56.281,7.152,58.789C29.658,251.563,17.2,260.762,30.656,280.824l9.678,16.954c6.014,11.053,10.908,23.033,25.266,14.748-1.807,48.218-.867,97.308-1.028,145.611,0,7.938.338,15.543,7.325,21,5.474,4.276,11.562,4.071,17.995,4.069q96.065-.018,192.127-.188c11.074-.072,20.079-7.051,20.625-18.637.147-61.311,2.874-123.459,1.3-184.407C321.6,264.281,328.952,228.394,302.113,218.977ZM168.941,456.814c.074,1.127.068,2.474.06,3.92a2.794,2.794,0,0,0-.289-.06v-7.466C168.79,454.41,168.863,455.612,168.941,456.814ZM56.984,219.323c-5.9.4-12.47-.93-11.452-8.364.944-6.9,7.106-7.72,12.916-7.046,10.131,1.174,19.527,4.072,29.533,3.215C78.716,213.452,68.342,218.561,56.984,219.323Zm96.532-94.976c2.859-4.84,8.665-9.11,14.506-6.806,6.632,2.617,6.35,11.236,4.92,16.958-2.222,8.886-7.354,16.622-13.56,23.257q-6.887,4.554-13.7,9.224C151.365,153.574,146.019,137.147,153.516,124.347Zm59.846,10.47c12.085-7.9,19.4-8.742,26.142,5.463,5.509,9.5,10.737,19.187,16.393,28.585a5.6,5.6,0,0,1-1.085,4.193c-27.107,15.127-53.89,31.184-79.344,49.069l-31.53-43.389C166.564,163.236,189.477,148.241,213.362,134.817ZM68.394,299.991c-3.144,2.423-9.246,9.632-13.429,6.037-2.293-1.971-3.7-6.079-5.146-8.611-4.937-8.666-10.185-17.222-14.838-26.044-5.365-10.176,4.448-16,11.49-21.394,18.7-14.338,37.594-28.338,56.632-42.242l31.374,43.172Q101.014,274.875,68.394,299.991Zm92.318,175.276c-25.228-.112-50.46.129-75.687-.056-7.661-.083-12.36-4.994-12.437-12.586-.085-51.488.524-102.975-1.169-154.434q14.663-11.325,29.483-22.444c19.936.235,39.872.208,59.81.2ZM295.159,458.7c-.1,7.779-1.136,16.2-11.3,16.7-24.348.034-48.716-.1-73.071-.081V285.957c28.395.006,58.016.012,86.49.021Q296.217,372.339,295.159,458.7Z" fill="inherit"/></g><g id="change1_2"><path d="M377.079,62.519C357.347,49.137,338.4,52.755,324.04,71.56c-12.1-53-83.8-39.677-77.929,13.615,5.25,34.315,44.088,47,57.729,76.564a2.516,2.516,0,0,0,4.557.273c16.1-25.331,51.507-24.991,71.012-46.534C393.8,100.7,393.258,75.73,377.079,62.519Z" fill="inherit"/></g><g id="change1_3"><path d="M443.284,178.113c-7.691-1.943-16.52.467-23.258,5.9,4.851-36.52-42.21-33.553-43.647-.788-1.006,19.044,14.629,33.617,10.456,53.163-.3,1.415.805,2.414,2.113,1.759,19.318-9.3,41.981.323,59.128-14.782C462.758,211.219,463.5,183.915,443.284,178.113Z" fill="inherit"/></g><g id="change1_4"><path d="M392.044,281.183c-4.619.036-9.238,2.692-12.234,6.744-2.607-21.251-28.7-12.747-24.7,5.974,2.234,10.876,13.184,16.786,13.707,28.411a.846.846,0,0,0,1.449.68c9.516-8.08,23.7-5.991,31.135-17.021C407.918,297.132,404.175,281.341,392.044,281.183Z" fill="inherit"/></g><g id="change1_5"><path d="M177.882,54.967c5.8,2.556,12.195,4.246,16.956,9.114a.846.846,0,0,0,1.5-.567c1.421-11.548,12.795-16.6,15.864-27.265C217.63,17.9,192.276,7.4,188.031,28.382c-5.6-9.4-18.692-10.759-23.783-.253C158.981,39.608,167.075,51.01,177.882,54.967Z" fill="inherit"/></g><g id="change1_6"><path d="M452.392,33.949c-5.272-25.591-36.011-12.895-29.475,9.594,3.742,13.014,17.614,19.168,19.347,33.253a1.032,1.032,0,0,0,1.826.691c5.807-5.937,13.606-8,20.68-11.116C478.119,61.3,487.736,47.948,481.4,33.64,475.072,20.792,459.33,22.465,452.392,33.949Z" fill="inherit"/></g></svg>