<svg xmlns="http://www.w3.org/2000/svg" version="1" viewBox="194.7 570.8 1732 979.8">
    <path fill="#646044"
        d="M1840.766 1464.648c-31.551 31.524-74.93 50.954-123.024 50.961-48.11-.007-91.488-19.437-123.035-50.96-31.512-31.528-50.934-74.919-50.945-123.02 0-6.11.32-12.129.922-18.07l60.91 23.683c1.418 28.738 13.687 54.746 32.742 73.79 20.27 20.296 48.45 32.898 79.418 32.886 30.934.012 59.11-12.598 79.383-32.887 20.293-20.261 32.918-48.441 32.894-79.402.024-30.957-12.601-59.137-32.894-79.399-20.274-20.289-48.45-32.902-79.383-32.89-26.559-.012-51.063 9.289-70.293 24.738l-62.836-24.43a175.028 175.028 0 0 1 10.082-11.046c31.547-31.512 74.926-50.942 123.035-50.954 48.094.012 91.473 19.442 123.024 50.954 31.511 31.539 50.953 74.93 50.953 123.027 0 48.101-19.442 91.492-50.953 123.02Zm-126.782-78.98a51.11 51.11 0 0 0 28.461-8.68 50.91 50.91 0 0 0 19.09-23.828v-.031a50.931 50.931 0 0 0 3.461-18.45 51.112 51.112 0 0 0-8.676-28.468 51.038 51.038 0 0 0-23.851-19.082l-43.992-17.098a76.868 76.868 0 0 1 29.277-5.773c21.406.012 40.637 8.633 54.691 22.66 14.032 14.062 22.657 33.293 22.668 54.71-.011 21.423-8.636 40.653-22.668 54.7-14.054 14.031-33.285 22.66-54.691 22.672-21.43-.012-40.66-8.64-54.715-22.672-9.445-9.45-16.336-21.27-19.918-34.5l52.387 20.371a51.357 51.357 0 0 0 13.414 3.223l1.75-17.383-1.735 17.383a50.53 50.53 0 0 0 5.047.246ZM577.891 910.18c-6.235-2.403-10.266-8.43-10.258-14.965a11.76 11.76 0 0 1 .07-1.488c.129-1.254.129-2.59-.012-3.844l-25.207-221.778c-1.004-8.796-8.437-15.46-17.289-15.484l-69.64-.238v-32.446l104.484-.07c4 .52 7.36 2.363 9.883 5.153 2.613 2.91 4.137 6.644 4.137 10.71 0 .532-.036 1.098-.09 1.688a17.63 17.63 0 0 0 .047 3.797l28.27 234.058a17.41 17.41 0 0 0 11.007 14.184L1719.82 1319.68c3.227 1.27 5.723 3.351 7.508 6 1.774 2.64 2.766 5.808 2.754 9 0 1.922-.344 3.86-1.113 5.84l.011-.032a15.957 15.957 0 0 1-5.992 7.512 16.205 16.205 0 0 1-9.004 2.75c-.523 0-1.043-.031-1.574-.078a16.356 16.356 0 0 1-4.242-1.02Zm540.21 312.75c9.79-15.43 19.59-30.871 29.348-46.352 1.02-1.617 2.02-3.258 3.051-4.879h3.629l131.758 51.23Zm-276.597-172.778 222.797 86.63H877.379Zm235.238 172.778H902.13c-9.649 0-17.465 7.82-17.465 17.472 0 9.637 7.816 17.457 17.465 17.457h152.492c-18.82 29.75-37.562 59.602-55.965 89.711-7.851 12.88-14.332 26.88-20.664 40.93-9.445 21.07-18.613 42.258-29.844 59.371-5.597 8.55-11.664 16.07-18.367 22.207-6.718 6.164-14.031 10.98-22.562 14.402-5.7 2.27-10.836 3.192-15.7 3.192-6.39-.012-12.437-1.59-18.433-4.664-8.957-4.567-17.621-12.738-24.441-22.957-6.84-10.172-11.77-22.281-13.899-33.719-25.683-136.672-52.371-273.453-79.828-409.852l41.527 16.149 53.125 128.293a17.464 17.464 0 0 0 16.14 10.777H1109.2a41283.824 41283.824 0 0 1-32.457 51.23ZM733.43 789.176h1059.675c-18.402 35.992-55.398 105.554-99.523 173.226-29.762 45.7-62.848 90.54-94.914 123.157-16.004 16.312-31.773 29.53-46.207 38.3-7.219 4.391-14.074 7.66-20.41 9.801-6.324 2.13-12.106 3.121-17.305 3.121h-168.98L787.492 919.72Zm-42.188-34.926c-7.633-.012-14.39-3.05-19.414-8.04-4.996-5.023-8.027-11.784-8.039-19.42.012-7.634 3.043-14.384 8.04-19.407 5.023-5 11.78-8.04 19.413-8.051h1146.164c7.649.012 14.399 3.05 19.41 8.05 5 5.024 8.036 11.774 8.047 19.407-.011 7.637-3.047 14.399-8.047 19.422-5.011 4.988-11.761 8.027-19.41 8.039Zm1069.653 226.313c-.012 20.316-3.106 35.996-6.086 46.406-1.489 5.21-2.954 9.09-3.985 11.562-.187.43-.328.77-.484 1.117l-106.63 106.622a209.142 209.142 0 0 0-73.694 47.64 208.654 208.654 0 0 0-19.493 22.48l-114.937-44.69h79.16c9.938 0 19.774-1.93 29.36-5.263 17.976-6.265 35.257-17.277 52.34-31.335 29.843-24.66 59.23-58.993 87.148-96.813 25.636-34.8 49.937-72.539 71.332-108.195 4.375 19.078 5.957 35.968 5.969 50.468ZM420.633 664.418H229.59v-58.711h191.043Zm1444.824 529.492c-37.754-37.781-90.094-61.2-147.715-61.191-3.832 0-7.637.12-11.406.32l70.836-70.84a17.935 17.935 0 0 0 3.027-4.058c1.004-1.852 15.613-29.762 15.625-77.579.024-25.496-4.23-56.554-16.691-91.957a1977.835 1977.835 0 0 0 12.402-22.125c19.313-34.964 33.649-63.168 40.684-77.304h5.187a62.278 62.278 0 0 0 44.114-18.274 62.32 62.32 0 0 0 18.273-44.113 62.31 62.31 0 0 0-18.273-44.098 62.229 62.229 0 0 0-44.114-18.273H691.242a62.21 62.21 0 0 0-44.105 18.273 62.21 62.21 0 0 0-18.27 44.098 62.219 62.219 0 0 0 18.27 44.113 62.26 62.26 0 0 0 44.105 18.274h4.39l46.806 113.023-106.731-41.5-26.855-222.32c.043-.887.128-1.762.128-2.649a50.9 50.9 0 0 0-13.09-34.066 50.932 50.932 0 0 0-32.812-16.629 13.932 13.932 0 0 0-1.762-.086l-106.082.074c-.652-3.43-2.308-6.644-4.796-9.125a17.563 17.563 0 0 0-12.344-5.12H212.133a17.582 17.582 0 0 0-12.352 5.12 17.567 17.567 0 0 0-5.117 12.34v93.637c0 4.598 1.867 9.102 5.117 12.352a17.583 17.583 0 0 0 12.352 5.105h225.96c4.598 0 9.094-1.855 12.344-5.105 1.942-1.938 3.313-4.336 4.165-6.914l54.93.175 23.312 205.067c-.04.886-.133 1.832-.133 2.66a50.988 50.988 0 0 0 32.52 47.52l151.054 58.726c28.996 143.508 57.106 287.476 84.137 431.32 4.16 21.809 14.433 43.239 29.719 60.2 7.664 8.449 16.66 15.777 26.98 21.09 10.293 5.3 22.004 8.527 34.399 8.519 9.406.008 19.12-1.86 28.671-5.68 17.079-6.82 30.922-17.62 42.082-30.101 16.774-18.77 28.043-41.168 38.016-62.77 9.89-21.598 18.531-42.559 28.172-58.258 22.09-36.14 44.73-72.031 67.488-107.922h279.758l135.445 52.66a209.001 209.001 0 0 0-2.316 31.11c-.012 57.633 23.402 109.973 61.18 147.723 37.754 37.777 90.078 61.187 147.726 61.18 57.621.007 109.961-23.403 147.715-61.18 37.79-37.75 61.203-90.082 61.191-147.723.012-57.637-23.402-109.969-61.191-147.719" />
</svg>