<?xml version="1.0" encoding="UTF-8" standalone="no"?><svg xmlns="http://www.w3.org/2000/svg" xmlns:xlink="http://www.w3.org/1999/xlink" fill="#000000" height="979.8" preserveAspectRatio="xMidYMid meet" version="1" viewBox="194.7 570.8 1732.0 979.8" width="1732" zoomAndPan="magnify"><g id="change1_1"><path d="M 1840.765625 1464.648438 C 1809.214844 1496.171875 1765.835938 1515.601562 1717.742188 1515.609375 C 1669.632812 1515.601562 1626.253906 1496.171875 1594.707031 1464.648438 C 1563.195312 1433.121094 1543.773438 1389.730469 1543.761719 1341.628906 C 1543.761719 1335.519531 1544.082031 1329.5 1544.683594 1323.558594 L 1605.59375 1347.242188 C 1607.011719 1375.980469 1619.28125 1401.988281 1638.335938 1421.03125 C 1658.605469 1441.328125 1686.785156 1453.929688 1717.753906 1453.917969 C 1748.6875 1453.929688 1776.863281 1441.320312 1797.136719 1421.03125 C 1817.429688 1400.769531 1830.054688 1372.589844 1830.03125 1341.628906 C 1830.054688 1310.671875 1817.429688 1282.492188 1797.136719 1262.230469 C 1776.863281 1241.941406 1748.6875 1229.328125 1717.753906 1229.339844 C 1691.195312 1229.328125 1666.691406 1238.628906 1647.460938 1254.078125 L 1584.625 1229.648438 C 1587.828125 1225.828125 1591.183594 1222.140625 1594.707031 1218.601562 C 1626.253906 1187.089844 1669.632812 1167.660156 1717.742188 1167.648438 C 1765.835938 1167.660156 1809.214844 1187.089844 1840.765625 1218.601562 C 1872.277344 1250.140625 1891.71875 1293.53125 1891.71875 1341.628906 C 1891.71875 1389.730469 1872.277344 1433.121094 1840.765625 1464.648438 Z M 1713.984375 1385.667969 C 1724.21875 1385.660156 1734.101562 1382.589844 1742.445312 1376.988281 C 1750.789062 1371.402344 1757.632812 1363.191406 1761.535156 1353.160156 L 1761.535156 1353.128906 C 1763.875 1347.109375 1764.996094 1340.839844 1764.996094 1334.679688 C 1764.984375 1324.441406 1761.925781 1314.550781 1756.320312 1306.210938 C 1750.71875 1297.871094 1742.503906 1291.03125 1732.46875 1287.128906 L 1688.476562 1270.03125 C 1697.492188 1266.332031 1707.351562 1264.257812 1717.753906 1264.257812 C 1739.160156 1264.269531 1758.390625 1272.890625 1772.445312 1286.917969 C 1786.476562 1300.980469 1795.101562 1320.210938 1795.113281 1341.628906 C 1795.101562 1363.050781 1786.476562 1382.28125 1772.445312 1396.328125 C 1758.390625 1410.359375 1739.160156 1418.988281 1717.753906 1419 C 1696.324219 1418.988281 1677.09375 1410.359375 1663.039062 1396.328125 C 1653.59375 1386.878906 1646.703125 1375.058594 1643.121094 1361.828125 L 1695.507812 1382.199219 C 1699.894531 1383.898438 1704.410156 1384.96875 1708.921875 1385.421875 L 1710.671875 1368.039062 L 1708.9375 1385.421875 C 1710.613281 1385.589844 1712.292969 1385.667969 1713.984375 1385.667969 Z M 577.890625 910.179688 C 571.65625 907.777344 567.625 901.75 567.632812 895.214844 C 567.625 894.636719 567.65625 894.136719 567.703125 893.726562 C 567.832031 892.472656 567.832031 891.136719 567.691406 889.882812 L 542.484375 668.105469 C 541.480469 659.308594 534.046875 652.644531 525.195312 652.621094 L 455.554688 652.382812 L 455.554688 619.9375 L 560.039062 619.867188 C 564.039062 620.386719 567.398438 622.230469 569.921875 625.019531 C 572.535156 627.929688 574.058594 631.664062 574.058594 635.730469 C 574.058594 636.261719 574.023438 636.828125 573.96875 637.417969 C 573.851562 638.671875 573.859375 639.960938 574.015625 641.214844 L 602.285156 875.273438 C 603.058594 881.691406 607.269531 887.117188 613.292969 889.457031 L 1719.820312 1319.679688 C 1723.046875 1320.949219 1725.542969 1323.03125 1727.328125 1325.679688 C 1729.101562 1328.320312 1730.09375 1331.488281 1730.082031 1334.679688 C 1730.082031 1336.601562 1729.738281 1338.539062 1728.96875 1340.519531 L 1728.980469 1340.488281 C 1727.71875 1343.71875 1725.625 1346.210938 1722.988281 1348 C 1720.34375 1349.78125 1717.175781 1350.75 1713.984375 1350.75 C 1713.460938 1350.75 1712.941406 1350.71875 1712.410156 1350.671875 C 1711.003906 1350.53125 1709.597656 1350.199219 1708.167969 1349.652344 Z M 1118.101562 1222.929688 C 1127.890625 1207.5 1137.691406 1192.058594 1147.449219 1176.578125 C 1148.46875 1174.960938 1149.46875 1173.320312 1150.5 1171.699219 C 1151.699219 1171.699219 1152.910156 1171.699219 1154.128906 1171.699219 L 1285.886719 1222.929688 Z M 841.503906 1050.152344 L 1064.300781 1136.78125 C 973.867188 1136.78125 903.941406 1136.78125 877.378906 1136.78125 Z M 1076.742188 1222.929688 L 902.128906 1222.929688 C 892.480469 1222.929688 884.664062 1230.75 884.664062 1240.402344 C 884.664062 1250.039062 892.480469 1257.859375 902.128906 1257.859375 L 1054.621094 1257.859375 C 1035.800781 1287.609375 1017.058594 1317.460938 998.65625 1347.570312 C 990.804688 1360.449219 984.324219 1374.449219 977.992188 1388.5 C 968.546875 1409.570312 959.378906 1430.757812 948.148438 1447.871094 C 942.550781 1456.421875 936.484375 1463.941406 929.78125 1470.078125 C 923.0625 1476.242188 915.75 1481.058594 907.21875 1484.480469 C 901.519531 1486.75 896.382812 1487.671875 891.519531 1487.671875 C 885.128906 1487.660156 879.082031 1486.082031 873.085938 1483.007812 C 864.128906 1478.441406 855.464844 1470.269531 848.644531 1460.050781 C 841.804688 1449.878906 836.875 1437.769531 834.746094 1426.332031 C 809.0625 1289.660156 782.375 1152.878906 754.917969 1016.480469 L 796.445312 1032.628906 L 849.570312 1160.921875 C 852.273438 1167.449219 858.644531 1171.699219 865.710938 1171.699219 C 865.722656 1171.699219 871.507812 1171.699219 882.195312 1171.699219 C 916.820312 1171.699219 1002.769531 1171.699219 1109.199219 1171.699219 C 1098.398438 1188.78125 1087.578125 1205.847656 1076.742188 1222.929688 Z M 733.429688 789.175781 L 1793.105469 789.175781 C 1774.703125 825.167969 1737.707031 894.730469 1693.582031 962.402344 C 1663.820312 1008.101562 1630.734375 1052.941406 1598.667969 1085.558594 C 1582.664062 1101.871094 1566.894531 1115.089844 1552.460938 1123.859375 C 1545.242188 1128.25 1538.386719 1131.519531 1532.050781 1133.660156 C 1525.726562 1135.789062 1519.945312 1136.78125 1514.746094 1136.78125 C 1460.796875 1136.78125 1403.339844 1136.78125 1345.765625 1136.78125 L 787.492188 919.71875 Z M 691.242188 754.25 C 683.609375 754.238281 676.851562 751.199219 671.828125 746.210938 C 666.832031 741.1875 663.800781 734.425781 663.789062 726.789062 C 663.800781 719.15625 666.832031 712.40625 671.828125 707.382812 C 676.851562 702.382812 683.609375 699.34375 691.242188 699.332031 L 1837.40625 699.332031 C 1845.054688 699.34375 1851.804688 702.382812 1856.816406 707.382812 C 1861.816406 712.40625 1864.851562 719.15625 1864.863281 726.789062 C 1864.851562 734.425781 1861.816406 741.1875 1856.816406 746.210938 C 1851.804688 751.199219 1845.054688 754.238281 1837.40625 754.25 Z M 1760.894531 980.5625 C 1760.882812 1000.878906 1757.789062 1016.558594 1754.808594 1026.96875 C 1753.320312 1032.179688 1751.855469 1036.058594 1750.824219 1038.53125 C 1750.636719 1038.960938 1750.496094 1039.300781 1750.339844 1039.648438 L 1643.710938 1146.269531 C 1615.804688 1156.851562 1590.710938 1173.210938 1570.015625 1193.910156 C 1562.992188 1200.917969 1556.492188 1208.4375 1550.523438 1216.390625 L 1435.585938 1171.699219 C 1462.535156 1171.699219 1489.023438 1171.699219 1514.746094 1171.699219 C 1524.683594 1171.699219 1534.519531 1169.769531 1544.105469 1166.4375 C 1562.082031 1160.171875 1579.363281 1149.160156 1596.445312 1135.101562 C 1626.289062 1110.441406 1655.675781 1076.109375 1683.59375 1038.289062 C 1709.230469 1003.488281 1733.53125 965.75 1754.925781 930.09375 C 1759.300781 949.171875 1760.882812 966.0625 1760.894531 980.5625 Z M 420.632812 664.417969 L 229.589844 664.417969 L 229.589844 605.707031 L 420.632812 605.707031 Z M 1865.457031 1193.910156 C 1827.703125 1156.128906 1775.363281 1132.710938 1717.742188 1132.71875 C 1713.910156 1132.71875 1710.105469 1132.839844 1706.335938 1133.039062 L 1777.171875 1062.199219 C 1778.332031 1061.050781 1779.417969 1059.582031 1780.199219 1058.140625 C 1781.203125 1056.289062 1795.8125 1028.378906 1795.824219 980.5625 C 1795.847656 955.066406 1791.59375 924.007812 1779.132812 888.605469 C 1783.460938 881.007812 1787.609375 873.582031 1791.535156 866.480469 C 1810.847656 831.515625 1825.183594 803.3125 1832.21875 789.175781 L 1837.40625 789.175781 C 1854.582031 789.175781 1870.289062 782.167969 1881.519531 770.902344 C 1892.773438 759.675781 1899.792969 743.964844 1899.792969 726.789062 C 1899.792969 709.628906 1892.773438 693.917969 1881.519531 682.691406 C 1870.289062 671.425781 1854.582031 664.40625 1837.40625 664.417969 L 691.242188 664.417969 C 674.066406 664.40625 658.367188 671.425781 647.136719 682.691406 C 635.871094 693.917969 628.855469 709.628906 628.867188 726.789062 C 628.855469 743.964844 635.871094 759.675781 647.136719 770.902344 C 658.367188 782.167969 674.066406 789.175781 691.242188 789.175781 L 695.632812 789.175781 L 742.4375 902.199219 L 635.707031 860.699219 L 608.851562 638.378906 C 608.894531 637.492188 608.980469 636.617188 608.980469 635.730469 C 608.980469 622.773438 604.058594 610.730469 595.890625 601.664062 C 587.746094 592.585938 576.160156 586.34375 563.078125 585.035156 C 562.351562 584.960938 562.050781 584.949219 561.316406 584.949219 L 455.234375 585.023438 C 454.582031 581.59375 452.925781 578.378906 450.4375 575.898438 C 447.1875 572.644531 442.691406 570.777344 438.09375 570.777344 L 212.132812 570.777344 C 207.53125 570.777344 203.035156 572.644531 199.78125 575.898438 C 196.53125 579.148438 194.664062 583.640625 194.664062 588.238281 L 194.664062 681.875 C 194.664062 686.472656 196.53125 690.976562 199.78125 694.226562 C 203.035156 697.476562 207.53125 699.332031 212.132812 699.332031 L 438.09375 699.332031 C 442.691406 699.332031 447.1875 697.476562 450.4375 694.226562 C 452.378906 692.289062 453.75 689.890625 454.601562 687.3125 L 509.53125 687.488281 L 532.84375 892.554688 C 532.804688 893.441406 532.710938 894.386719 532.710938 895.214844 C 532.710938 916.101562 545.484375 935.046875 565.230469 942.734375 L 716.285156 1001.460938 C 745.28125 1144.96875 773.390625 1288.9375 800.421875 1432.78125 C 804.582031 1454.589844 814.855469 1476.019531 830.140625 1492.980469 C 837.804688 1501.429688 846.800781 1508.757812 857.121094 1514.070312 C 867.414062 1519.371094 879.125 1522.597656 891.519531 1522.589844 C 900.925781 1522.597656 910.640625 1520.730469 920.191406 1516.910156 C 937.269531 1510.089844 951.113281 1499.289062 962.273438 1486.808594 C 979.046875 1468.039062 990.316406 1445.640625 1000.289062 1424.039062 C 1010.179688 1402.441406 1018.820312 1381.480469 1028.460938 1365.78125 C 1050.550781 1329.640625 1073.191406 1293.75 1095.949219 1257.859375 L 1375.707031 1257.859375 L 1511.152344 1310.519531 C 1509.625 1320.671875 1508.835938 1331.058594 1508.835938 1341.628906 C 1508.824219 1399.261719 1532.238281 1451.601562 1570.015625 1489.351562 C 1607.769531 1527.128906 1660.09375 1550.539062 1717.742188 1550.53125 C 1775.363281 1550.539062 1827.703125 1527.128906 1865.457031 1489.351562 C 1903.246094 1451.601562 1926.660156 1399.269531 1926.648438 1341.628906 C 1926.660156 1283.992188 1903.246094 1231.660156 1865.457031 1193.910156" fill="#646044"/></g></svg>